# This file uses centimeters as units for non-parametric coordinates.

mtllib posteAlto.mtl
g default
v -0.740360 3.402552 0.049314
v -0.333562 3.811721 0.049314
v -0.740360 3.402552 -0.016327
v -0.333562 3.811721 -0.016327
v 0.244552 3.817753 0.049314
v 0.658106 3.384452 0.049314
v 0.658106 3.384452 -0.016327
v 0.244552 3.817753 -0.016327
v -0.327595 2.389508 0.049314
v -0.746327 2.812222 0.049314
v -0.746327 2.812222 -0.016327
v -0.327595 2.389508 -0.016327
v 0.658106 2.800157 0.049314
v 0.244552 2.389508 0.049314
v 0.244552 2.389508 -0.016327
v 0.658106 2.800157 -0.016327
v -0.117943 0.422525 0.045318
v 0.023766 0.422525 0.045318
v -0.117943 2.416101 0.045318
v 0.023766 2.416101 0.045318
v -0.117943 2.416101 0.010128
v 0.023766 2.416101 0.010128
v -0.117943 0.422525 0.010128
v 0.023766 0.422525 0.010128
v -0.152135 0.220214 -0.027109
v -0.319885 0.017903 -0.019699
v 0.066465 0.220214 -0.027109
v 0.235478 0.017903 -0.019699
v 0.066465 0.220214 0.070206
v 0.235478 0.017903 0.062796
v -0.152135 0.220214 0.070206
v -0.319885 0.017903 0.062796
vt 0.467232 0.421000
vt 0.464952 0.397327
vt 0.473266 0.393319
vt 0.489760 0.421000
vt 0.467232 0.496089
vt 0.467232 0.458545
vt 0.489760 0.458545
vt 0.474960 0.496089
vt 0.492029 0.372677
vt 0.534813 0.352951
vt 0.534813 0.376415
vt 0.489069 0.390222
vt 0.422179 0.352951
vt 0.454132 0.361415
vt 0.451491 0.393264
vt 0.422179 0.376415
vt 0.459723 0.428040
vt 0.497268 0.428040
vt 0.497268 0.451504
vt 0.459723 0.451504
vt 0.166874 0.486822
vt 0.364512 0.287421
vt 0.456412 0.502587
vt 0.494308 0.513849
vt 0.615235 0.287421
vt 0.818998 0.492579
vt 0.816038 0.753299
vt 0.615820 0.947090
vt 0.361742 0.948346
vt 0.167002 0.764600
vt 0.551451 0.446537
vt 0.578294 0.473087
vt 0.616442 0.473478
vt 0.643731 0.445363
vt 0.643731 0.407450
vt 0.616442 0.380804
vt 0.578688 0.380804
vt 0.551057 0.408232
vt 0.481209 0.110343
vt 0.490434 0.110343
vt 0.490434 0.240121
vt 0.481209 0.240121
vt 0.504362 0.086865
vt 0.504362 0.077640
vt 0.506653 0.077640
vt 0.506653 0.086865
vt 0.483425 0.076580
vt 0.492650 0.076580
vt 0.492650 0.206357
vt 0.483425 0.206357
vt 0.497833 0.113793
vt 0.497833 0.077640
vt 0.503203 0.077640
vt 0.503203 0.113793
vt 0.484693 0.103980
vt 0.486983 0.103980
vt 0.486983 0.233758
vt 0.484693 0.233758
vt 0.492877 0.103980
vt 0.495168 0.103980
vt 0.495168 0.233758
vt 0.492877 0.233758
vt 0.495430 0.219527
vt 0.481199 0.219527
vt 0.506432 0.232697
vt 0.470279 0.232697
vt 0.483072 0.090810
vt 0.489407 0.090810
vt 0.483555 0.077640
vt 0.488925 0.077640
vt 0.478983 0.097173
vt 0.493213 0.097173
vt 0.468063 0.084003
vt 0.504216 0.084003
vt 0.490453 0.090810
vt 0.496788 0.090810
vt 0.490935 0.077640
vt 0.496305 0.077640
vn -0.010434 0.999946 0.000000
vn -0.010434 0.999946 0.000000
vn -0.010434 0.999946 0.000000
vn -0.010434 0.999946 0.000000
vn 0.000000 -1.000000 0.000000
vn 0.000000 -1.000000 0.000000
vn 0.000000 -1.000000 0.000000
vn 0.000000 -1.000000 0.000000
vn 1.000000 0.000000 0.000000
vn 1.000000 0.000000 0.000000
vn 1.000000 0.000000 0.000000
vn 1.000000 0.000000 0.000000
vn -0.999949 0.010108 0.000000
vn -0.999949 0.010108 0.000000
vn -0.999949 0.010108 0.000000
vn -0.999949 0.010108 0.000000
vn 0.000000 0.000000 -1.000000
vn 0.000000 0.000000 -1.000000
vn 0.000000 0.000000 -1.000000
vn 0.000000 0.000000 -1.000000
vn -0.000000 0.000000 -1.000000
vn -0.000000 0.000000 -1.000000
vn -0.000000 0.000000 -1.000000
vn 0.000000 0.000000 -1.000000
vn 0.000000 0.000000 1.000000
vn 0.000000 0.000000 1.000000
vn -0.000000 0.000000 1.000000
vn -0.000000 0.000000 1.000000
vn -0.000000 0.000000 1.000000
vn 0.000000 0.000000 1.000000
vn 0.000000 0.000000 1.000000
vn 0.000000 0.000000 1.000000
vn -0.709159 0.705048 0.000000
vn -0.709159 0.705049 0.000000
vn -0.709159 0.705048 0.000000
vn -0.709159 0.705049 0.000000
vn 0.723398 0.690431 0.000000
vn 0.723398 0.690431 0.000000
vn 0.723398 0.690431 0.000000
vn 0.723398 0.690431 0.000000
vn -0.710445 -0.703752 0.000000
vn -0.710445 -0.703753 0.000000
vn -0.710445 -0.703752 0.000000
vn -0.710444 -0.703753 0.000000
vn 0.704611 -0.709593 0.000000
vn 0.704609 -0.709596 0.000000
vn 0.704611 -0.709594 0.000000
vn 0.704609 -0.709596 0.000000
vn 0.000000 0.012411 0.999923
vn 0.000000 0.015766 0.999876
vn 0.000000 0.000000 1.000000
vn 0.000000 0.000000 1.000000
vn 0.000000 1.000000 0.000000
vn 0.000000 1.000000 0.000000
vn 0.000000 1.000000 0.000000
vn 0.000000 1.000000 0.000000
vn 0.000000 0.000000 -1.000000
vn 0.000000 0.000000 -1.000000
vn 0.000000 0.018553 -0.999828
vn 0.000000 0.023537 -0.999723
vn 0.000000 -1.000000 0.000000
vn 0.000000 -1.000000 0.000000
vn 0.000000 -1.000000 0.000000
vn 0.000000 -1.000000 0.000000
vn 0.999784 0.020777 0.000000
vn 0.999551 0.029966 0.000000
vn 1.000000 0.000000 0.000000
vn 1.000000 0.000000 0.000000
vn -0.999711 0.024060 0.000000
vn -0.999861 0.016648 0.000000
vn -1.000000 0.000000 0.000000
vn -1.000000 0.000000 0.000000
vn 0.000000 0.040447 -0.999182
vn 0.000000 0.010624 -0.999944
vn 0.000000 -0.036601 -0.999330
vn 0.000000 -0.036601 -0.999330
vn 0.880017 0.474942 0.000000
vn 0.880201 0.474601 0.000000
vn 0.767436 0.641126 0.000000
vn 0.767436 0.641125 0.000000
vn 0.000000 0.019073 0.999818
vn 0.000000 -0.002481 0.999997
vn 0.000000 -0.036601 0.999330
vn 0.000000 -0.036601 0.999330
vn -0.886621 0.462498 0.000000
vn -0.890424 0.455132 0.000000
vn -0.769798 0.638288 0.000000
vn -0.769798 0.638287 0.000000
s 1
g pasted__polySurface17 group
usemtl pasted__phong1SG
f 4/1/1 2/2/2 8/4/3
f 8/4/3 2/2/2 5/3/4
s 2
f 9/5/5 12/6/6 14/8/7
f 14/8/7 12/6/6 15/7/8
s 3
f 13/9/9 16/10/10 6/12/11
f 6/12/11 16/10/10 7/11/12
s 4
f 11/13/13 10/14/14 3/16/15
f 3/16/15 10/14/14 1/15/16
s 5
f 8/33/17 7/34/18 4/32/19
f 4/32/19 7/34/18 3/31/20
f 3/31/20 7/34/18 11/38/21
f 7/34/18 16/35/22 11/38/21
f 16/35/22 15/36/23 11/38/21
f 15/36/23 12/37/24 11/38/21
s 6
f 5/28/25 2/29/26 6/27/27
f 2/29/26 1/30/28 6/27/27
f 1/30/28 10/21/29 6/27/27
f 10/21/29 9/22/30 6/27/27
f 9/22/30 14/25/31 6/27/27
f 14/25/31 13/26/32 6/27/27
s 7
f 1/15/33 2/2/34 3/17/35
f 3/17/35 2/2/34 4/1/36
s 8
f 5/3/37 6/12/38 8/4/39
f 8/4/39 6/12/38 7/18/40
s 9
f 9/5/41 10/23/42 12/6/43
f 12/6/43 10/23/42 11/20/44
s 10
f 13/24/45 14/8/46 16/19/47
f 16/19/47 14/8/46 15/7/48
s 11
f 17/39/49 18/40/50 19/42/51
f 19/42/51 18/40/50 20/41/52
s 12
f 19/43/53 20/44/54 21/46/55
f 21/46/55 20/44/54 22/45/56
s 13
f 21/47/57 22/48/58 23/50/59
f 23/50/59 22/48/58 24/49/60
s 14
f 26/51/61 28/52/62 32/54/63
f 32/54/63 28/52/62 30/53/64
s 15
f 18/55/65 24/56/66 20/58/67
f 20/58/67 24/56/66 22/57/68
s 16
f 23/59/69 17/60/70 21/62/71
f 21/62/71 17/60/70 19/61/72
s 13
f 23/50/59 24/49/60 25/64/73
f 25/64/73 24/49/60 27/63/74
f 25/64/73 27/63/74 26/66/75
f 26/66/75 27/63/74 28/65/76
s 15
f 18/55/65 29/67/77 24/56/66
f 24/56/66 29/67/77 27/68/78
f 27/68/78 29/67/77 28/70/79
f 28/70/79 29/67/77 30/69/80
s 11
f 17/39/49 31/71/81 18/40/50
f 18/40/50 31/71/81 29/72/82
f 31/71/81 32/73/83 29/72/82
f 29/72/82 32/73/83 30/74/84
s 16
f 17/60/70 23/59/69 31/76/85
f 31/76/85 23/59/69 25/75/86
f 31/76/85 25/75/86 32/78/87
f 32/78/87 25/75/86 26/77/88
