# This file uses centimeters as units for non-parametric coordinates.

mtllib Edificio4.mtl
g default
v -5.812810 0.602990 -1.535130
v -5.812810 11.708479 -1.535130
v -10.480612 11.708479 -1.535130
v -10.480612 0.602990 -1.535130
v -10.480612 0.602990 3.169977
v -5.812810 0.602990 3.169977
v -10.480612 11.708479 3.169977
v -5.557463 12.292252 -1.751224
v -5.557463 12.292252 -1.793467
v -10.724210 12.292252 -1.793467
v -10.724210 12.292252 -1.751224
v -5.557463 0.006641 3.415523
v -5.557463 -0.010685 3.415523
v -5.557463 -0.010685 -1.751224
v -5.557463 0.006641 -1.751224
v -5.554472 0.006641 -1.751224
v -5.554472 0.006641 3.415523
v -10.724210 12.322157 -1.751224
v -5.557463 12.322157 -1.751224
v -5.812810 11.708479 3.169977
v -5.557463 0.018707 3.415523
v -5.812810 0.018707 3.415523
v -5.812810 0.006641 3.415523
v -10.724210 12.280185 3.415523
v -10.724210 12.292252 3.415523
v -10.724210 12.292252 3.169977
v -10.724210 12.280185 3.169977
v -5.554472 12.280185 -1.751224
v -5.554472 12.280185 3.415523
v -10.724210 12.322157 3.415523
v -5.557463 12.322157 3.415523
v -10.724210 0.018707 3.428315
v -5.557463 0.018707 3.428315
v -5.557463 12.292252 3.428315
v -10.724210 12.292252 3.428315
v -5.557463 12.292252 -1.535130
v -5.557463 12.280185 -1.535130
v -5.557463 12.280185 -1.751224
v -10.724210 12.280185 -1.751224
v -10.738947 12.280185 -1.751224
v -10.738947 12.280185 3.415523
v -10.724210 12.280185 -1.535130
v -10.724210 0.018707 3.415523
v -10.480612 0.018707 3.415523
v -10.724210 0.602990 3.415523
v -10.724210 11.708479 3.415523
v -10.738947 0.006641 3.415523
v -10.724210 0.006641 3.415523
v -5.557463 0.018707 -1.751224
v -5.557463 0.602990 -1.751224
v -5.557463 11.708479 -1.751224
v -5.557463 12.292252 3.415523
v -5.557463 0.018707 -1.793467
v -10.480612 0.006641 3.415523
v -10.724210 -0.010685 3.415523
v -10.724210 12.292252 -1.535130
v -5.557463 12.280185 3.415523
v -5.557463 12.280185 3.169977
v -5.557463 12.292252 3.169977
v -5.557463 11.708479 3.415523
v -5.557463 0.602990 3.415523
v -10.724210 -0.010685 -1.751224
v -10.738947 0.006641 -1.751224
v -10.724210 0.018707 -1.793467
v -5.812810 0.006641 -1.751224
v -5.812810 0.018707 -1.751224
v -10.724210 0.006641 -1.751224
v -10.724210 0.018707 -1.751224
v -10.480612 0.018707 -1.751224
v -10.480612 0.006641 -1.751224
v -10.724210 11.708479 -1.751224
v -10.724210 0.602990 -1.751224
vt 0.612645 0.261901
vt 0.612645 0.488109
vt 0.386787 0.488109
vt 0.386787 0.261901
vt 0.386787 0.489544
vt 0.386787 0.261881
vt 0.612645 0.261881
vt 0.612645 0.489544
vt 0.387147 0.760456
vt 0.613355 0.760456
vt 0.613355 0.988119
vt 0.386967 0.988109
vt 0.625000 0.709121
vt 0.825720 0.032184
vt 0.380595 0.032184
vt 0.375000 0.709121
vt 0.625000 0.007059
vt 0.625000 0.000000
vt 0.875000 0.000000
vt 0.875000 0.007059
vt 0.125000 0.002896
vt 0.125000 0.000000
vt 0.375000 0.000000
vt 0.375000 0.002896
vt 0.375000 0.512182
vt 0.500000 0.375000
vt 0.500000 0.375000
vt 0.625000 0.512182
vt 0.387147 0.261881
vt 0.613355 0.261881
vt 0.613355 0.489544
vt 0.387147 0.489544
vt 0.386787 0.988119
vt 0.386787 0.760456
vt 0.612645 0.760456
vt 0.612645 0.988119
vt 0.386787 0.761891
vt 0.612645 0.761891
vt 0.612645 0.988099
vt 0.375246 0.002896
vt 0.375246 0.250000
vt 0.375000 0.250000
vt 0.375000 0.232902
vt 0.375000 0.237818
vt 0.363119 0.237818
vt 0.363119 0.232902
vt 0.375000 0.750000
vt 0.625000 0.750000
vt 0.488829 0.000000
vt 0.488829 1.000000
vt 0.500000 0.375000
vt 0.500000 0.375000
vt 0.375000 0.250000
vt 0.625000 0.250000
vt 0.625000 0.500000
vt 0.375000 0.500000
vt 0.875000 0.040879
vt 0.875000 0.250000
vt 0.874754 0.250000
vt 0.874754 0.040879
vt 0.875000 0.235737
vt 0.875000 0.250000
vt 0.625000 0.250000
vt 0.625000 0.235737
vt 0.636881 0.235737
vt 0.864544 0.235737
vt 0.612645 0.237621
vt 0.625000 0.237621
vt 0.375000 0.237621
vt 0.386787 0.237621
vt 0.375246 0.235737
vt 0.387147 0.235737
vt 0.613355 0.235737
vt 0.375000 0.250000
vt 0.375000 0.235737
vt 0.375246 0.747104
vt 0.387147 0.747104
vt 0.613355 0.747104
vt 0.625000 0.747104
vt 0.375000 0.747104
vt 0.625000 0.237818
vt 0.375000 0.512379
vt 0.625000 0.512379
vt 0.863109 0.040879
vt 0.636901 0.040879
vt 0.625000 0.040879
vt 0.625000 0.000000
vt 0.875000 0.000000
vt 0.125000 0.250000
vt 0.125000 0.237621
vt 0.125246 0.237621
vt 0.136891 0.237621
vt 0.363099 0.237621
vt 0.612645 0.007059
vt 0.612645 0.011975
vt 0.386787 0.011975
vt 0.386787 0.007059
vt 0.375000 0.007059
vt 0.375000 0.000000
vt 0.125000 0.250000
vt 0.125000 0.237818
vt 0.135456 0.237818
vt 0.135456 0.232902
vt 0.625000 0.232902
vt 0.636881 0.232902
vt 0.636881 0.237818
vt 0.625000 0.002896
vt 0.625000 0.000000
vt 0.875000 0.000000
vt 0.875000 0.002896
vt 0.864544 0.002896
vt 0.636881 0.002896
vt 0.613355 0.002896
vt 0.387147 0.002896
vt 0.636901 0.237621
vt 0.863109 0.237621
vt 0.874754 0.237621
vt 0.875000 0.237621
vt 0.875000 0.250000
vt 0.864544 0.232902
vt 0.864544 0.237818
vt 0.875000 0.237818
vt 0.875000 0.250000
vt 0.375000 0.000000
vt 0.375246 0.000000
vt 0.125246 0.250000
vt 0.125000 0.250000
vt 0.125000 0.040879
vt 0.125246 0.040879
vt 0.500000 0.875000
vt 0.500000 0.875000
vt 0.500000 0.875000
vt 0.500000 0.875000
vt 0.625000 0.500000
vt 0.375000 0.500000
vt 0.380186 1.000000
vt 0.825641 1.000000
vt 0.375000 0.500000
vt 0.375246 0.500000
vt 0.125000 0.007059
vt 0.125000 0.000000
vt 0.125000 0.250000
vt 0.125000 0.235737
vt 0.375246 0.514263
vt 0.375246 0.750000
vt 0.375000 0.750000
vt 0.375000 0.514263
vt 0.386787 0.040879
vt 0.375000 0.040879
vt 0.375000 0.000000
vt 0.612645 0.040879
vt 0.136891 0.040879
vt 0.125000 0.000000
vt 0.363099 0.040879
vt 0.625000 0.514263
vt 0.613355 0.514263
vt 0.387147 0.514263
vt 0.375000 0.742941
vt 0.386787 0.742941
vt 0.386787 0.738025
vt 0.612645 0.738025
vt 0.612645 0.742941
vt 0.625000 0.742941
vt 0.039595 1.000000
vt 0.039595 0.000000
vt 0.376580 0.000000
vt 0.376580 1.000000
vt 0.829247 1.000000
vt 0.829247 0.000000
vt 0.825641 0.000000
vt 0.380186 0.000000
vt 0.026674 0.000000
vt 0.479341 0.000000
vt 0.479341 1.000000
vt 0.026674 1.000000
vn 0.000000 0.000000 1.000000
vn 0.000000 0.000000 1.000000
vn 0.000000 0.000000 1.000000
vn 0.000000 0.000000 1.000000
vn 0.000000 1.000000 0.000000
vn 0.000000 1.000000 0.000000
vn 0.000000 1.000000 0.000000
vn 0.000000 1.000000 0.000000
vn 1.000000 0.000000 0.000000
vn 1.000000 0.000000 0.000000
vn 1.000000 0.000000 0.000000
vn 1.000000 0.000000 0.000000
vn 0.000000 1.000000 0.000000
vn 0.000000 1.000000 0.000000
vn 0.000000 1.000000 0.000000
vn 0.000000 1.000000 0.000000
vn 1.000000 0.000000 0.000000
vn 1.000000 0.000000 0.000000
vn 1.000000 0.000000 0.000000
vn 1.000000 0.000000 0.000000
vn 0.000000 -1.000000 0.000000
vn 0.000000 -1.000000 0.000000
vn 0.000000 -1.000000 0.000000
vn 0.000000 -1.000000 0.000000
vn 0.000000 0.000000 -1.000000
vn 0.000000 0.000000 -1.000000
vn 0.000000 0.000000 -1.000000
vn 0.000000 0.000000 -1.000000
vn -1.000000 0.000000 0.000000
vn -1.000000 0.000000 0.000000
vn -1.000000 0.000000 0.000000
vn -1.000000 0.000000 0.000000
vn 0.000000 -1.000000 0.000000
vn 0.000000 -1.000000 0.000000
vn 0.000000 -1.000000 0.000000
vn 0.000000 -1.000000 0.000000
vn 0.000000 0.000000 -1.000000
vn 0.000000 0.000000 -1.000000
vn 0.000000 0.000000 -1.000000
vn 0.000000 0.000000 -1.000000
vn 0.000020 0.000000 1.000000
vn 0.000000 0.000000 1.000000
vn 0.000000 0.000000 1.000000
vn 0.000004 0.000000 1.000000
vn -1.000000 0.000000 0.000000
vn -1.000000 -0.000001 0.000000
vn -1.000000 -0.000002 0.000000
vn -1.000000 -0.000002 0.000000
vn 1.000000 0.000000 0.000000
vn 1.000000 0.000000 0.000000
vn 1.000000 0.000000 0.000000
vn 1.000000 0.000000 0.000000
vn 0.000000 1.000000 0.000000
vn 0.000000 1.000000 0.000000
vn 0.000000 1.000000 0.000000
vn 0.000000 1.000000 0.000000
vn 0.000000 0.000000 1.000000
vn 0.000000 0.000000 1.000000
vn 0.000000 0.000000 1.000000
vn 0.000000 0.000000 1.000000
vn 1.000000 -0.000004 0.000000
vn 1.000000 -0.000013 0.000000
vn 1.000000 -0.000013 0.000000
vn 1.000000 0.000000 0.000000
vn 0.000000 1.000000 0.000000
vn 0.000000 1.000000 0.000000
vn 0.000000 1.000000 0.000000
vn 0.000000 1.000000 0.000000
vn 0.000000 1.000000 0.000000
vn 0.000000 1.000000 0.000000
vn 0.000000 -1.000000 0.000000
vn 0.000000 -1.000000 0.000000
vn 0.000000 -1.000000 0.000000
vn 0.000000 -1.000000 0.000000
vn 0.000000 -1.000000 0.000000
vn 0.000000 -1.000000 0.000000
vn -0.000006 0.000000 1.000000
vn -0.000006 0.000000 1.000000
vn -0.000006 0.000000 1.000000
vn -0.000006 0.000000 1.000000
vn -0.000006 0.000000 1.000000
vn -0.000006 0.000000 1.000000
vn -0.000003 0.000000 1.000000
vn 0.000007 0.000000 -1.000000
vn 0.000008 0.000000 -1.000000
vn 0.000008 0.000000 -1.000000
vn 0.000008 0.000000 -1.000000
vn 0.000008 0.000000 -1.000000
vn 0.000008 0.000000 -1.000000
vn 0.000002 0.000000 -1.000000
vn 0.000000 0.000000 1.000000
vn 0.000000 0.000000 1.000000
vn 0.000000 0.000000 1.000000
vn 0.000000 0.000000 1.000000
vn 0.000000 1.000000 0.000000
vn 0.000000 1.000000 0.000000
vn 0.000000 1.000000 0.000000
vn 0.000000 1.000000 0.000000
vn 1.000000 0.000000 0.000000
vn 1.000000 0.000000 0.000000
vn 1.000000 0.000000 0.000000
vn 1.000000 0.000000 0.000000
vn 1.000000 0.000000 0.000000
vn 1.000000 0.000000 0.000000
vn 1.000000 -0.000004 0.000000
vn -1.000000 0.000000 0.000000
vn -1.000000 0.000000 0.000000
vn -1.000000 -0.000001 0.000000
vn -1.000000 0.000000 0.000000
vn -1.000000 0.000000 0.000000
vn -1.000000 0.000000 0.000000
vn -1.000000 0.000000 0.000000
vn 0.000000 0.000000 1.000000
vn 0.000004 0.000000 1.000000
vn 0.000000 0.000000 1.000000
vn 0.000000 0.000000 1.000000
vn 0.000000 0.000000 1.000000
vn 0.000000 0.000000 1.000000
vn -0.000003 0.000000 1.000000
vn 0.000000 0.000000 1.000000
vn -1.000000 -0.000001 0.000000
vn -1.000000 -0.000003 0.000000
vn -1.000000 -0.000003 0.000000
vn -1.000000 -0.000001 0.000000
vn -1.000000 -0.000002 0.000000
vn -1.000000 -0.000002 0.000000
vn -1.000000 -0.000002 0.000000
vn -1.000000 -0.000002 0.000000
vn 1.000000 -0.000008 0.000000
vn 1.000000 0.000000 0.000000
vn 1.000000 -0.000013 0.000000
vn 1.000000 -0.000013 0.000000
vn 0.000000 1.000000 0.000000
vn 0.000000 1.000000 0.000000
vn 0.000000 1.000000 0.000000
vn 0.000000 1.000000 0.000000
vn 0.000000 1.000000 0.000000
vn 0.000000 1.000000 0.000000
vn 0.000004 0.000000 1.000000
vn 0.000021 0.000000 1.000000
vn 0.000021 0.000000 1.000000
vn 0.000021 0.000000 1.000000
vn 0.000021 0.000000 1.000000
vn 0.000021 0.000000 1.000000
vn 0.000020 0.000000 1.000000
vn 1.000000 0.000000 0.000000
vn 1.000000 0.000000 0.000000
vn 1.000000 0.000000 0.000000
vn 1.000000 0.000000 0.000000
vn 1.000000 0.000000 0.000000
vn 1.000000 -0.000008 0.000000
vn 1.000000 0.000000 0.000000
vn 1.000000 -0.000013 0.000000
vn 1.000000 -0.000008 0.000000
vn 1.000000 -0.000013 0.000000
vn 1.000000 -0.000013 0.000000
vn 1.000000 -0.000013 0.000000
vn 1.000000 -0.000013 0.000000
vn 1.000000 -0.000004 0.000000
vn 1.000000 -0.000013 0.000000
vn -0.000003 0.000000 1.000000
vn 0.000000 0.000000 1.000000
vn 0.000000 0.000000 1.000000
vn -0.000006 0.000000 1.000000
vn -1.000000 -0.000002 0.000000
vn -1.000000 -0.000002 0.000000
vn -1.000000 -0.000001 0.000000
vn -1.000000 0.000000 0.000000
vn 0.000000 -1.000000 0.000000
vn 0.000000 -1.000000 0.000000
vn 0.000000 -1.000000 0.000000
vn 0.000000 -1.000000 0.000000
vn -1.000000 0.000000 0.000000
vn -1.000000 0.000000 0.000000
vn -1.000000 0.000000 0.000000
vn -1.000000 0.000000 0.000000
vn 0.000000 0.000000 -1.000000
vn 0.000000 0.000000 -1.000000
vn 0.000000 0.000000 -1.000000
vn 0.000000 0.000000 -1.000000
vn 0.000002 0.000000 -1.000000
vn 0.000000 0.000000 -1.000000
vn 0.000000 0.000000 -1.000000
vn 0.000007 0.000000 -1.000000
vn -1.000000 0.000000 0.000000
vn -1.000000 0.000000 0.000000
vn -1.000000 0.000000 0.000000
vn -1.000000 0.000000 0.000000
vn 0.000000 -1.000000 0.000000
vn 0.000000 -1.000000 0.000000
vn 0.000000 -1.000000 0.000000
vn 0.000000 -1.000000 0.000000
vn 0.000000 0.000000 -1.000000
vn 0.000000 0.000000 -1.000000
vn 0.000000 0.000000 -1.000000
vn 0.000000 0.000000 -1.000000
vn 0.000000 -1.000000 0.000000
vn 0.000000 -1.000000 0.000000
vn 0.000000 -1.000000 0.000000
vn 0.000000 -1.000000 0.000000
vn 0.000000 -1.000000 0.000000
vn 0.000000 -1.000000 0.000000
vn -1.000000 0.000000 0.000000
vn -1.000000 0.000000 0.000000
vn -1.000000 -0.000001 0.000000
vn -1.000000 0.000000 0.000000
vn -1.000000 0.000000 0.000000
vn -1.000000 0.000000 0.000000
vn -1.000000 0.000000 0.000000
vn 0.000000 0.000000 -1.000000
vn 0.000000 0.000000 -1.000000
vn 0.000000 0.000000 -1.000000
vn 0.000000 0.000000 -1.000000
vn 0.000000 0.000000 -1.000000
vn 0.000000 0.000000 -1.000000
vn 0.000000 0.000000 -1.000000
vn 0.000000 0.000000 -1.000000
vn 0.000000 0.000000 -1.000000
vn 0.000000 0.000000 -1.000000
vn 0.000000 0.000000 -1.000000
vn 0.000000 0.000000 -1.000000
vn 0.000000 0.000000 -1.000000
vn 0.000000 0.000000 -1.000000
vn 0.000002 0.000000 -1.000000
s off
g Edificio_SinDiseno1:polySurface4
usemtl Edificio_SinDiseno:lambert1SG
f 1/1/1 2/2/2 3/3/3 4/4/4
f 4/5/5 5/6/6 6/7/7 1/8/8
f 4/9/9 3/10/10 7/11/11 5/12/12
f 8/13/13 9/14/14 10/15/15 11/16/16
f 12/17/17 13/18/18 14/19/19 15/20/20
f 15/21/21 16/22/22 17/23/23 12/24/24
f 11/25/25 18/26/26 19/27/27 8/28/28
f 6/29/29 20/30/30 2/31/31 1/32/32
f 7/33/33 3/34/34 2/35/35 20/36/36
f 5/12/37 7/37/38 20/38/39 6/39/40
f 21/40/41 22/41/42 23/42/43 12/24/44
f 24/43/45 25/44/46 26/45/47 27/46/48
f 16/49/49 28/50/50 29/164/51 17/165/52
f 30/51/53 31/52/54 19/27/55 18/26/56
f 32/172/57 33/173/58 34/174/59 35/175/60
f 8/57/61 36/58/62 37/59/63 38/60/64
f 39/61/65 40/62/66 41/63/67 24/64/68 27/65/69 42/66/70
f 22/67/71 21/68/72 33/54/73 32/53/74 43/69/75 44/70/76
f 43/71/77 45/72/78 46/73/79 24/64/80 41/63/81 47/74/82 48/75/83
f 49/76/84 50/77/85 51/78/86 38/79/87 28/48/88 16/47/89 15/80/90
f 52/81/91 31/52/92 30/51/93 25/44/94
f 25/82/95 35/56/96 34/55/97 52/83/98
f 38/60/99 51/84/100 50/85/101 49/86/102 53/87/103 9/88/104 8/57/105
f 32/53/106 35/89/107 25/90/108 24/91/109 46/92/110 45/93/111 43/69/112
f 13/18/113 12/17/114 23/94/115 22/95/116 44/96/117 54/97/118 48/98/119 55/99/120
f 25/44/121 30/51/122 18/100/123 11/101/124 56/102/125 42/103/126 27/46/127 26/45/128
f 52/81/129 57/104/130 58/105/131 59/106/132
f 57/107/133 29/108/134 28/109/135 38/110/136 37/111/137 58/112/138
f 12/24/139 17/23/140 29/108/141 57/107/142 60/113/143 61/114/144 21/40/145
f 33/54/146 21/68/147 61/115/148 60/116/149 57/117/150 52/118/151 34/119/152
f 31/52/153 52/81/154 59/106/155 58/105/156 37/120/157 36/121/158 8/122/159 19/123/160
f 48/75/161 54/124/162 44/125/163 43/71/164
f 42/126/165 56/127/166 11/128/167 39/129/168
f 62/130/169 14/131/170 13/132/171 55/133/172
f 47/166/173 41/167/174 40/168/175 63/169/176
f 10/136/177 9/137/178 53/170/179 64/171/180
f 15/80/181 65/138/182 66/139/183 49/76/184
f 67/140/185 62/141/186 55/99/187 48/98/188
f 48/75/189 47/74/190 63/142/191 67/143/192
f 68/144/193 69/145/194 70/146/195 67/147/196
f 69/148/197 68/149/198 64/150/199 53/87/200 49/86/201 66/151/202
f 71/152/203 39/129/204 11/128/205 10/153/206 64/150/207 68/149/208 72/154/209
f 67/147/210 63/135/211 40/134/212 39/155/213 71/156/214 72/157/215 68/144/216
f 14/131/217 62/130/218 67/158/219 70/159/220 69/160/221 66/161/222 65/162/223 15/163/224
