# This file uses centimeters as units for non-parametric coordinates.

mtllib TapaBuzon.mtl
g default
v -0.828614 1.108304 -35.683018
v -0.828480 1.181506 -35.690029
v -0.828466 1.190613 -35.690727
v -0.828033 1.268563 -35.713364
v -0.827327 1.335435 -35.750191
v -1.005855 1.108304 -35.679989
v -1.005721 1.181506 -35.687000
v -1.005717 1.191430 -35.687180
v -1.005269 1.268492 -35.710560
v -1.004564 1.335333 -35.747334
v -0.826400 1.386958 -35.798588
v -1.003648 1.386330 -35.795158
vt 0.552083 0.312500
vt 0.562500 0.312500
vt 0.562500 0.687500
vt 0.552083 0.687500
vt 0.572917 0.312500
vt 0.572917 0.687500
vt 0.583333 0.312500
vt 0.583333 0.687500
vt 0.593750 0.312500
vt 0.593750 0.687500
vt 0.604167 0.312500
vt 0.604167 0.687500
vn 0.017009 0.095301 0.995303
vn 0.017009 0.095301 0.995303
vn 0.017009 0.095301 0.995303
vn 0.017009 0.095301 0.995303
vn 0.000201 0.109737 0.993961
vn 0.001561 0.313538 0.949574
vn 0.001561 0.313723 0.949513
vn 0.000201 0.109737 0.993961
vn 0.001561 0.313538 0.949574
vn 0.000137 0.452766 0.891630
vn 0.000136 0.452826 0.891599
vn 0.001561 0.313723 0.949513
vn 0.000137 0.452766 0.891630
vn -0.001134 0.661112 0.750286
vn -0.001134 0.661167 0.750238
vn 0.000136 0.452826 0.891599
vn -0.001134 0.661112 0.750286
vn -0.000951 0.754753 0.656009
vn -0.000951 0.754753 0.656009
vn -0.001134 0.661167 0.750238
s off
g Maqueta:polySurface147polySurface146
usemtl Maqueta:lambert1SG2
f 1/1/1 2/2/2 7/3/3 6/4/4
f 2/2/5 3/5/6 8/6/7 7/3/8
f 3/5/9 4/7/10 9/8/11 8/6/12
f 4/7/13 5/9/14 10/10/15 9/8/16
f 5/9/17 11/11/18 12/12/19 10/10/20
