# This file uses centimeters as units for non-parametric coordinates.

mtllib Edificio_SinDiseno.mtl
g default
v -3.118000 3.567337 0.994962
v -1.608000 3.567337 0.994962
v -1.608000 3.757720 0.994962
v -3.118000 3.757720 0.994962
v -1.608000 3.567337 -0.518039
v -1.608000 3.757720 -0.518039
v -3.095519 3.757720 0.972436
v -1.630481 3.757720 0.972436
v -1.630481 3.580938 0.972436
v -3.095519 3.580938 0.972436
v -1.630481 3.757720 -0.495513
v -1.630481 3.580938 -0.495513
v -3.118000 3.757720 -0.518039
v -3.095519 3.757720 -0.495513
v -3.095519 3.580938 -0.495513
v -3.118000 3.567337 -0.518039
v -1.687564 0.175059 -0.445676
v -1.687564 3.399183 -0.445676
v -3.042711 3.399183 -0.445676
v -3.042711 0.175059 -0.445676
v -3.042711 0.175059 0.920302
v -1.687564 0.175059 0.920302
v -3.042711 3.399183 0.920302
v -1.613432 3.568663 -0.508412
v -1.613432 3.568663 -0.520676
v -3.113432 3.568663 -0.520676
v -3.113432 3.568663 -0.508412
v -1.613432 0.001928 0.991588
v -1.613432 -0.003102 0.991588
v -1.613432 -0.003102 -0.508412
v -1.613432 0.001928 -0.508412
v -1.612564 0.001928 -0.508412
v -1.612564 0.001928 0.991588
v -3.113432 3.577345 -0.508412
v -1.613432 3.577345 -0.508412
v -1.687564 3.399183 0.920302
v -1.613432 0.005431 0.991588
v -1.687564 0.005431 0.991588
v -1.687564 0.001928 0.991588
v -3.113432 3.565160 0.991588
v -3.113432 3.568663 0.991588
v -3.113432 3.568663 0.920302
v -3.113432 3.565160 0.920302
v -1.612564 3.565160 -0.508412
v -1.612564 3.565160 0.991588
v -3.113432 3.577345 0.991588
v -1.613432 3.577345 0.991588
v -3.113432 0.005431 0.995302
v -1.613432 0.005431 0.995302
v -1.613432 3.568663 0.995302
v -3.113432 3.568663 0.995302
v -1.613432 3.568663 -0.445676
v -1.613432 3.565160 -0.445676
v -1.613432 3.565160 -0.508412
v -3.113432 3.565160 -0.508412
v -3.117711 3.565160 -0.508412
v -3.117711 3.565160 0.991588
v -3.113432 3.565160 -0.445676
v -3.113432 0.005431 0.991588
v -3.042711 0.005431 0.991588
v -3.113432 0.175059 0.991588
v -3.113432 3.399183 0.991588
v -3.117711 0.001928 0.991588
v -3.113432 0.001928 0.991588
v -1.613432 0.005431 -0.508412
v -1.613432 0.175059 -0.508412
v -1.613432 3.399183 -0.508412
v -1.613432 3.568663 0.991588
v -1.613432 0.005431 -0.520676
v -3.042711 0.001928 0.991588
v -3.113432 -0.003102 0.991588
v -3.113432 3.568663 -0.445676
v -1.613432 3.565160 0.991588
v -1.613432 3.565160 0.920302
v -1.613432 3.568663 0.920302
v -1.613432 3.399183 0.991588
v -1.613432 0.175059 0.991588
v -3.113432 -0.003102 -0.508412
v -3.117711 0.001928 -0.508412
v -3.113432 0.005431 -0.520676
v -1.687564 0.001928 -0.508412
v -1.687564 0.005431 -0.508412
v -3.113432 0.001928 -0.508412
v -3.113432 0.005431 -0.508412
v -3.042711 0.005431 -0.508412
v -3.042711 0.001928 -0.508412
v -3.113432 3.399183 -0.508412
v -3.113432 0.175059 -0.508412
vt 0.375000 0.000000
vt 0.625000 0.000000
vt 0.625000 0.250000
vt 0.375000 0.250000
vt 0.875000 0.000000
vt 0.875000 0.250000
vt 0.375000 0.239265
vt 0.625000 0.239265
vt 0.625000 0.000000
vt 0.375000 0.000000
vt 0.875000 0.239265
vt 0.875000 0.000000
vt 0.625000 0.500000
vt 0.375000 0.500000
vt 0.378722 0.496278
vt 0.621278 0.496278
vt 0.621278 0.253722
vt 0.378722 0.253722
vt 0.375000 0.750000
vt 0.375000 1.000000
vt 0.625000 1.000000
vt 0.625000 0.750000
vt 0.125000 0.239265
vt 0.125000 0.000000
vt 0.625000 0.510735
vt 0.375000 0.510735
vt 0.375000 0.750000
vt 0.625000 0.750000
vt 0.625000 1.000000
vt 0.375000 1.000000
vt 0.125000 0.000000
vt 0.125000 0.250000
vt 0.612645 0.261901
vt 0.612645 0.488109
vt 0.386787 0.488109
vt 0.386787 0.261901
vt 0.386787 0.489544
vt 0.386787 0.261881
vt 0.612645 0.261881
vt 0.612645 0.489544
vt 0.387147 0.760456
vt 0.613355 0.760456
vt 0.613355 0.988119
vt 0.386967 0.988109
vt 0.625000 0.709121
vt 0.625000 0.750000
vt 0.375000 0.750000
vt 0.375000 0.709121
vt 0.625000 0.007059
vt 0.625000 0.000000
vt 0.875000 0.000000
vt 0.875000 0.007059
vt 0.125000 0.002896
vt 0.125000 0.000000
vt 0.375000 0.000000
vt 0.375000 0.002896
vt 0.375000 0.512182
vt 0.375000 0.500000
vt 0.625000 0.500000
vt 0.625000 0.512182
vt 0.387147 0.261881
vt 0.613355 0.261881
vt 0.613355 0.489544
vt 0.387147 0.489544
vt 0.386787 0.988119
vt 0.386787 0.760456
vt 0.612645 0.760456
vt 0.612645 0.988119
vt 0.386787 0.761891
vt 0.612645 0.761891
vt 0.612645 0.988099
vt 0.375246 0.002896
vt 0.375246 0.250000
vt 0.375000 0.250000
vt 0.375000 0.232902
vt 0.375000 0.237818
vt 0.363119 0.237818
vt 0.363119 0.232902
vt 0.375000 0.750000
vt 0.625000 0.750000
vt 0.625000 1.000000
vt 0.375000 1.000000
vt 0.375000 0.250000
vt 0.625000 0.250000
vt 0.375000 0.250000
vt 0.625000 0.250000
vt 0.625000 0.500000
vt 0.375000 0.500000
vt 0.875000 0.040879
vt 0.875000 0.250000
vt 0.874754 0.250000
vt 0.874754 0.040879
vt 0.875000 0.235737
vt 0.875000 0.250000
vt 0.625000 0.250000
vt 0.625000 0.235737
vt 0.636881 0.235737
vt 0.864544 0.235737
vt 0.612645 0.237621
vt 0.625000 0.237621
vt 0.375000 0.237621
vt 0.386787 0.237621
vt 0.375246 0.235737
vt 0.387147 0.235737
vt 0.613355 0.235737
vt 0.375000 0.250000
vt 0.375000 0.235737
vt 0.375246 0.747104
vt 0.387147 0.747104
vt 0.613355 0.747104
vt 0.625000 0.747104
vt 0.375000 0.747104
vt 0.625000 0.237818
vt 0.375000 0.512379
vt 0.625000 0.512379
vt 0.863109 0.040879
vt 0.636901 0.040879
vt 0.625000 0.040879
vt 0.625000 0.000000
vt 0.875000 0.000000
vt 0.125000 0.250000
vt 0.125000 0.237621
vt 0.125246 0.237621
vt 0.136891 0.237621
vt 0.363099 0.237621
vt 0.612645 0.007059
vt 0.612645 0.011975
vt 0.386787 0.011975
vt 0.386787 0.007059
vt 0.375000 0.007059
vt 0.375000 0.000000
vt 0.125000 0.250000
vt 0.125000 0.237818
vt 0.135456 0.237818
vt 0.135456 0.232902
vt 0.625000 0.232902
vt 0.636881 0.232902
vt 0.636881 0.237818
vt 0.625000 0.002896
vt 0.625000 0.000000
vt 0.875000 0.000000
vt 0.875000 0.002896
vt 0.864544 0.002896
vt 0.636881 0.002896
vt 0.613355 0.002896
vt 0.387147 0.002896
vt 0.636901 0.237621
vt 0.863109 0.237621
vt 0.874754 0.237621
vt 0.875000 0.237621
vt 0.875000 0.250000
vt 0.864544 0.232902
vt 0.864544 0.237818
vt 0.875000 0.237818
vt 0.875000 0.250000
vt 0.375000 0.000000
vt 0.375246 0.000000
vt 0.125246 0.250000
vt 0.125000 0.250000
vt 0.125000 0.040879
vt 0.125246 0.040879
vt 0.375000 0.750000
vt 0.625000 0.750000
vt 0.625000 1.000000
vt 0.375000 1.000000
vt 0.625000 0.500000
vt 0.375000 0.500000
vt 0.625000 1.000000
vt 0.375000 1.000000
vt 0.375000 0.500000
vt 0.375246 0.500000
vt 0.125000 0.007059
vt 0.125000 0.000000
vt 0.125000 0.250000
vt 0.125000 0.235737
vt 0.375246 0.514263
vt 0.375246 0.750000
vt 0.375000 0.750000
vt 0.375000 0.514263
vt 0.386787 0.040879
vt 0.375000 0.040879
vt 0.375000 0.000000
vt 0.612645 0.040879
vt 0.136891 0.040879
vt 0.125000 0.000000
vt 0.363099 0.040879
vt 0.625000 0.514263
vt 0.613355 0.514263
vt 0.387147 0.514263
vt 0.375000 0.742941
vt 0.386787 0.742941
vt 0.386787 0.738025
vt 0.612645 0.738025
vt 0.612645 0.742941
vt 0.625000 0.742941
vn 0.000000 0.000000 1.000000
vn 0.000000 0.000000 1.000000
vn 0.000000 0.000000 1.000000
vn 0.000000 0.000000 1.000000
vn 1.000000 0.000000 0.000000
vn 1.000000 0.000000 0.000000
vn 1.000000 0.000000 0.000000
vn 1.000000 0.000000 0.000000
vn 0.000000 0.000000 -1.000000
vn 0.000000 0.000000 -1.000000
vn 0.000000 0.000000 -1.000000
vn 0.000000 0.000000 -1.000000
vn -1.000000 0.000000 0.000000
vn -1.000000 0.000000 0.000000
vn -1.000000 0.000000 0.000000
vn -1.000000 0.000000 0.000000
vn 0.000000 1.000000 -0.000000
vn 0.000000 1.000000 0.000002
vn 0.000000 1.000000 -0.000000
vn 0.000000 1.000000 -0.000000
vn 0.000000 1.000000 0.000002
vn 0.000000 1.000000 -0.000000
vn 0.000000 1.000000 -0.000003
vn 0.000000 1.000000 -0.000003
vn 0.000000 1.000000 0.000000
vn 0.000000 1.000000 0.000000
vn 0.000000 1.000000 0.000000
vn 0.000000 1.000000 0.000000
vn 1.000000 0.000000 0.000000
vn 1.000000 0.000000 0.000000
vn 1.000000 0.000000 0.000000
vn 1.000000 0.000000 0.000000
vn 0.000000 0.000000 1.000000
vn 0.000000 0.000000 1.000000
vn 0.000000 0.000000 1.000000
vn 0.000000 0.000000 1.000000
vn 0.000000 -1.000000 0.000000
vn 0.000000 -1.000000 0.000000
vn 0.000000 -1.000000 0.000000
vn 0.000000 -1.000000 0.000000
vn -1.000000 0.000000 0.000000
vn -1.000000 0.000000 0.000000
vn -1.000000 0.000000 0.000000
vn -1.000000 0.000000 0.000000
vn 0.000000 0.000000 -1.000000
vn 0.000000 0.000000 -1.000000
vn 0.000000 0.000000 -1.000000
vn 0.000000 0.000000 -1.000000
vn 0.000000 0.000000 1.000000
vn 0.000000 0.000000 1.000000
vn 0.000000 0.000000 1.000000
vn 0.000000 0.000000 1.000000
vn 0.000000 1.000000 0.000000
vn 0.000000 1.000000 0.000000
vn 0.000000 1.000000 0.000000
vn 0.000000 1.000000 0.000000
vn 1.000000 0.000000 0.000000
vn 1.000000 0.000000 0.000000
vn 1.000000 0.000000 0.000000
vn 1.000000 0.000000 0.000000
vn 0.000000 1.000000 0.000000
vn 0.000000 1.000000 0.000000
vn 0.000000 1.000000 0.000000
vn 0.000000 1.000000 0.000000
vn 1.000000 0.000000 0.000000
vn 1.000000 0.000000 0.000000
vn 1.000000 0.000000 0.000000
vn 1.000000 0.000000 0.000000
vn 0.000000 -1.000000 0.000000
vn 0.000000 -1.000000 0.000000
vn 0.000000 -1.000000 0.000000
vn 0.000000 -1.000000 0.000000
vn 0.000000 0.000000 -1.000000
vn 0.000000 0.000000 -1.000000
vn 0.000000 0.000000 -1.000000
vn 0.000000 0.000000 -1.000000
vn -1.000000 0.000000 0.000000
vn -1.000000 0.000000 0.000000
vn -1.000000 0.000000 0.000000
vn -1.000000 0.000000 0.000000
vn 0.000000 -1.000000 0.000000
vn 0.000000 -1.000000 0.000000
vn 0.000000 -1.000000 0.000000
vn 0.000000 -1.000000 0.000000
vn 0.000000 0.000000 -1.000000
vn 0.000000 0.000000 -1.000000
vn 0.000000 0.000000 -1.000000
vn 0.000000 0.000000 -1.000000
vn 0.000020 0.000000 1.000000
vn -0.000000 0.000000 1.000000
vn -0.000000 0.000000 1.000000
vn 0.000004 0.000000 1.000000
vn -1.000000 0.000000 0.000000
vn -1.000000 -0.000001 0.000000
vn -1.000000 -0.000002 0.000000
vn -1.000000 -0.000002 0.000000
vn 1.000000 0.000000 0.000000
vn 1.000000 0.000000 0.000000
vn 1.000000 0.000000 0.000000
vn 1.000000 0.000000 0.000000
vn 0.000000 1.000000 0.000000
vn 0.000000 1.000000 0.000000
vn 0.000000 1.000000 0.000000
vn 0.000000 1.000000 0.000000
vn 0.000000 0.000000 1.000000
vn 0.000000 0.000000 1.000000
vn 0.000000 0.000000 1.000000
vn 0.000000 0.000000 1.000000
vn 1.000000 -0.000004 0.000000
vn 1.000000 -0.000013 0.000000
vn 1.000000 -0.000013 0.000000
vn 1.000000 0.000000 0.000000
vn 0.000000 1.000000 0.000000
vn 0.000000 1.000000 0.000000
vn 0.000000 1.000000 0.000000
vn 0.000000 1.000000 0.000000
vn 0.000000 1.000000 0.000000
vn 0.000000 1.000000 0.000000
vn 0.000000 -1.000000 0.000000
vn 0.000000 -1.000000 0.000000
vn 0.000000 -1.000000 0.000000
vn 0.000000 -1.000000 0.000000
vn 0.000000 -1.000000 0.000000
vn 0.000000 -1.000000 0.000000
vn -0.000006 0.000000 1.000000
vn -0.000006 0.000000 1.000000
vn -0.000006 0.000000 1.000000
vn -0.000006 0.000000 1.000000
vn -0.000006 0.000000 1.000000
vn -0.000006 0.000000 1.000000
vn -0.000003 0.000000 1.000000
vn 0.000007 0.000000 -1.000000
vn 0.000008 0.000000 -1.000000
vn 0.000008 0.000000 -1.000000
vn 0.000008 0.000000 -1.000000
vn 0.000008 0.000000 -1.000000
vn 0.000008 0.000000 -1.000000
vn 0.000002 0.000000 -1.000000
vn 0.000000 0.000000 1.000000
vn 0.000000 0.000000 1.000000
vn 0.000000 0.000000 1.000000
vn 0.000000 0.000000 1.000000
vn 0.000000 1.000000 0.000000
vn 0.000000 1.000000 0.000000
vn 0.000000 1.000000 0.000000
vn 0.000000 1.000000 0.000000
vn 1.000000 0.000000 0.000000
vn 1.000000 0.000000 0.000000
vn 1.000000 0.000000 0.000000
vn 1.000000 0.000000 0.000000
vn 1.000000 0.000000 0.000000
vn -1.000000 0.000000 0.000000
vn -1.000000 0.000000 0.000000
vn -1.000000 0.000000 0.000000
vn -1.000000 0.000000 0.000000
vn -1.000000 0.000000 0.000000
vn -0.000000 0.000000 1.000000
vn -0.000000 0.000000 1.000000
vn -0.000000 0.000000 1.000000
vn -0.000000 0.000000 1.000000
vn -1.000000 -0.000003 0.000000
vn -1.000000 -0.000003 0.000000
vn -1.000000 -0.000001 0.000000
vn -1.000000 -0.000002 0.000000
vn -1.000000 -0.000002 0.000000
vn 1.000000 -0.000008 0.000000
vn 1.000000 0.000000 0.000000
vn 1.000000 -0.000013 0.000000
vn 1.000000 -0.000013 0.000000
vn 0.000000 1.000000 0.000000
vn 0.000000 1.000000 0.000000
vn 0.000000 1.000000 0.000000
vn 0.000000 1.000000 0.000000
vn 0.000000 1.000000 0.000000
vn 0.000000 1.000000 0.000000
vn 0.000021 0.000000 1.000000
vn 0.000021 0.000000 1.000000
vn 0.000021 0.000000 1.000000
vn 0.000021 0.000000 1.000000
vn 0.000021 0.000000 1.000000
vn 1.000000 0.000000 0.000000
vn 1.000000 0.000000 0.000000
vn 1.000000 0.000000 0.000000
vn 1.000000 0.000000 0.000000
vn 1.000000 0.000000 0.000000
vn 1.000000 -0.000013 0.000000
vn 1.000000 -0.000013 0.000000
vn -1.000000 0.000000 0.000000
vn 0.000000 -1.000000 0.000000
vn 0.000000 -1.000000 0.000000
vn 0.000000 -1.000000 0.000000
vn 0.000000 -1.000000 0.000000
vn -1.000000 0.000000 0.000000
vn -1.000000 0.000000 0.000000
vn -1.000000 0.000000 0.000000
vn -1.000000 0.000000 0.000000
vn 0.000000 0.000000 -1.000000
vn 0.000000 0.000000 -1.000000
vn 0.000000 0.000000 -1.000000
vn 0.000000 0.000000 -1.000000
vn 0.000000 0.000000 -1.000000
vn 0.000000 0.000000 -1.000000
vn -1.000000 0.000000 0.000000
vn -1.000000 0.000000 0.000000
vn -1.000000 0.000000 0.000000
vn -1.000000 0.000000 0.000000
vn 0.000000 -1.000000 0.000000
vn 0.000000 -1.000000 0.000000
vn 0.000000 -1.000000 0.000000
vn 0.000000 -1.000000 0.000000
vn -0.000000 0.000000 -1.000000
vn 0.000000 0.000000 -1.000000
vn 0.000000 0.000000 -1.000000
vn -0.000000 0.000000 -1.000000
vn 0.000000 -1.000000 0.000000
vn 0.000000 -1.000000 0.000000
vn 0.000000 -1.000000 0.000000
vn 0.000000 -1.000000 0.000000
vn 0.000000 -1.000000 0.000000
vn 0.000000 -1.000000 0.000000
vn -1.000000 0.000000 0.000000
vn -1.000000 0.000000 0.000000
vn -1.000000 0.000000 0.000000
vn -1.000000 0.000000 0.000000
vn -1.000000 0.000000 0.000000
vn -0.000000 0.000000 -1.000000
vn -0.000000 0.000000 -1.000000
vn -0.000000 0.000000 -1.000000
vn -0.000000 0.000000 -1.000000
vn -0.000000 0.000000 -1.000000
vn 0.000000 0.000000 -1.000000
vn 0.000000 0.000000 -1.000000
s off
g polySurface4
usemtl initialShadingGroup
f 1/1/1 2/2/2 3/3/3 4/4/4
f 2/2/5 5/5/6 6/6/7 3/3/8
f 7/7/9 8/8/10 9/9/11 10/10/12
f 8/8/13 11/11/14 12/12/15 9/9/16
s 1
f 3/3/17 6/13/18 13/14/19 14/15/20 11/16/21 8/17/22
f 4/4/23 3/3/17 8/17/22 7/18/24 14/15/20 13/14/19
s off
f 15/19/25 10/20/26 9/21/27 12/22/28
f 14/23/29 7/7/30 10/10/31 15/24/32
f 11/25/33 14/26/34 15/19/35 12/22/36
f 16/27/37 5/28/38 2/29/39 1/30/40
f 16/31/41 1/1/42 4/4/43 13/32/44
f 13/14/45 6/13/46 5/28/47 16/27/48
f 17/33/49 18/34/50 19/35/51 20/36/52
f 20/37/53 21/38/54 22/39/55 17/40/56
f 20/41/57 19/42/58 23/43/59 21/44/60
f 24/45/61 25/46/62 26/47/63 27/48/64
f 28/49/65 29/50/66 30/51/67 31/52/68
f 31/53/69 32/54/70 33/55/71 28/56/72
f 27/57/73 34/58/74 35/59/75 24/60/76
f 22/61/77 36/62/78 18/63/79 17/64/80
f 23/65/81 19/66/82 18/67/83 36/68/84
f 21/44/85 23/69/86 36/70/87 22/71/88
s 2
f 37/72/89 38/73/90 39/74/91 28/56/92
s 3
f 40/75/93 41/76/94 42/77/95 43/78/96
s off
f 32/79/97 44/80/98 45/81/99 33/82/100
f 46/83/101 47/84/102 35/59/103 34/58/104
f 48/85/105 49/86/106 50/87/107 51/88/108
s 4
f 24/89/109 52/90/110 53/91/111 54/92/112
s off
f 55/93/113 56/94/114 57/95/115 40/96/116 43/97/117 58/98/118
f 38/99/119 37/100/120 49/86/121 48/85/122 59/101/123 60/102/124
s 2
f 59/103/125 61/104/126 62/105/127 40/96/128 57/95/129 63/106/130 64/107/131
s 6
f 65/108/132 66/109/133 67/110/134 54/111/135 44/80/136 32/79/137 31/112/138
s off
f 68/113/139 47/84/140 46/83/141 41/76/142
f 41/114/143 51/88/144 50/87/145 68/115/146
s 4
f 54/92/112 67/116/147 66/117/148 65/118/149 69/119/150 25/120/151 24/89/109
s 3
f 48/85/152 51/121/153 41/122/94 40/123/93 62/124/154 61/125/155 59/101/156
s 2
f 29/50/157 28/49/92 39/126/91 38/127/90 60/128/158 70/129/159 64/130/131 71/131/160
s 3
f 41/76/94 46/83/161 34/132/162 27/133/163 72/134/164 58/135/165 43/78/96 42/77/95
s 4
f 68/113/166 73/136/167 74/137/168 75/138/169
s off
f 73/139/170 45/140/171 44/141/172 54/142/173 53/143/174 74/144/175
s 2
f 28/56/92 33/55/176 45/140/177 73/139/178 76/145/179 77/146/180 37/72/89
s 4
f 49/86/181 37/100/182 77/147/183 76/148/184 73/149/167 68/150/166 50/151/185
f 47/84/186 68/113/166 75/138/169 74/137/168 53/152/111 52/153/110 24/154/109 35/155/187
s 2
f 64/107/131 70/156/159 60/157/158 59/103/125
s 3
f 58/158/165 72/159/164 27/160/163 55/161/188
s off
f 78/162/189 30/163/190 29/164/191 71/165/192
f 63/106/193 57/95/194 56/166/195 79/167/196
f 26/47/197 25/46/198 69/168/199 80/169/200
s 6
f 31/112/138 81/170/201 82/171/202 65/108/132
s off
f 83/172/203 78/173/204 71/131/205 64/130/206
f 64/107/207 63/106/208 79/174/209 83/175/210
s 6
f 84/176/211 85/177/212 86/178/213 83/179/214
s off
f 85/180/215 84/181/216 80/182/217 69/119/218 65/118/219 82/183/220
s 3
f 87/184/221 55/161/188 27/160/163 26/185/222 80/182/223 84/181/224 88/186/225
s 6
f 83/179/214 79/167/226 56/166/227 55/187/228 87/188/229 88/189/230 84/176/211
f 30/163/231 78/162/232 83/190/214 86/191/213 85/192/212 82/193/202 81/194/201 31/195/138
