# This file uses centimeters as units for non-parametric coordinates.

mtllib bolardopeq.mtl
g default
v -15.103612 -0.011962 0.378460
v -15.073472 -0.011962 0.437614
v -15.026527 -0.011962 0.484559
v -14.967373 -0.011962 0.514699
v -14.901801 -0.011962 0.525085
v -14.836228 -0.011962 0.514699
v -14.777074 -0.011962 0.484559
v -14.730130 -0.011962 0.437614
v -14.699989 -0.011962 0.378460
v -14.689604 -0.011962 0.312888
v -14.699989 -0.011962 0.247315
v -14.730130 -0.011962 0.188161
v -14.777074 -0.011962 0.141216
v -14.836228 -0.011962 0.111076
v -14.901801 -0.011962 0.100690
v -14.967373 -0.011962 0.111076
v -15.026527 -0.011962 0.141216
v -15.073472 -0.011962 0.188161
v -15.103612 -0.011962 0.247315
v -15.113998 -0.011962 0.312888
v -15.052017 0.079631 0.361696
v -15.029582 0.079631 0.405726
v -14.994639 0.079631 0.440669
v -14.950609 0.079631 0.463104
v -14.901801 0.079631 0.470834
v -14.852993 0.079631 0.463104
v -14.808962 0.079631 0.440669
v -14.774019 0.079631 0.405726
v -14.751585 0.079631 0.361696
v -14.743854 0.079631 0.312888
v -14.751585 0.079631 0.264079
v -14.774019 0.079631 0.220049
v -14.808962 0.079631 0.185106
v -14.852993 0.079631 0.162672
v -14.901801 0.079631 0.154941
v -14.950609 0.079631 0.162672
v -14.994639 0.079631 0.185106
v -15.029582 0.079631 0.220049
v -15.052017 0.079631 0.264079
v -15.059747 0.079631 0.312888
v -15.026320 0.119195 0.353346
v -15.007723 0.119195 0.389845
v -14.901801 0.120958 0.312888
v -14.978758 0.119195 0.418810
v -14.942260 0.119195 0.437407
v -14.901801 0.119195 0.443815
v -14.861342 0.119195 0.437407
v -14.824844 0.119195 0.418810
v -14.795878 0.119195 0.389845
v -14.777281 0.119195 0.353346
v -14.770873 0.119195 0.312888
v -14.777281 0.119195 0.272429
v -14.795878 0.119195 0.235930
v -14.824844 0.119195 0.206965
v -14.861342 0.119195 0.188368
v -14.901801 0.119195 0.181960
v -14.942260 0.119195 0.188368
v -14.978758 0.119195 0.206965
v -15.007723 0.119195 0.235930
v -15.026320 0.119195 0.272429
v -15.032728 0.119195 0.312888
vt 0.050000 0.500000
vt 0.000000 0.750000
vt 0.000000 0.500000
vt 0.100000 0.500000
vt 0.050000 0.750000
vt 0.150000 0.750000
vt 0.100000 0.750000
vt 0.150000 0.500000
vt 0.200000 0.750000
vt 0.250000 0.500000
vt 0.200000 0.500000
vt 0.300000 0.500000
vt 0.250000 0.750000
vt 0.350000 0.500000
vt 0.300000 0.750000
vt 0.400000 0.750000
vt 0.350000 0.750000
vt 0.400000 0.500000
vt 0.450000 0.750000
vt 0.500000 0.500000
vt 0.450000 0.500000
vt 0.550000 0.500000
vt 0.500000 0.750000
vt 0.600000 0.500000
vt 0.550000 0.750000
vt 0.650000 0.750000
vt 0.600000 0.750000
vt 0.650000 0.500000
vt 0.700000 0.750000
vt 0.750000 0.500000
vt 0.700000 0.500000
vt 0.800000 0.500000
vt 0.750000 0.750000
vt 0.850000 0.500000
vt 0.800000 0.750000
vt 0.900000 0.750000
vt 0.850000 0.750000
vt 0.950000 0.500000
vt 0.900000 0.500000
vt 1.000000 0.750000
vt 0.950000 0.750000
vt 0.000000 0.750000
vt 0.050000 0.750000
vt 0.025000 1.000000
vt 0.100000 0.750000
vt 0.075000 1.000000
vt 0.150000 0.750000
vt 0.125000 1.000000
vt 0.200000 0.750000
vt 0.175000 1.000000
vt 0.250000 0.750000
vt 0.225000 1.000000
vt 0.300000 0.750000
vt 0.275000 1.000000
vt 0.350000 0.750000
vt 0.325000 1.000000
vt 0.400000 0.750000
vt 0.375000 1.000000
vt 0.450000 0.750000
vt 0.425000 1.000000
vt 0.500000 0.750000
vt 0.475000 1.000000
vt 0.550000 0.750000
vt 0.525000 1.000000
vt 0.600000 0.750000
vt 0.575000 1.000000
vt 0.650000 0.750000
vt 0.625000 1.000000
vt 0.700000 0.750000
vt 0.675000 1.000000
vt 0.750000 0.750000
vt 0.725000 1.000000
vt 0.800000 0.750000
vt 0.775000 1.000000
vt 0.850000 0.750000
vt 0.825000 1.000000
vt 0.900000 0.750000
vt 0.875000 1.000000
vt 0.950000 0.750000
vt 0.925000 1.000000
vt 1.000000 0.750000
vt 0.975000 1.000000
vt 1.000000 0.500000
vn -0.769075 0.504948 0.391857
vn -0.769075 0.504948 0.391857
vn -0.769075 0.504948 0.391857
vn -0.505709 0.509620 0.696093
vn -0.696093 0.509620 0.505709
vn -0.696093 0.509620 0.505709
vn -0.505709 0.509620 0.696093
vn -0.265932 0.509574 0.818300
vn -0.505709 0.509620 0.696093
vn -0.265932 0.509574 0.818300
vn 0.000000 0.509619 0.860400
vn -0.265932 0.509574 0.818300
vn 0.265932 0.509574 0.818300
vn 0.000000 0.509619 0.860400
vn 0.000000 0.509619 0.860400
vn 0.505709 0.509620 0.696093
vn 0.265932 0.509574 0.818300
vn 0.265932 0.509574 0.818300
vn 0.696093 0.509620 0.505709
vn 0.505709 0.509620 0.696093
vn 0.505709 0.509620 0.696093
vn 0.696093 0.509620 0.505709
vn 0.818300 0.509574 0.265932
vn 0.696093 0.509620 0.505709
vn 0.818300 0.509574 0.265932
vn 0.860400 0.509619 0.000000
vn 0.818300 0.509574 0.265932
vn 0.818300 0.509574 -0.265932
vn 0.860400 0.509619 0.000000
vn 0.860400 0.509619 0.000000
vn 0.696093 0.509620 -0.505709
vn 0.818300 0.509574 -0.265932
vn 0.818300 0.509574 -0.265932
vn 0.505709 0.509620 -0.696093
vn 0.696093 0.509620 -0.505709
vn 0.696093 0.509620 -0.505709
vn 0.505709 0.509620 -0.696093
vn 0.265932 0.509574 -0.818300
vn 0.505709 0.509620 -0.696093
vn 0.265932 0.509574 -0.818300
vn -0.000000 0.509619 -0.860400
vn 0.265932 0.509574 -0.818300
vn -0.265932 0.509574 -0.818300
vn -0.000000 0.509619 -0.860400
vn -0.000000 0.509619 -0.860400
vn -0.505709 0.509620 -0.696093
vn -0.265932 0.509574 -0.818300
vn -0.265932 0.509574 -0.818300
vn -0.696093 0.509620 -0.505709
vn -0.505709 0.509620 -0.696093
vn -0.505709 0.509620 -0.696093
vn -0.696093 0.509620 -0.505709
vn -0.818300 0.509574 -0.265932
vn -0.696093 0.509620 -0.505709
vn -0.860400 0.509619 -0.000000
vn -0.818300 0.509574 -0.265932
vn -0.818300 0.509574 -0.265932
vn -0.860400 0.509619 -0.000000
vn -0.818300 0.509574 0.265932
vn -0.860400 0.509619 -0.000000
vn -0.434528 0.889513 0.141251
vn -0.370426 0.889024 0.269110
vn -0.000000 1.000000 -0.000000
vn -0.370426 0.889024 0.269110
vn -0.268525 0.889501 0.369706
vn -0.000000 1.000000 -0.000000
vn -0.268525 0.889501 0.369706
vn -0.141232 0.889299 0.434973
vn -0.000000 1.000000 -0.000000
vn -0.141232 0.889299 0.434973
vn 0.000000 0.889285 0.457354
vn -0.000000 1.000000 -0.000000
vn 0.000000 0.889285 0.457354
vn 0.141532 0.888976 0.435534
vn -0.000000 1.000000 -0.000000
vn 0.141532 0.888976 0.435534
vn 0.268525 0.889501 0.369706
vn -0.000000 1.000000 -0.000000
vn 0.268525 0.889501 0.369706
vn 0.369993 0.889291 0.268826
vn -0.000000 1.000000 -0.000000
vn 0.369993 0.889291 0.268826
vn 0.434973 0.889299 0.141232
vn -0.000000 1.000000 -0.000000
vn 0.434973 0.889299 0.141232
vn 0.457354 0.889285 0.000000
vn -0.000000 1.000000 -0.000000
vn 0.457354 0.889285 0.000000
vn 0.435534 0.888976 -0.141532
vn -0.000000 1.000000 -0.000000
vn 0.435534 0.888976 -0.141532
vn 0.369993 0.889291 -0.268826
vn -0.000000 1.000000 -0.000000
vn 0.369993 0.889291 -0.268826
vn 0.268826 0.889291 -0.369993
vn -0.000000 1.000000 -0.000000
vn 0.268826 0.889291 -0.369993
vn 0.141232 0.889299 -0.434973
vn -0.000000 1.000000 -0.000000
vn 0.141232 0.889299 -0.434973
vn -0.000000 0.889509 -0.456917
vn -0.000000 1.000000 -0.000000
vn -0.000000 0.889509 -0.456917
vn -0.141232 0.889299 -0.434973
vn -0.000000 1.000000 -0.000000
vn -0.141232 0.889299 -0.434973
vn -0.268826 0.889291 -0.369993
vn -0.000000 1.000000 -0.000000
vn -0.268826 0.889291 -0.369993
vn -0.370426 0.889024 -0.269110
vn -0.000000 1.000000 -0.000000
vn -0.370426 0.889024 -0.269110
vn -0.434528 0.889513 -0.141251
vn -0.000000 1.000000 -0.000000
vn -0.434528 0.889513 -0.141251
vn -0.457924 0.888991 -0.000000
vn -0.000000 1.000000 -0.000000
vn -0.457924 0.888991 -0.000000
vn -0.434528 0.889513 0.141251
vn -0.000000 1.000000 -0.000000
vn 0.000000 -1.000000 0.000000
vn 0.000000 -1.000000 0.000000
vn 0.000000 -1.000000 0.000000
vn -0.668108 0.563906 0.485429
vn -0.434528 0.889513 0.141251
vn -0.785372 0.563972 0.255200
vn -0.668108 0.563906 0.485429
vn -0.268525 0.889501 0.369706
vn -0.370426 0.889024 0.269110
vn -0.255200 0.563972 0.785372
vn -0.268525 0.889501 0.369706
vn -0.485371 0.563992 0.668078
vn 0.000000 0.563950 0.825809
vn -0.141232 0.889299 0.434973
vn -0.255200 0.563972 0.785372
vn 0.255200 0.563972 0.785372
vn 0.000000 0.889285 0.457354
vn 0.000000 0.563950 0.825809
vn 0.255200 0.563972 0.785372
vn 0.268525 0.889501 0.369706
vn 0.141532 0.888976 0.435534
vn 0.668108 0.563906 0.485429
vn 0.268525 0.889501 0.369706
vn 0.485429 0.563906 0.668108
vn 0.785372 0.563972 0.255200
vn 0.369993 0.889291 0.268826
vn 0.668108 0.563906 0.485429
vn 0.825809 0.563950 0.000000
vn 0.434973 0.889299 0.141232
vn 0.785372 0.563972 0.255200
vn 0.785372 0.563972 -0.255200
vn 0.457354 0.889285 0.000000
vn 0.825809 0.563950 0.000000
vn 0.785372 0.563972 -0.255200
vn 0.369993 0.889291 -0.268826
vn 0.435534 0.888976 -0.141532
vn 0.668108 0.563906 -0.485429
vn 0.268826 0.889291 -0.369993
vn 0.369993 0.889291 -0.268826
vn 0.485329 0.563942 -0.668151
vn 0.141232 0.889299 -0.434973
vn 0.268826 0.889291 -0.369993
vn 0.255200 0.563972 -0.785372
vn -0.000000 0.889509 -0.456917
vn 0.141232 0.889299 -0.434973
vn -0.255200 0.563972 -0.785372
vn -0.000000 0.889509 -0.456917
vn -0.000000 0.563950 -0.825809
vn -0.485329 0.563942 -0.668151
vn -0.141232 0.889299 -0.434973
vn -0.255200 0.563972 -0.785372
vn -0.668151 0.563942 -0.485329
vn -0.268826 0.889291 -0.369993
vn -0.485329 0.563942 -0.668151
vn -0.668151 0.563942 -0.485329
vn -0.434528 0.889513 -0.141251
vn -0.370426 0.889024 -0.269110
vn -0.825809 0.563950 -0.000000
vn -0.434528 0.889513 -0.141251
vn -0.785372 0.563972 -0.255200
vn -0.825809 0.563950 -0.000000
vn -0.434528 0.889513 0.141251
vn -0.457924 0.888991 -0.000000
vn -0.696093 0.509620 0.505709
vn -0.696093 0.509620 0.505709
vn -0.818300 0.509574 0.265932
vn -0.505709 0.509620 0.696093
vn -0.505709 0.509620 0.696093
vn -0.696093 0.509620 0.505709
vn -0.505709 0.509620 0.696093
vn -0.265932 0.509574 0.818300
vn -0.265932 0.509574 0.818300
vn -0.265932 0.509574 0.818300
vn 0.000000 0.509619 0.860400
vn 0.000000 0.509619 0.860400
vn 0.265932 0.509574 0.818300
vn 0.265932 0.509574 0.818300
vn 0.000000 0.509619 0.860400
vn 0.505709 0.509620 0.696093
vn 0.505709 0.509620 0.696093
vn 0.265932 0.509574 0.818300
vn 0.696093 0.509620 0.505709
vn 0.696093 0.509620 0.505709
vn 0.505709 0.509620 0.696093
vn 0.696093 0.509620 0.505709
vn 0.818300 0.509574 0.265932
vn 0.818300 0.509574 0.265932
vn 0.818300 0.509574 0.265932
vn 0.860400 0.509619 0.000000
vn 0.860400 0.509619 0.000000
vn 0.818300 0.509574 -0.265932
vn 0.818300 0.509574 -0.265932
vn 0.860400 0.509619 0.000000
vn 0.696093 0.509620 -0.505709
vn 0.696093 0.509620 -0.505709
vn 0.818300 0.509574 -0.265932
vn 0.505709 0.509620 -0.696093
vn 0.505709 0.509620 -0.696093
vn 0.696093 0.509620 -0.505709
vn 0.505709 0.509620 -0.696093
vn 0.265932 0.509574 -0.818300
vn 0.265932 0.509574 -0.818300
vn 0.265932 0.509574 -0.818300
vn -0.000000 0.509619 -0.860400
vn -0.000000 0.509619 -0.860400
vn -0.265932 0.509574 -0.818300
vn -0.265932 0.509574 -0.818300
vn -0.000000 0.509619 -0.860400
vn -0.505709 0.509620 -0.696093
vn -0.505709 0.509620 -0.696093
vn -0.265932 0.509574 -0.818300
vn -0.696093 0.509620 -0.505709
vn -0.696093 0.509620 -0.505709
vn -0.505709 0.509620 -0.696093
vn -0.696093 0.509620 -0.505709
vn -0.818300 0.509574 -0.265932
vn -0.818300 0.509574 -0.265932
vn -0.860400 0.509619 -0.000000
vn -0.860400 0.509619 -0.000000
vn -0.818300 0.509574 -0.265932
vn -0.860400 0.509619 -0.000000
vn -0.818300 0.509574 0.265932
vn -0.818300 0.509574 0.265932
vn 0.000000 -1.000000 0.000000
vn 0.000000 -1.000000 0.000000
vn 0.000000 -1.000000 0.000000
vn 0.000000 -1.000000 0.000000
vn 0.000000 -1.000000 0.000000
vn 0.000000 -1.000000 0.000000
vn 0.000000 -1.000000 0.000000
vn 0.000000 -1.000000 0.000000
vn 0.000000 -1.000000 0.000000
vn 0.000000 -1.000000 0.000000
vn 0.000000 -1.000000 0.000000
vn 0.000000 -1.000000 0.000000
vn 0.000000 -1.000000 0.000000
vn 0.000000 -1.000000 0.000000
vn 0.000000 -1.000000 0.000000
vn 0.000000 -1.000000 0.000000
vn 0.000000 -1.000000 0.000000
vn 0.000000 -1.000000 0.000000
vn 0.000000 -1.000000 0.000000
vn 0.000000 -1.000000 0.000000
vn 0.000000 -1.000000 0.000000
vn 0.000000 -1.000000 0.000000
vn 0.000000 -1.000000 0.000000
vn 0.000000 -1.000000 0.000000
vn 0.000000 -1.000000 0.000000
vn 0.000000 -1.000000 0.000000
vn 0.000000 -1.000000 0.000000
vn 0.000000 -1.000000 0.000000
vn 0.000000 -1.000000 0.000000
vn 0.000000 -1.000000 0.000000
vn 0.000000 -1.000000 0.000000
vn 0.000000 -1.000000 0.000000
vn 0.000000 -1.000000 0.000000
vn 0.000000 -1.000000 0.000000
vn 0.000000 -1.000000 0.000000
vn 0.000000 -1.000000 0.000000
vn 0.000000 -1.000000 0.000000
vn 0.000000 -1.000000 0.000000
vn 0.000000 -1.000000 0.000000
vn 0.000000 -1.000000 0.000000
vn 0.000000 -1.000000 0.000000
vn 0.000000 -1.000000 0.000000
vn 0.000000 -1.000000 0.000000
vn 0.000000 -1.000000 0.000000
vn 0.000000 -1.000000 0.000000
vn 0.000000 -1.000000 0.000000
vn 0.000000 -1.000000 0.000000
vn 0.000000 -1.000000 0.000000
vn 0.000000 -1.000000 0.000000
vn 0.000000 -1.000000 0.000000
vn 0.000000 -1.000000 0.000000
vn -0.668108 0.563906 0.485429
vn -0.370426 0.889024 0.269110
vn -0.434528 0.889513 0.141251
vn -0.668108 0.563906 0.485429
vn -0.485371 0.563992 0.668078
vn -0.268525 0.889501 0.369706
vn -0.255200 0.563972 0.785372
vn -0.141232 0.889299 0.434973
vn -0.268525 0.889501 0.369706
vn 0.000000 0.563950 0.825809
vn 0.000000 0.889285 0.457354
vn -0.141232 0.889299 0.434973
vn 0.255200 0.563972 0.785372
vn 0.141532 0.888976 0.435534
vn 0.000000 0.889285 0.457354
vn 0.255200 0.563972 0.785372
vn 0.485429 0.563906 0.668108
vn 0.268525 0.889501 0.369706
vn 0.668108 0.563906 0.485429
vn 0.369993 0.889291 0.268826
vn 0.268525 0.889501 0.369706
vn 0.785372 0.563972 0.255200
vn 0.434973 0.889299 0.141232
vn 0.369993 0.889291 0.268826
vn 0.825809 0.563950 0.000000
vn 0.457354 0.889285 0.000000
vn 0.434973 0.889299 0.141232
vn 0.785372 0.563972 -0.255200
vn 0.435534 0.888976 -0.141532
vn 0.457354 0.889285 0.000000
vn 0.785372 0.563972 -0.255200
vn 0.668108 0.563906 -0.485429
vn 0.369993 0.889291 -0.268826
vn 0.668108 0.563906 -0.485429
vn 0.485329 0.563942 -0.668151
vn 0.268826 0.889291 -0.369993
vn 0.485329 0.563942 -0.668151
vn 0.255200 0.563972 -0.785372
vn 0.141232 0.889299 -0.434973
vn 0.255200 0.563972 -0.785372
vn -0.000000 0.563950 -0.825809
vn -0.000000 0.889509 -0.456917
vn -0.255200 0.563972 -0.785372
vn -0.141232 0.889299 -0.434973
vn -0.000000 0.889509 -0.456917
vn -0.485329 0.563942 -0.668151
vn -0.268826 0.889291 -0.369993
vn -0.141232 0.889299 -0.434973
vn -0.668151 0.563942 -0.485329
vn -0.370426 0.889024 -0.269110
vn -0.268826 0.889291 -0.369993
vn -0.668151 0.563942 -0.485329
vn -0.785372 0.563972 -0.255200
vn -0.434528 0.889513 -0.141251
vn -0.825809 0.563950 -0.000000
vn -0.457924 0.888991 -0.000000
vn -0.434528 0.889513 -0.141251
vn -0.825809 0.563950 -0.000000
vn -0.785372 0.563972 0.255200
vn -0.434528 0.889513 0.141251
s off
g Maqueta:bolardopeq_aiStandardSurface1SG7
usemtl Maqueta:lambert23SG
f 2/1/1 21/2/2 1/3/3
f 3/4/4 22/5/5 2/1/6
f 3/4/7 24/6/8 23/7/9
f 4/8/10 25/9/11 24/6/12
f 6/10/13 25/9/14 5/11/15
f 7/12/16 26/13/17 6/10/18
f 8/14/19 27/15/20 7/12/21
f 8/14/22 29/16/23 28/17/24
f 9/18/25 30/19/26 29/16/27
f 11/20/28 30/19/29 10/21/30
f 12/22/31 31/23/32 11/20/33
f 13/24/34 32/25/35 12/22/36
f 13/24/37 34/26/38 33/27/39
f 14/28/40 35/29/41 34/26/42
f 16/30/43 35/29/44 15/31/45
f 17/32/46 36/33/47 16/30/48
f 18/34/49 37/35/50 17/32/51
f 18/34/52 39/36/53 38/37/54
f 20/38/55 39/36/56 19/39/57
f 20/38/58 21/40/59 40/41/60
f 41/42/61 42/43/62 43/44/63
f 42/43/64 44/45/65 43/46/66
f 44/45/67 45/47/68 43/48/69
f 45/47/70 46/49/71 43/50/72
f 46/49/73 47/51/74 43/52/75
f 47/51/76 48/53/77 43/54/78
f 48/53/79 49/55/80 43/56/81
f 49/55/82 50/57/83 43/58/84
f 50/57/85 51/59/86 43/60/87
f 51/59/88 52/61/89 43/62/90
f 52/61/91 53/63/92 43/64/93
f 53/63/94 54/65/95 43/66/96
f 54/65/97 55/67/98 43/68/99
f 55/67/100 56/69/101 43/70/102
f 56/69/103 57/71/104 43/72/105
f 57/71/106 58/73/107 43/74/108
f 58/73/109 59/75/110 43/76/111
f 59/75/112 60/77/113 43/78/114
f 60/77/115 61/79/116 43/80/117
f 61/79/118 41/81/119 43/82/120
f 15/31/121 7/12/122 3/4/123
f 22/5/124 41/42/125 21/2/126
f 22/5/127 44/45/128 42/43/129
f 24/6/130 44/45/131 23/7/132
f 25/9/133 45/47/134 24/6/135
f 26/13/136 46/49/137 25/9/138
f 26/13/139 48/53/140 47/51/141
f 28/17/142 48/53/143 27/15/144
f 29/16/145 49/55/146 28/17/147
f 30/19/148 50/57/149 29/16/150
f 31/23/151 51/59/152 30/19/153
f 31/23/154 53/63/155 52/61/156
f 32/25/157 54/65/158 53/63/159
f 33/27/160 55/67/161 54/65/162
f 34/26/163 56/69/164 55/67/165
f 36/33/166 56/69/167 35/29/168
f 37/35/169 57/71/170 36/33/171
f 38/37/172 58/73/173 37/35/174
f 38/37/175 60/77/176 59/75/177
f 40/41/178 60/77/179 39/36/180
f 40/41/181 41/81/182 61/79/183
f 2/1/184 22/5/185 21/2/186
f 3/4/187 23/7/188 22/5/189
f 3/4/190 4/8/191 24/6/192
f 4/8/193 5/11/194 25/9/195
f 6/10/196 26/13/197 25/9/198
f 7/12/199 27/15/200 26/13/201
f 8/14/202 28/17/203 27/15/204
f 8/14/205 9/18/206 29/16/207
f 9/18/208 10/21/209 30/19/210
f 11/20/211 31/23/212 30/19/213
f 12/22/214 32/25/215 31/23/216
f 13/24/217 33/27/218 32/25/219
f 13/24/220 14/28/221 34/26/222
f 14/28/223 15/31/224 35/29/225
f 16/30/226 36/33/227 35/29/228
f 17/32/229 37/35/230 36/33/231
f 18/34/232 38/37/233 37/35/234
f 18/34/235 19/39/236 39/36/237
f 20/38/238 40/41/239 39/36/240
f 20/38/241 1/83/242 21/40/243
f 3/4/244 2/1/245 1/83/246
f 1/83/247 20/38/248 19/39/249
f 19/39/250 18/34/251 17/32/252
f 17/32/253 16/30/254 15/31/255
f 15/31/256 14/28/257 13/24/258
f 13/24/259 12/22/260 11/20/261
f 11/20/262 10/21/263 9/18/264
f 9/18/265 8/14/266 7/12/267
f 7/12/268 6/10/269 5/11/270
f 5/11/271 4/8/272 3/4/273
f 3/4/274 1/83/275 19/39/276
f 19/39/277 17/32/278 15/31/279
f 15/31/280 13/24/281 11/20/282
f 11/20/283 9/18/284 7/12/285
f 7/12/286 5/11/287 3/4/288
f 3/4/289 19/39/290 15/31/291
f 15/31/292 11/20/293 7/12/294
f 22/5/295 42/43/296 41/42/297
f 22/5/298 23/7/299 44/45/300
f 24/6/301 45/47/302 44/45/303
f 25/9/304 46/49/305 45/47/306
f 26/13/307 47/51/308 46/49/309
f 26/13/310 27/15/311 48/53/312
f 28/17/313 49/55/314 48/53/315
f 29/16/316 50/57/317 49/55/318
f 30/19/319 51/59/320 50/57/321
f 31/23/322 52/61/323 51/59/324
f 31/23/325 32/25/326 53/63/327
f 32/25/328 33/27/329 54/65/330
f 33/27/331 34/26/332 55/67/333
f 34/26/334 35/29/335 56/69/336
f 36/33/337 57/71/338 56/69/339
f 37/35/340 58/73/341 57/71/342
f 38/37/343 59/75/344 58/73/345
f 38/37/346 39/36/347 60/77/348
f 40/41/349 61/79/350 60/77/351
f 40/41/352 21/40/353 41/81/354
