# This file uses centimeters as units for non-parametric coordinates.

mtllib Edificio6.mtl
g default
v 0.198348 6.779913 -9.278737
v 3.068182 6.779913 -9.278737
v 3.068182 6.779913 -12.154274
v 3.066936 6.805761 -9.279987
v 0.199595 6.805761 -9.279987
v 3.066936 6.805761 -12.153025
v 0.199595 6.805761 -12.153025
v 0.198348 6.779913 -12.154274
v 2.916967 0.332709 -12.016745
v 2.916967 6.460326 -12.016745
v 0.341439 6.460326 -12.016745
v 0.341439 0.332709 -12.016745
v 0.341439 0.332709 -9.420630
v 2.916967 0.332709 -9.420630
v 0.341439 6.460326 -9.420630
v 3.057858 6.782431 -12.135978
v 3.057858 6.782431 -12.159287
v 0.207028 6.782431 -12.159287
v 0.207028 6.782431 -12.135978
v 3.057858 0.003664 -9.285149
v 3.057858 -0.005896 -9.285149
v 3.057858 -0.005896 -12.135978
v 3.057858 0.003664 -12.135978
v 3.059508 0.003664 -12.135978
v 3.059508 0.003664 -9.285149
v 0.207028 6.798932 -12.135978
v 3.057858 6.798932 -12.135978
v 2.916967 6.460326 -9.420630
v 3.057858 0.010322 -9.285149
v 2.916967 0.010322 -9.285149
v 2.916967 0.003664 -9.285149
v 0.207028 6.775776 -9.285149
v 0.207028 6.782431 -9.285149
v 0.207028 6.782431 -9.420630
v 0.207028 6.775776 -9.420630
v 3.059508 6.775776 -12.135978
v 3.059508 6.775776 -9.285149
v 0.207028 6.798932 -9.285149
v 3.057858 6.798932 -9.285149
v 0.207028 0.010322 -9.278088
v 3.057858 0.010322 -9.278088
v 3.057858 6.782431 -9.278088
v 0.207028 6.782431 -9.278088
v 3.057858 6.782431 -12.016745
v 3.057858 6.775776 -12.016745
v 3.057858 6.775776 -12.135978
v 0.207028 6.775776 -12.135978
v 0.198897 6.775776 -12.135978
v 0.198897 6.775776 -9.285149
v 0.207028 6.775776 -12.016745
v 0.207028 0.010322 -9.285149
v 0.341439 0.010322 -9.285149
v 0.207028 0.332709 -9.285149
v 0.207028 6.460326 -9.285149
v 0.198897 0.003664 -9.285149
v 0.207028 0.003664 -9.285149
v 3.057858 0.010322 -12.135978
v 3.057858 0.332709 -12.135978
v 3.057858 6.460326 -12.135978
v 3.057858 6.782431 -9.285149
v 3.057858 0.010322 -12.159287
v 0.341439 0.003664 -9.285149
v 0.207028 -0.005896 -9.285149
v 0.207028 6.782431 -12.016745
v 3.057858 6.775776 -9.285149
v 3.057858 6.775776 -9.420630
v 3.057858 6.782431 -9.420630
v 3.057858 6.460326 -9.285149
v 3.057858 0.332709 -9.285149
v 0.207028 -0.005896 -12.135978
v 0.198897 0.003664 -12.135978
v 0.207028 0.010322 -12.159287
v 2.916967 0.003664 -12.135978
v 2.916967 0.010322 -12.135978
v 0.207028 0.003664 -12.135978
v 0.207028 0.010322 -12.135978
v 0.341439 0.010322 -12.135978
v 0.341439 0.003664 -12.135978
v 0.207028 6.460326 -12.135978
v 0.207028 0.332709 -12.135978
vt 0.500000 0.875000
vt 0.500000 0.875000
vt 0.500000 0.875000
vt 0.500000 0.875000
vt 0.375000 0.750000
vt 0.625000 0.750000
vt 0.625000 1.000000
vt 0.375000 1.000000
vt 0.612645 0.261901
vt 0.612645 0.488109
vt 0.386787 0.488109
vt 0.386787 0.261901
vt 0.386787 0.489544
vt 0.386787 0.261881
vt 0.612645 0.261881
vt 0.612645 0.489544
vt 0.387147 0.760456
vt 0.613355 0.760456
vt 0.613355 0.988119
vt 0.386967 0.988109
vt 0.625000 0.709121
vt 0.625000 0.750000
vt 0.375000 0.750000
vt 0.375000 0.709121
vt 0.625000 0.007059
vt 0.625000 0.000000
vt 0.875000 0.000000
vt 0.875000 0.007059
vt 0.125000 0.002896
vt 0.125000 0.000000
vt 0.375000 0.000000
vt 0.375000 0.002896
vt 0.375000 0.512182
vt 0.375000 0.500000
vt 0.625000 0.500000
vt 0.625000 0.512182
vt 0.387147 0.261881
vt 0.613355 0.261881
vt 0.613355 0.489544
vt 0.387147 0.489544
vt 0.386787 0.988119
vt 0.386787 0.760456
vt 0.612645 0.760456
vt 0.612645 0.988119
vt 0.386787 0.761891
vt 0.612645 0.761891
vt 0.612645 0.988099
vt 0.375246 0.002896
vt 0.375246 0.250000
vt 0.375000 0.250000
vt 0.375000 0.232902
vt 0.375000 0.237818
vt 0.363119 0.237818
vt 0.363119 0.232902
vt 0.375000 0.750000
vt 0.625000 0.750000
vt 0.664781 -0.054931
vt 0.664781 0.995194
vt 0.375000 0.250000
vt 0.625000 0.250000
vt 0.375000 0.250000
vt 0.625000 0.250000
vt 0.625000 0.500000
vt 0.375000 0.500000
vt 0.875000 0.040879
vt 0.875000 0.250000
vt 0.874754 0.250000
vt 0.874754 0.040879
vt 0.875000 0.235737
vt 0.875000 0.250000
vt 0.625000 0.250000
vt 0.625000 0.235737
vt 0.636881 0.235737
vt 0.864544 0.235737
vt 0.612645 0.237621
vt 0.625000 0.237621
vt 0.375000 0.237621
vt 0.386787 0.237621
vt 0.375246 0.235737
vt 0.387147 0.235737
vt 0.613355 0.235737
vt 0.375000 0.250000
vt 0.375000 0.235737
vt 0.375246 0.747104
vt 0.387147 0.747104
vt 0.613355 0.747104
vt 0.625000 0.747104
vt 0.375000 0.747104
vt 0.625000 0.237818
vt 0.375000 0.512379
vt 0.625000 0.512379
vt 0.863109 0.040879
vt 0.636901 0.040879
vt 0.625000 0.040879
vt 0.625000 0.000000
vt 0.875000 0.000000
vt 0.125000 0.250000
vt 0.125000 0.237621
vt 0.125246 0.237621
vt 0.136891 0.237621
vt 0.363099 0.237621
vt 0.612645 0.007059
vt 0.612645 0.011975
vt 0.386787 0.011975
vt 0.386787 0.007059
vt 0.375000 0.007059
vt 0.375000 0.000000
vt 0.125000 0.250000
vt 0.125000 0.237818
vt 0.135456 0.237818
vt 0.135456 0.232902
vt 0.625000 0.232902
vt 0.636881 0.232902
vt 0.636881 0.237818
vt 0.625000 0.002896
vt 0.625000 0.000000
vt 0.875000 0.000000
vt 0.875000 0.002896
vt 0.864544 0.002896
vt 0.636881 0.002896
vt 0.613355 0.002896
vt 0.387147 0.002896
vt 0.636901 0.237621
vt 0.863109 0.237621
vt 0.874754 0.237621
vt 0.875000 0.237621
vt 0.875000 0.250000
vt 0.864544 0.232902
vt 0.864544 0.237818
vt 0.875000 0.237818
vt 0.875000 0.250000
vt 0.375000 0.000000
vt 0.375246 0.000000
vt 0.125246 0.250000
vt 0.125000 0.250000
vt 0.125000 0.040879
vt 0.125246 0.040879
vt 0.500000 0.875000
vt 0.500000 0.875000
vt 0.500000 0.875000
vt 0.500000 0.875000
vt 0.625000 0.500000
vt 0.375000 0.500000
vt 0.332985 0.989216
vt 0.816355 0.989216
vt 0.375000 0.500000
vt 0.375246 0.500000
vt 0.125000 0.007059
vt 0.125000 0.000000
vt 0.125000 0.250000
vt 0.125000 0.235737
vt 0.375246 0.514263
vt 0.375246 0.750000
vt 0.375000 0.750000
vt 0.375000 0.514263
vt 0.386787 0.040879
vt 0.375000 0.040879
vt 0.375000 0.000000
vt 0.612645 0.040879
vt 0.136891 0.040879
vt 0.125000 0.000000
vt 0.363099 0.040879
vt 0.625000 0.514263
vt 0.613355 0.514263
vt 0.387147 0.514263
vt 0.375000 0.742941
vt 0.386787 0.742941
vt 0.386787 0.738025
vt 0.612645 0.738025
vt 0.612645 0.742941
vt 0.625000 0.742941
vt 0.816355 -0.048952
vt 0.332985 -0.048952
vt 0.186085 -0.044906
vt 0.634706 -0.044906
vt 0.634706 0.985169
vt 0.186085 0.985169
vt 0.190994 0.217864
vt 0.190994 1.230159
vt 0.659665 1.230159
vt 0.659665 0.217864
vt 0.156009 0.995194
vt 0.156009 -0.054931
vn 0.000000 1.000000 0.000000
vn 0.000000 1.000000 0.000000
vn 0.000000 1.000000 0.000000
vn 0.000000 1.000000 0.000000
vn 0.000000 -1.000000 0.000000
vn 0.000000 -1.000000 0.000000
vn 0.000000 -1.000000 0.000000
vn 0.000000 -1.000000 0.000000
vn 0.000000 0.000000 1.000000
vn 0.000000 0.000000 1.000000
vn 0.000000 0.000000 1.000000
vn 0.000000 0.000000 1.000000
vn 0.000000 1.000000 0.000000
vn 0.000000 1.000000 0.000000
vn 0.000000 1.000000 0.000000
vn 0.000000 1.000000 0.000000
vn 1.000000 0.000000 0.000000
vn 1.000000 0.000000 0.000000
vn 1.000000 0.000000 0.000000
vn 1.000000 0.000000 0.000000
vn 0.000000 1.000000 0.000000
vn 0.000000 1.000000 0.000000
vn 0.000000 1.000000 0.000000
vn 0.000000 1.000000 0.000000
vn 1.000000 0.000000 0.000000
vn 1.000000 0.000000 0.000000
vn 1.000000 0.000000 0.000000
vn 1.000000 0.000000 0.000000
vn 0.000000 -1.000000 0.000000
vn 0.000000 -1.000000 0.000000
vn 0.000000 -1.000000 0.000000
vn 0.000000 -1.000000 0.000000
vn 0.000000 0.000000 -1.000000
vn 0.000000 0.000000 -1.000000
vn 0.000000 0.000000 -1.000000
vn 0.000000 0.000000 -1.000000
vn -1.000000 0.000000 0.000000
vn -1.000000 0.000000 0.000000
vn -1.000000 0.000000 0.000000
vn -1.000000 0.000000 0.000000
vn 0.000000 -1.000000 0.000000
vn 0.000000 -1.000000 0.000000
vn 0.000000 -1.000000 0.000000
vn 0.000000 -1.000000 0.000000
vn 0.000000 0.000000 -1.000000
vn 0.000000 0.000000 -1.000000
vn 0.000000 0.000000 -1.000000
vn 0.000000 0.000000 -1.000000
vn 0.000020 0.000000 1.000000
vn 0.000000 0.000000 1.000000
vn 0.000000 0.000000 1.000000
vn 0.000004 0.000000 1.000000
vn -1.000000 0.000000 0.000000
vn -1.000000 -0.000001 0.000000
vn -1.000000 -0.000002 0.000000
vn -1.000000 -0.000002 0.000000
vn 1.000000 0.000000 0.000000
vn 1.000000 0.000000 0.000000
vn 1.000000 0.000000 0.000000
vn 1.000000 0.000000 0.000000
vn 0.000000 1.000000 0.000000
vn 0.000000 1.000000 0.000000
vn 0.000000 1.000000 0.000000
vn 0.000000 1.000000 0.000000
vn 0.000000 0.000000 1.000000
vn 0.000000 0.000000 1.000000
vn 0.000000 0.000000 1.000000
vn 0.000000 0.000000 1.000000
vn 1.000000 -0.000004 0.000000
vn 1.000000 -0.000013 0.000000
vn 1.000000 -0.000013 0.000000
vn 1.000000 0.000000 0.000000
vn 0.000000 1.000000 0.000000
vn 0.000000 1.000000 0.000000
vn 0.000000 1.000000 0.000000
vn 0.000000 1.000000 0.000000
vn 0.000000 1.000000 0.000000
vn 0.000000 1.000000 0.000000
vn 0.000000 -1.000000 0.000000
vn 0.000000 -1.000000 0.000000
vn 0.000000 -1.000000 0.000000
vn 0.000000 -1.000000 0.000000
vn 0.000000 -1.000000 0.000000
vn 0.000000 -1.000000 0.000000
vn -0.000006 0.000000 1.000000
vn -0.000006 0.000000 1.000000
vn -0.000006 0.000000 1.000000
vn -0.000006 0.000000 1.000000
vn -0.000006 0.000000 1.000000
vn -0.000006 0.000000 1.000000
vn -0.000003 0.000000 1.000000
vn 0.000007 0.000000 -1.000000
vn 0.000008 0.000000 -1.000000
vn 0.000008 0.000000 -1.000000
vn 0.000008 0.000000 -1.000000
vn 0.000008 0.000000 -1.000000
vn 0.000008 0.000000 -1.000000
vn 0.000002 0.000000 -1.000000
vn 0.000000 0.000000 1.000000
vn 0.000000 0.000000 1.000000
vn 0.000000 0.000000 1.000000
vn 0.000000 0.000000 1.000000
vn 0.000000 1.000000 0.000000
vn 0.000000 1.000000 0.000000
vn 0.000000 1.000000 0.000000
vn 0.000000 1.000000 0.000000
vn 1.000000 0.000000 0.000000
vn 1.000000 0.000000 0.000000
vn 1.000000 0.000000 0.000000
vn 1.000000 0.000000 0.000000
vn 1.000000 0.000000 0.000000
vn 1.000000 0.000000 0.000000
vn 1.000000 -0.000004 0.000000
vn -1.000000 0.000000 0.000000
vn -1.000000 0.000000 0.000000
vn -1.000000 -0.000001 0.000000
vn -1.000000 0.000000 0.000000
vn -1.000000 0.000000 0.000000
vn -1.000000 0.000000 0.000000
vn -1.000000 0.000000 0.000000
vn 0.000000 0.000000 1.000000
vn 0.000004 0.000000 1.000000
vn 0.000000 0.000000 1.000000
vn 0.000000 0.000000 1.000000
vn 0.000000 0.000000 1.000000
vn 0.000000 0.000000 1.000000
vn -0.000003 0.000000 1.000000
vn 0.000000 0.000000 1.000000
vn -1.000000 -0.000001 0.000000
vn -1.000000 -0.000003 0.000000
vn -1.000000 -0.000003 0.000000
vn -1.000000 -0.000001 0.000000
vn -1.000000 -0.000002 0.000000
vn -1.000000 -0.000002 0.000000
vn -1.000000 -0.000002 0.000000
vn -1.000000 -0.000002 0.000000
vn 1.000000 -0.000008 0.000000
vn 1.000000 0.000000 0.000000
vn 1.000000 -0.000013 0.000000
vn 1.000000 -0.000013 0.000000
vn 0.000000 1.000000 0.000000
vn 0.000000 1.000000 0.000000
vn 0.000000 1.000000 0.000000
vn 0.000000 1.000000 0.000000
vn 0.000000 1.000000 0.000000
vn 0.000000 1.000000 0.000000
vn 0.000004 0.000000 1.000000
vn 0.000021 0.000000 1.000000
vn 0.000021 0.000000 1.000000
vn 0.000021 0.000000 1.000000
vn 0.000021 0.000000 1.000000
vn 0.000021 0.000000 1.000000
vn 0.000020 0.000000 1.000000
vn 1.000000 0.000000 0.000000
vn 1.000000 0.000000 0.000000
vn 1.000000 0.000000 0.000000
vn 1.000000 0.000000 0.000000
vn 1.000000 0.000000 0.000000
vn 1.000000 -0.000008 0.000000
vn 1.000000 0.000000 0.000000
vn 1.000000 -0.000013 0.000000
vn 1.000000 -0.000008 0.000000
vn 1.000000 -0.000013 0.000000
vn 1.000000 -0.000013 0.000000
vn 1.000000 -0.000013 0.000000
vn 1.000000 -0.000013 0.000000
vn 1.000000 -0.000004 0.000000
vn 1.000000 -0.000013 0.000000
vn -0.000003 0.000000 1.000000
vn 0.000000 0.000000 1.000000
vn 0.000000 0.000000 1.000000
vn -0.000006 0.000000 1.000000
vn -1.000000 -0.000002 0.000000
vn -1.000000 -0.000002 0.000000
vn -1.000000 -0.000001 0.000000
vn -1.000000 0.000000 0.000000
vn 0.000000 -1.000000 0.000000
vn 0.000000 -1.000000 0.000000
vn 0.000000 -1.000000 0.000000
vn 0.000000 -1.000000 0.000000
vn -1.000000 0.000000 0.000000
vn -1.000000 0.000000 0.000000
vn -1.000000 0.000000 0.000000
vn -1.000000 0.000000 0.000000
vn 0.000000 0.000000 -1.000000
vn 0.000000 0.000000 -1.000000
vn 0.000000 0.000000 -1.000000
vn 0.000000 0.000000 -1.000000
vn 0.000002 0.000000 -1.000000
vn 0.000000 0.000000 -1.000000
vn 0.000000 0.000000 -1.000000
vn 0.000007 0.000000 -1.000000
vn -1.000000 0.000000 0.000000
vn -1.000000 0.000000 0.000000
vn -1.000000 0.000000 0.000000
vn -1.000000 0.000000 0.000000
vn 0.000000 -1.000000 0.000000
vn 0.000000 -1.000000 0.000000
vn 0.000000 -1.000000 0.000000
vn 0.000000 -1.000000 0.000000
vn 0.000000 0.000000 -1.000000
vn 0.000000 0.000000 -1.000000
vn 0.000000 0.000000 -1.000000
vn 0.000000 0.000000 -1.000000
vn 0.000000 -1.000000 0.000000
vn 0.000000 -1.000000 0.000000
vn 0.000000 -1.000000 0.000000
vn 0.000000 -1.000000 0.000000
vn 0.000000 -1.000000 0.000000
vn 0.000000 -1.000000 0.000000
vn -1.000000 0.000000 0.000000
vn -1.000000 0.000000 0.000000
vn -1.000000 -0.000001 0.000000
vn -1.000000 0.000000 0.000000
vn -1.000000 0.000000 0.000000
vn -1.000000 0.000000 0.000000
vn -1.000000 0.000000 0.000000
vn 0.000000 0.000000 -1.000000
vn 0.000000 0.000000 -1.000000
vn 0.000000 0.000000 -1.000000
vn 0.000000 0.000000 -1.000000
vn 0.000000 0.000000 -1.000000
vn 0.000000 0.000000 -1.000000
vn 0.000000 0.000000 -1.000000
vn 0.000000 0.000000 -1.000000
vn 0.000000 0.000000 -1.000000
vn 0.000000 0.000000 -1.000000
vn 0.000000 0.000000 -1.000000
vn 0.000000 0.000000 -1.000000
vn 0.000000 0.000000 -1.000000
vn 0.000000 0.000000 -1.000000
vn 0.000002 0.000000 -1.000000
s off
g Edificio_SinDiseno3:polySurface4
usemtl Edificio_SinDiseno2:lambert1SG
f 7/1/1 5/2/2 4/3/3 6/4/4
f 8/5/5 3/6/6 2/7/7 1/8/8
f 9/9/9 10/10/10 11/11/11 12/12/12
f 12/13/13 13/14/14 14/15/15 9/16/16
f 12/17/17 11/18/18 15/19/19 13/20/20
f 16/21/21 17/22/22 18/23/23 19/24/24
f 20/25/25 21/26/26 22/27/27 23/28/28
f 23/29/29 24/30/30 25/31/31 20/32/32
f 19/33/33 26/34/34 27/35/35 16/36/36
f 14/37/37 28/38/38 10/39/39 9/40/40
f 15/41/41 11/42/42 10/43/43 28/44/44
f 13/20/45 15/45/46 28/46/47 14/47/48
f 29/48/49 30/49/50 31/50/51 20/32/52
f 32/51/53 33/52/54 34/53/55 35/54/56
f 24/57/57 36/58/58 37/182/59 25/183/60
f 38/59/61 39/60/62 27/35/63 26/34/64
f 40/174/65 41/175/66 42/176/67 43/177/68
f 16/65/69 44/66/70 45/67/71 46/68/72
f 47/69/73 48/70/74 49/71/75 32/72/76 35/73/77 50/74/78
f 30/75/79 29/76/80 41/62/81 40/61/82 51/77/83 52/78/84
f 51/79/85 53/80/86 54/81/87 32/72/88 49/71/89 55/82/90 56/83/91
f 57/84/92 58/85/93 59/86/94 46/87/95 36/56/96 24/55/97 23/88/98
f 60/89/99 39/60/100 38/59/101 33/52/102
f 33/90/103 43/64/104 42/63/105 60/91/106
f 46/68/107 59/92/108 58/93/109 57/94/110 61/95/111 17/96/112 16/65/113
f 40/61/114 43/97/115 33/98/116 32/99/117 54/100/118 53/101/119 51/77/120
f 21/26/121 20/25/122 31/102/123 30/103/124 52/104/125 62/105/126 56/106/127 63/107/128
f 33/52/129 38/59/130 26/108/131 19/109/132 64/110/133 50/111/134 35/54/135 34/53/136
f 60/89/137 65/112/138 66/113/139 67/114/140
f 65/115/141 37/116/142 36/117/143 46/118/144 45/119/145 66/120/146
f 20/32/147 25/31/148 37/116/149 65/115/150 68/121/151 69/122/152 29/48/153
f 41/62/154 29/76/155 69/123/156 68/124/157 65/125/158 60/126/159 42/127/160
f 39/60/161 60/89/162 67/114/163 66/113/164 45/128/165 44/129/166 16/130/167 27/131/168
f 56/83/169 62/132/170 52/133/171 51/79/172
f 50/134/173 64/135/174 19/136/175 47/137/176
f 70/138/177 22/139/178 21/140/179 63/141/180
f 55/178/181 49/179/182 48/180/183 71/181/184
f 18/144/185 17/145/186 61/172/187 72/173/188
f 23/88/189 73/146/190 74/147/191 57/84/192
f 75/148/193 70/149/194 63/107/195 56/106/196
f 56/83/197 55/82/198 71/150/199 75/151/200
f 76/152/201 77/153/202 78/154/203 75/155/204
f 77/156/205 76/157/206 72/158/207 61/95/208 57/94/209 74/159/210
f 79/160/211 47/137/212 19/136/213 18/161/214 72/158/215 76/157/216 80/162/217
f 75/155/218 71/143/219 48/142/220 47/163/221 79/164/222 80/165/223 76/152/224
f 22/139/225 70/138/226 75/166/227 78/167/228 77/168/229 74/169/230 73/170/231 23/171/232
