# This file uses centimeters as units for non-parametric coordinates.

mtllib BoteBasura.mtl
g default
v -1.396506 2.049790 -1.180007
v -0.096507 2.049790 -1.180007
v -0.309530 0.048630 -0.964930
v -1.172527 0.048630 -0.964930
v -1.172527 0.048630 -0.116744
v -1.396506 2.049790 0.119992
v -0.309530 0.048630 -0.116744
v -0.254958 2.049790 -1.057989
v -1.242168 2.049790 -1.050875
v -1.178867 0.345142 -0.983689
v -0.290159 0.345142 -0.983689
v -1.243365 2.049790 -0.004154
v -1.178867 0.345142 -0.094689
v -0.290159 0.345142 -0.094689
v -0.257452 2.049790 0.003537
v -0.096507 2.049790 0.119992
v -1.396506 2.049790 -1.180007
v -0.096507 2.049790 -1.180007
v -0.309530 0.048630 -0.964930
v -1.172527 0.048630 -0.964930
v -1.172527 0.048630 -0.116744
v -1.396506 2.049790 0.119992
v -0.309530 0.048630 -0.116744
v -0.254958 2.049790 -1.057989
v -1.242168 2.049790 -1.050875
v -1.178867 0.345142 -0.983689
v -0.290159 0.345142 -0.983689
v -1.243365 2.049790 -0.004154
v -1.178867 0.345142 -0.094689
v -0.290159 0.345142 -0.094689
v -0.257452 2.049790 0.003537
v -0.096507 2.049790 0.119992
vt 1.053208 1.053208
vt 1.053208 1.053208
vt 0.870159 -0.053208
vt 0.870159 -0.053208
vt 0.148276 -0.053208
vt -0.053208 1.053208
vt 0.148276 -0.053208
vt 0.943305 1.053208
vt 0.886124 0.110730
vt 0.949360 1.053208
vt 0.886124 0.110730
vt 0.052452 1.053208
vt 0.129505 0.110730
vt 0.129505 0.110730
vt 0.045906 1.053208
vt -0.053208 1.053208
vt 1.053208 1.053208
vt 1.053208 1.053208
vt 0.870159 -0.053208
vt 0.870159 -0.053208
vt 0.148276 -0.053208
vt -0.053208 1.053208
vt 0.148276 -0.053208
vt 0.943305 1.053208
vt 0.886124 0.110730
vt 0.949360 1.053208
vt 0.886124 0.110730
vt 0.052452 1.053208
vt 0.129505 0.110730
vt 0.129505 0.110730
vt 0.045906 1.053208
vt -0.053208 1.053208
vt -0.078247 1.078247
vt 1.078247 1.078247
vt 0.121007 -0.078247
vt 0.888739 -0.078247
vt 0.121007 -0.078247
vt 0.888739 -0.078247
vt 0.059054 1.078247
vt 0.115367 0.093111
vt 0.937287 1.078247
vt 0.905972 0.093111
vt 0.115367 0.093111
vt 0.905972 0.093111
vt 0.057989 1.078247
vt 0.935069 1.078247
vt 1.078247 1.078247
vt -0.078247 1.078247
vt -0.078247 1.078247
vt 1.078247 1.078247
vt 0.121007 -0.078247
vt 0.888739 -0.078247
vt 0.121007 -0.078247
vt 0.888739 -0.078247
vt 0.059054 1.078247
vt 0.115367 0.093111
vt 0.937287 1.078247
vt 0.905972 0.093111
vt 0.115367 0.093111
vt 0.905972 0.093111
vt 0.057989 1.078247
vt 0.935069 1.078247
vt 1.078247 1.078247
vt -0.078247 1.078247
vn 0.000000 -0.106861 -0.994274
vn 0.000000 -0.106861 -0.994274
vn 0.000000 -0.106861 -0.994274
vn 0.000000 -0.106861 -0.994274
vn 0.000000 -0.106861 -0.994274
vn 0.000000 -0.106861 -0.994274
vn -0.993795 -0.111231 0.000000
vn -0.993795 -0.111230 0.000000
vn -0.993795 -0.111230 0.000000
vn -0.993795 -0.111230 0.000000
vn -0.993795 -0.111230 0.000000
vn -0.993795 -0.111230 0.000000
vn 0.000000 -1.000000 0.000000
vn 0.000000 -1.000000 0.000000
vn 0.000000 -1.000000 0.000000
vn 0.000000 -1.000000 0.000000
vn 0.000000 -1.000000 0.000000
vn 0.000000 -1.000000 0.000000
vn 0.007200 0.039648 0.999188
vn 0.002559 0.042161 0.999108
vn 0.005148 0.040759 0.999156
vn 0.005148 0.040759 0.999156
vn 0.002559 0.042161 0.999108
vn 0.000000 0.043545 0.999051
vn 0.999287 0.037749 0.001143
vn 0.999302 0.037355 0.000440
vn 0.999294 0.037574 0.000829
vn 0.999294 0.037574 0.000829
vn 0.999302 0.037355 0.000440
vn 0.999311 0.037109 0.000000
vn 0.000000 1.000000 0.000000
vn 0.000000 1.000000 0.000000
vn 0.000000 1.000000 0.000000
vn 0.000000 1.000000 0.000000
vn 0.000000 1.000000 0.000000
vn 0.000000 1.000000 0.000000
vn -0.999811 0.019319 -0.002349
vn -0.999805 0.019680 -0.001711
vn -0.999797 0.020125 -0.000922
vn -0.999797 0.020125 -0.000922
vn -0.999805 0.019680 -0.001711
vn -0.999787 0.020646 0.000000
vn 0.007789 0.053328 -0.998547
vn 0.005568 0.054526 -0.998497
vn 0.002761 0.056040 -0.998425
vn 0.002761 0.056040 -0.998425
vn 0.005568 0.054526 -0.998497
vn 0.000000 0.057527 -0.998344
vn 0.994382 -0.105853 0.000000
vn 0.994382 -0.105852 0.000000
vn 0.994382 -0.105852 0.000000
vn 0.994382 -0.105852 0.000000
vn 0.994382 -0.105852 0.000000
vn 0.994382 -0.105851 0.000000
vn 0.000000 -0.117481 0.993075
vn 0.000000 -0.117480 0.993075
vn 0.000000 -0.117481 0.993075
vn 0.000000 -0.117481 0.993075
vn 0.000000 -0.117480 0.993075
vn 0.000000 -0.117480 0.993075
vn 0.000000 1.000000 0.000000
vn 0.000000 1.000000 0.000000
vn 0.000000 1.000000 0.000000
vn 0.000000 1.000000 0.000000
vn 0.000000 1.000000 -0.000001
vn 0.000000 1.000000 0.000000
vn 0.000000 1.000000 0.000000
vn 0.000000 1.000000 -0.000001
vn 0.000000 1.000000 0.000000
vn 0.000000 1.000000 0.000000
vn 0.000000 1.000000 -0.000001
vn 0.000000 1.000000 0.000000
vn 0.000000 1.000000 0.000000
vn 0.000000 1.000000 0.000000
vn 0.000000 1.000000 0.000000
vn 0.000000 1.000000 0.000000
vn 0.000000 1.000000 0.000000
vn 0.000000 1.000000 0.000000
vn 0.000000 1.000000 0.000000
vn 0.000000 1.000000 0.000000
vn 0.000000 1.000000 0.000000
vn 0.000000 1.000000 0.000000
vn 0.000000 1.000000 0.000000
vn 0.000000 1.000000 0.000000
vn 0.000000 -0.106861 -0.994274
vn 0.000000 -0.106861 -0.994274
vn 0.000000 -0.106861 -0.994274
vn 0.000000 -0.106861 -0.994274
vn 0.000000 -0.106861 -0.994274
vn 0.000000 -0.106861 -0.994274
vn -0.993795 -0.111231 0.000000
vn -0.993795 -0.111230 0.000000
vn -0.993795 -0.111230 0.000000
vn -0.993795 -0.111230 0.000000
vn -0.993795 -0.111230 0.000000
vn -0.993795 -0.111230 0.000000
vn 0.000000 -1.000000 0.000000
vn 0.000000 -1.000000 0.000000
vn 0.000000 -1.000000 0.000000
vn 0.000000 -1.000000 0.000000
vn 0.000000 -1.000000 0.000000
vn 0.000000 -1.000000 0.000000
vn 0.007200 0.039648 0.999188
vn 0.002559 0.042161 0.999108
vn 0.005148 0.040759 0.999156
vn 0.005148 0.040759 0.999156
vn 0.002559 0.042161 0.999108
vn 0.000000 0.043545 0.999051
vn 0.999287 0.037749 0.001143
vn 0.999302 0.037355 0.000440
vn 0.999294 0.037574 0.000829
vn 0.999294 0.037574 0.000829
vn 0.999302 0.037355 0.000440
vn 0.999311 0.037109 0.000000
vn 0.000000 1.000000 0.000000
vn 0.000000 1.000000 0.000000
vn 0.000000 1.000000 0.000000
vn 0.000000 1.000000 0.000000
vn 0.000000 1.000000 0.000000
vn 0.000000 1.000000 0.000000
vn -0.999811 0.019319 -0.002349
vn -0.999805 0.019680 -0.001711
vn -0.999797 0.020125 -0.000922
vn -0.999797 0.020125 -0.000922
vn -0.999805 0.019680 -0.001711
vn -0.999787 0.020646 0.000000
vn 0.007789 0.053328 -0.998547
vn 0.005568 0.054526 -0.998497
vn 0.002761 0.056040 -0.998425
vn 0.002761 0.056040 -0.998425
vn 0.005568 0.054526 -0.998497
vn 0.000000 0.057527 -0.998344
vn 0.994382 -0.105853 0.000000
vn 0.994382 -0.105852 0.000000
vn 0.994382 -0.105852 0.000000
vn 0.994382 -0.105852 0.000000
vn 0.994382 -0.105852 0.000000
vn 0.994382 -0.105851 0.000000
vn 0.000000 -0.117481 0.993075
vn 0.000000 -0.117480 0.993075
vn 0.000000 -0.117481 0.993075
vn 0.000000 -0.117481 0.993075
vn 0.000000 -0.117480 0.993075
vn 0.000000 -0.117480 0.993075
vn 0.000000 1.000000 0.000000
vn 0.000000 1.000000 0.000000
vn 0.000000 1.000000 0.000000
vn 0.000000 1.000000 0.000000
vn 0.000000 1.000000 -0.000001
vn 0.000000 1.000000 0.000000
vn 0.000000 1.000000 0.000000
vn 0.000000 1.000000 -0.000001
vn 0.000000 1.000000 0.000000
vn 0.000000 1.000000 0.000000
vn 0.000000 1.000000 -0.000001
vn 0.000000 1.000000 0.000000
vn 0.000000 1.000000 0.000000
vn 0.000000 1.000000 0.000000
vn 0.000000 1.000000 0.000000
vn 0.000000 1.000000 0.000000
vn 0.000000 1.000000 0.000000
vn 0.000000 1.000000 0.000000
vn 0.000000 1.000000 0.000000
vn 0.000000 1.000000 0.000000
vn 0.000000 1.000000 0.000000
vn 0.000000 1.000000 0.000000
vn 0.000000 1.000000 0.000000
vn 0.000000 1.000000 0.000000
s off
g BoteBasura:polySurface141
usemtl phong1SG
f 1/33/1 2/34/2 4/35/3
f 4/35/4 2/34/5 3/36/6
f 4/3/7 5/5/8 1/1/9
f 1/1/10 5/5/11 6/6/12
f 4/35/13 3/36/14 5/37/15
f 5/37/16 3/36/17 7/38/18
f 9/39/19 10/40/20 8/41/21
f 8/41/22 10/40/23 11/42/24
f 12/12/25 13/13/26 9/8/27
f 9/8/28 13/13/29 10/9/30
f 10/40/31 13/43/32 11/42/33
f 11/42/34 13/43/35 14/44/36
f 15/15/37 8/10/38 14/14/39
f 14/14/40 8/10/41 11/11/42
f 12/45/43 15/46/44 13/43/45
f 13/43/46 15/46/47 14/44/48
f 3/4/49 2/2/50 7/7/51
f 7/7/52 2/2/53 16/16/54
f 7/38/55 16/47/56 5/37/57
f 5/37/58 16/47/59 6/48/60
f 1/33/61 9/39/62 2/34/63
f 9/39/64 8/41/65 2/34/66
f 2/2/67 8/10/68 16/16/69
f 16/16/70 8/10/71 15/15/72
f 16/47/73 15/46/74 6/48/75
f 15/46/76 12/45/77 6/48/78
f 6/6/79 12/12/80 1/1/81
f 12/12/82 9/8/83 1/1/84
f 17/49/85 18/50/86 20/51/87
f 20/51/88 18/50/89 19/52/90
f 20/19/91 21/21/92 17/17/93
f 17/17/94 21/21/95 22/22/96
f 20/51/97 19/52/98 21/53/99
f 21/53/100 19/52/101 23/54/102
f 25/55/103 26/56/104 24/57/105
f 24/57/106 26/56/107 27/58/108
f 28/28/109 29/29/110 25/24/111
f 25/24/112 29/29/113 26/25/114
f 26/56/115 29/59/116 27/58/117
f 27/58/118 29/59/119 30/60/120
f 31/31/121 24/26/122 30/30/123
f 30/30/124 24/26/125 27/27/126
f 28/61/127 31/62/128 29/59/129
f 29/59/130 31/62/131 30/60/132
f 19/20/133 18/18/134 23/23/135
f 23/23/136 18/18/137 32/32/138
f 23/54/139 32/63/140 21/53/141
f 21/53/142 32/63/143 22/64/144
f 17/49/145 25/55/146 18/50/147
f 25/55/148 24/57/149 18/50/150
f 18/18/151 24/26/152 32/32/153
f 32/32/154 24/26/155 31/31/156
f 32/63/157 31/62/158 22/64/159
f 31/62/160 28/61/161 22/64/162
f 22/22/163 28/28/164 17/17/165
f 28/28/166 25/24/167 17/17/168
