# Blender 4.3.2
# www.blender.org
mtllib LamparaModerna.mtl
g mesh_lightpost_Mesh
v 0.985600 0.000000 -0.000002
v 0.985600 35.200001 -0.000002
v 0.492800 0.000000 0.864222
v 0.492800 35.200001 0.864222
v -0.492800 0.000000 0.864222
v -0.492800 35.200001 0.864222
v -0.985600 0.000000 -0.000002
v -0.985600 35.200001 -0.000002
v -0.492800 0.000000 -0.864225
v -0.492800 35.200001 -0.864225
v 0.492800 0.000000 -0.864225
v 0.492800 35.200001 -0.864225
v -0.968000 37.153603 -0.000002
v -0.968000 36.660801 0.864222
v -1.316148 35.656441 0.613673
v -1.312815 35.173744 -0.000002
v -1.316148 35.656441 -0.613674
v -0.968000 36.660801 -0.864225
v 0.555164 36.723167 -0.000002
v 0.206701 36.374706 -0.864225
v -0.490223 35.677780 -0.864225
v -0.838685 35.329319 0.000000
v -0.490223 35.677780 0.864222
v 0.206701 36.374706 0.864222
v -3.608000 37.153603 1.728444
v -3.608000 37.608765 -0.000002
v -3.662505 35.213974 1.381979
v -3.608000 35.573551 -0.000002
v -3.608000 35.182400 -1.728449
v -3.608000 37.153603 -1.728449
v -6.248001 37.153603 1.728444
v -6.248001 37.710960 -0.000002
v -6.193820 35.251740 1.390526
v -6.248001 35.573551 -0.000002
v -6.248001 35.182400 -1.728449
v -6.248001 37.153603 -1.728449
v -8.888000 37.153603 0.864222
v -8.888000 37.153603 -0.000002
v -8.548388 35.252800 0.619938
v -8.544782 35.216305 -0.000002
v -8.548388 35.252800 -0.619941
v -8.888000 37.153603 -0.864225
v 0.635529 32.633324 -0.000002
v 0.317765 32.633324 0.557264
v -0.317765 32.633324 0.557264
v -0.635529 32.633324 -0.000002
v -0.317765 32.633324 -0.557265
v 0.317765 32.633324 -0.557265
v 0.405282 16.585608 0.722438
v -0.405282 16.585608 0.722438
v -0.810565 16.585608 0.011695
v -0.405282 16.585608 -0.699054
v 0.405282 16.585608 -0.699054
v 0.810565 16.585608 0.011695
v 0.723047 24.720554 -0.210479
v 0.361523 24.720554 0.423524
v -0.361524 24.720554 0.423524
v -0.723047 24.720554 -0.210479
v -0.361524 24.720554 -0.844487
v 0.361523 24.720554 -0.844487
v -0.968000 35.182400 -0.000002
v -0.968000 35.675201 0.864222
v -0.968000 35.675201 -0.864225
v -3.662505 35.213974 -1.381984
v -3.608000 35.182400 1.728444
v -6.193820 35.251740 -1.390532
v -6.248001 35.182400 1.728444
v -8.888000 35.182400 -0.000002
v -8.888000 35.182400 0.864222
v -8.888000 35.182400 -0.864225
vn 0.8627 -0.1177 0.4919
vn -0.0000 -0.1187 0.9929
vn -0.8627 -0.1177 0.4919
vn -0.8627 -0.1177 -0.4919
vn -0.0000 -0.0000 1.0000
vn -0.0000 -0.1187 -0.9929
vn 0.8627 -0.1177 -0.4919
vn -0.0000 -1.0000 -0.0000
vn 0.1878 0.8940 -0.4068
vn 0.2327 0.9242 -0.3028
vn 0.1481 0.8591 -0.4899
vn 0.0911 -0.9198 0.3817
vn 0.5787 -0.7236 0.3762
vn 0.0050 -0.9281 0.3722
vn 0.0911 -0.9198 -0.3817
vn 0.5787 -0.7236 -0.3762
vn 0.7025 -0.6183 -0.3526
vn -0.0000 -0.0000 -1.0000
vn 0.2229 0.8552 -0.4678
vn 0.2308 0.8577 -0.4594
vn 0.2070 0.8499 -0.4846
vn 0.2229 0.8552 0.4678
vn 0.2308 0.8577 0.4594
vn 0.2435 0.8615 0.4455
vn 0.8577 0.2308 -0.4594
vn 0.8552 0.2229 -0.4678
vn 0.8499 0.2070 -0.4846
vn -0.7236 0.5786 -0.3762
vn -0.9198 0.0911 -0.3817
vn -0.6183 0.7024 -0.3526
vn -0.7236 0.5786 0.3762
vn -0.9198 0.0911 0.3817
vn -0.9281 0.0050 0.3722
vn 0.8577 0.2308 0.4594
vn 0.8552 0.2229 0.4678
vn 0.8615 0.2435 0.4455
vn 0.0141 0.9614 0.2747
vn 0.0229 0.9576 0.2871
vn -0.0000 0.9670 0.2547
vn -0.0700 -0.9200 -0.3856
vn 0.0585 -0.9947 0.0841
vn 0.1009 -0.9638 0.2468
vn 0.3111 -0.0000 0.9504
vn 0.3111 -0.0000 -0.9504
vn -0.0700 -0.9200 0.3856
vn 0.0585 -0.9947 -0.0841
vn -0.1357 -0.7791 0.6121
vn 0.1878 0.8940 0.4068
vn 0.2327 0.9242 0.3028
vn 0.2551 0.9350 0.2462
vn -0.3111 -0.0000 -0.9504
vn 0.0141 0.9614 -0.2747
vn 0.0229 0.9576 -0.2871
vn 0.0368 0.9511 -0.3067
vn -0.0103 -0.9698 0.2435
vn -0.0048 -0.9722 0.2339
vn -0.0153 -0.9675 0.2523
vn -0.0103 -0.9698 -0.2435
vn -0.0048 -0.9722 -0.2339
vn -0.0000 -0.9742 -0.2255
vn -1.0000 -0.0000 -0.0000
vn 0.0877 -0.9795 -0.1815
vn 0.1300 -0.9910 -0.0305
vn 0.1534 -0.9864 0.0590
vn -0.1227 0.9616 0.2453
vn -0.1720 0.9794 0.1061
vn -0.1000 0.9470 0.3054
vn -0.1227 0.9616 -0.2453
vn -0.1720 0.9794 -0.1061
vn -0.2066 0.9784 -0.0000
vn 0.0877 -0.9795 0.1815
vn 0.1300 -0.9910 0.0305
vn 0.0740 -0.9709 0.2276
vn -0.3111 -0.0000 0.9504
vn 0.8685 0.0228 -0.4952
vn -0.0000 0.0363 -0.9993
vn -0.8685 0.0228 -0.4952
vn -0.8687 -0.0036 0.4953
vn -0.0000 -0.0169 0.9999
vn 0.8687 -0.0036 0.4953
vn 0.8686 0.0159 0.4953
vn 0.8687 0.0088 0.4953
vn -0.0000 0.0085 1.0000
vn -0.8687 0.0088 0.4953
vn -0.8686 0.0159 0.4953
vn -0.8687 0.0095 -0.4953
vn -0.8687 0.0026 -0.4953
vn -0.0000 0.0100 -1.0000
vn 0.8687 0.0026 -0.4953
vn 0.8687 0.0095 -0.4953
vn 0.8685 0.0229 0.4952
vn 0.8686 0.0158 0.4953
vn -0.0000 0.0367 0.9993
vn -0.8685 0.0229 0.4952
vn -0.8686 0.0158 0.4953
vn -0.8687 -0.0042 -0.4953
vn -0.8687 0.0027 -0.4953
vn -0.0000 -0.0179 -0.9998
vn 0.8687 -0.0042 -0.4953
vn 0.8687 0.0027 -0.4953
vn -0.2354 -0.8292 0.5070
vn -0.0681 -0.8079 0.5854
vn -0.2958 -0.8298 0.4732
vn -0.2354 -0.8292 -0.5070
vn -0.0681 -0.8079 -0.5854
vn 0.0197 -0.7858 -0.6182
vn 0.1429 -0.9820 0.1238
vn 0.1478 -0.9824 0.1140
vn 0.1425 -0.9819 0.1245
vn 0.1429 -0.9820 -0.1238
vn 0.1478 -0.9824 -0.1140
vn 0.1483 -0.9825 -0.1129
vn -0.0012 -0.9813 0.1924
vn -0.0137 -0.9950 0.0990
vn -0.0152 -0.9960 0.0884
vn -0.0012 -0.9813 -0.1924
vn -0.0137 -0.9950 -0.0990
vn -0.0000 -0.9796 -0.2010
vn 0.1788 -0.9838 0.0137
vn 0.1323 -0.9904 0.0400
vn 0.0981 -0.9934 0.0591
vn 0.1788 -0.9838 -0.0137
vn 0.1323 -0.9904 -0.0400
vn 0.2030 -0.9792 -0.0000
vn 0.0634 -0.9790 0.1937
vn 0.0622 -0.9795 0.1913
vn 0.0621 -0.9796 0.1911
vn 0.0634 -0.9790 -0.1937
vn 0.0622 -0.9796 -0.1913
vn 0.0635 -0.9790 -0.1939
vn 0.2551 0.9350 -0.2462
vn 0.7024 -0.6183 0.3526
vn 0.0050 -0.9281 -0.3722
vn 0.2435 0.8615 -0.4455
vn 0.2070 0.8499 0.4846
vn 0.8615 0.2435 -0.4455
vn -0.9281 0.0050 -0.3722
vn -0.6183 0.7024 0.3526
vn 0.8499 0.2070 0.4846
vn 0.0368 0.9511 0.3067
vn -0.1357 -0.7791 -0.6121
vn 0.1009 -0.9638 -0.2468
vn 0.1481 0.8591 0.4899
vn -0.0000 0.9670 -0.2547
vn -0.0000 -0.9742 0.2255
vn -0.0153 -0.9675 -0.2523
vn 0.0740 -0.9709 -0.2276
vn -0.1000 0.9470 -0.3054
vn 0.1534 -0.9864 -0.0590
vn 0.0197 -0.7858 0.6182
vn -0.2958 -0.8298 -0.4732
vn 0.1483 -0.9825 0.1129
vn 0.1425 -0.9819 -0.1245
vn -0.0000 -0.9796 0.2010
vn -0.0152 -0.9960 -0.0884
vn 0.0981 -0.9934 -0.0591
vn 0.0635 -0.9790 0.1939
vn 0.0621 -0.9796 -0.1911
vt 1.000000 1.000000
vt 0.833333 0.750000
vt 1.000000 0.750000
vt 0.833333 1.000000
vt 0.666667 0.750000
vt 0.500000 1.000000
vt 0.500000 0.750000
vt 0.333333 0.750000
vt 0.457846 0.370000
vt 0.562256 0.565000
vt 0.645590 0.685000
vt 0.333333 1.000000
vt 0.166667 0.750000
vt -0.000000 1.000000
vt -0.000000 0.750000
vt 0.957846 0.370000
vt 0.750000 0.010000
vt 0.542154 0.370000
vt 0.042154 0.370000
vt 0.250000 0.490000
vt 0.457846 0.130000
vt 0.375000 0.505000
vt 0.042154 0.130000
vt 0.250000 0.010000
vt 0.187744 0.565000
vt 0.104410 0.685000
vt 0.625000 0.745000
vt 0.166667 1.000000
vt 0.666667 1.000000
vt 0.115488 0.087660
vt 0.082604 0.106646
vt 0.384512 0.087661
vt 0.250465 0.009732
vt 0.083898 0.105899
vt 0.416102 0.105899
vt 0.382906 0.086734
vt 0.249500 0.010289
vt 0.117094 0.086733
vt -0.000000 0.687500
vt 0.166667 0.687500
vt 0.333333 0.687500
vt 0.500000 0.687500
vt 0.666667 0.687500
vt 0.833333 0.687500
vt 1.000000 0.687500
vt 1.000000 0.625000
vt 0.833333 0.500000
vt 1.000000 0.500000
vt 0.833333 0.625000
vt 0.666667 0.500000
vt 0.500000 0.625000
vt 0.500000 0.500000
vt 0.333333 0.625000
vt 0.333333 0.500000
vt 0.166667 0.500000
vt 0.166667 0.625000
vt -0.000000 0.500000
vt 0.666667 0.625000
vt -0.000000 0.625000
vt 0.417396 0.106646
vt 0.750000 0.490000
vt 0.957846 0.130000
vt 0.542154 0.130000
vt 0.125000 0.745000
s 1
g off
g mesh_lightpost_mat_house_frame
usemtl mat_house_frame
f 2/1/1 44/2/1 43/3/1
s 2
f 4/4/2 45/5/2 44/2/2
s 3
f 45/5/3 8/6/3 46/7/3
s 4
f 8/6/4 47/8/4 46/7/4
s 5
f 14/9/5 23/10/5 24/11/5
s 6
f 10/12/6 48/13/6 47/8/6
s 7
f 48/13/7 2/14/7 43/15/7
s 8
f 3/16/8 7/17/8 11/18/8
s 9
f 18/19/9 26/20/10 13/20/11
s 10
f 62/21/12 22/22/13 23/10/14
s 11
f 63/23/15 22/22/16 61/24/17
s 12
f 18/19/18 21/25/18 63/23/18
s 13
f 13/20/19 20/26/20 18/19/21
s 14
f 13/20/22 24/11/23 19/27/24
s 15
f 20/26/25 2/14/26 12/28/27
s 12
f 21/25/18 12/28/18 10/12/18
s 16
f 22/22/28 10/12/29 8/6/30
s 17
f 22/22/31 6/29/32 23/10/33
s 5
f 23/10/5 4/4/5 24/11/5
s 18
f 24/11/34 2/1/35 19/27/36
s 19
f 26/20/37 31/9/38 25/9/39
s 21
f 14/9/43 65/21/43 62/21/43
s 22
f 63/23/44 30/19/44 18/19/44
s 24
f 14/9/48 26/20/49 25/9/50
s 25
f 35/23/51 42/19/51 36/19/51
s 26
f 26/20/52 36/19/53 32/20/54
s 28
f 25/9/5 67/21/5 65/21/5
s 29
f 29/23/18 36/19/18 30/19/18
s 31
f 38/20/61 70/23/61 68/24/61
s 33
f 32/20/65 37/9/66 31/9/67
s 34
f 32/20/68 42/19/69 38/20/70
s 36
f 31/9/74 69/21/74 67/21/74
s 37
f 48/13/75 55/39/75 60/40/75
s 38
f 47/8/76 60/40/76 59/41/76
s 39
f 58/42/77 47/8/77 59/41/77
s 40
f 57/43/78 46/7/78 58/42/78
s 41
f 44/2/79 57/43/79 56/44/79
s 42
f 43/3/80 56/44/80 55/45/80
s 43
f 54/46/81 3/47/82 1/48/82
s 44
f 49/49/83 5/50/83 3/47/83
s 45
f 5/50/84 51/51/85 7/52/84
s 46
f 7/52/86 52/53/87 9/54/86
s 47
f 52/53/88 11/55/88 9/54/88
s 48
f 53/56/89 1/57/90 11/55/90
s 43
f 54/46/81 56/44/91 49/49/92
s 49
f 56/44/93 50/58/93 49/49/93
s 45
f 57/43/94 51/51/85 50/58/95
s 46
f 58/42/96 52/53/87 51/51/97
s 50
f 59/41/98 53/56/98 52/53/98
s 48
f 53/56/89 55/39/99 54/59/100
s 51
f 15/32/101 61/24/102 62/21/103
s 52
f 17/30/104 61/24/105 16/33/106
s 53
f 17/30/107 29/23/108 63/23/109
s 54
f 15/32/110 65/21/111 27/60/112
s 55
f 66/34/113 29/23/114 64/31/115
s 56
f 33/35/116 65/21/117 67/21/118
s 57
f 39/36/119 68/24/120 40/37/121
s 58
f 41/38/122 68/24/123 70/23/124
s 59
f 41/38/125 35/23/126 66/34/127
s 60
f 39/36/128 67/21/129 69/21/130
s 1
f 2/1/1 4/4/1 44/2/1
s 2
f 4/4/2 6/29/2 45/5/2
s 3
f 45/5/3 6/29/3 8/6/3
s 4
f 8/6/4 10/12/4 47/8/4
s 5
f 14/9/5 62/21/5 23/10/5
s 6
f 10/12/6 12/28/6 48/13/6
s 7
f 48/13/7 12/28/7 2/14/7
s 8
f 11/18/8 1/61/8 3/16/8
f 3/16/8 5/62/8 7/17/8
f 7/17/8 9/63/8 11/18/8
s 9
f 18/19/9 30/19/131 26/20/10
s 10
f 62/21/12 61/24/132 22/22/13
s 11
f 63/23/15 21/25/133 22/22/16
s 12
f 18/19/18 20/26/18 21/25/18
s 13
f 13/20/19 19/64/134 20/26/20
s 14
f 13/20/22 14/9/135 24/11/23
s 15
f 20/26/25 19/64/136 2/14/26
s 12
f 21/25/18 20/26/18 12/28/18
s 16
f 22/22/28 21/25/137 10/12/29
s 17
f 22/22/31 8/6/138 6/29/32
s 5
f 23/10/5 6/29/5 4/4/5
s 18
f 24/11/34 4/4/139 2/1/35
s 19
f 26/20/37 32/20/140 31/9/38
s 21
f 14/9/43 25/9/43 65/21/43
s 22
f 63/23/44 29/23/44 30/19/44
s 24
f 14/9/48 13/20/143 26/20/49
s 25
f 35/23/51 70/23/51 42/19/51
s 26
f 26/20/52 30/19/144 36/19/53
s 28
f 25/9/5 31/9/5 67/21/5
s 29
f 29/23/18 35/23/18 36/19/18
s 31
f 69/21/61 37/9/61 38/20/61
f 38/20/61 42/19/61 70/23/61
f 68/24/61 69/21/61 38/20/61
s 33
f 32/20/65 38/20/70 37/9/66
s 34
f 32/20/68 36/19/148 42/19/69
s 36
f 31/9/74 37/9/74 69/21/74
s 37
f 48/13/75 43/15/75 55/39/75
s 38
f 47/8/76 48/13/76 60/40/76
s 39
f 58/42/77 46/7/77 47/8/77
s 40
f 57/43/78 45/5/78 46/7/78
s 41
f 44/2/79 45/5/79 57/43/79
s 42
f 43/3/80 44/2/80 56/44/80
s 43
f 54/46/81 49/49/92 3/47/82
s 44
f 49/49/83 50/58/83 5/50/83
s 45
f 5/50/84 50/58/95 51/51/85
s 46
f 7/52/86 51/51/97 52/53/87
s 47
f 52/53/88 53/56/88 11/55/88
s 48
f 53/56/89 54/59/100 1/57/90
s 43
f 54/46/81 55/45/91 56/44/91
s 49
f 56/44/93 57/43/93 50/58/93
s 45
f 57/43/94 58/42/94 51/51/85
s 46
f 58/42/96 59/41/96 52/53/87
s 50
f 59/41/98 60/40/98 53/56/98
s 48
f 53/56/89 60/40/99 55/39/99
s 51
f 15/32/101 16/33/150 61/24/102
s 52
f 17/30/104 63/23/151 61/24/105
s 53
f 17/30/107 64/31/152 29/23/108
s 54
f 15/32/110 62/21/153 65/21/111
s 55
f 66/34/113 35/23/154 29/23/114
s 56
f 33/35/116 27/60/155 65/21/117
s 57
f 39/36/119 69/21/124 68/24/120
s 58
f 41/38/122 40/37/156 68/24/123
s 59
f 41/38/125 70/23/157 35/23/126
s 60
f 39/36/128 33/35/158 67/21/129
s 20
g mesh_lightpost_mat_lightpost_glow
usemtl mat_lightpost_glow
f 17/30/40 28/24/41 64/31/42
s 23
f 15/32/45 28/24/46 16/33/47
s 27
f 28/24/55 66/34/56 64/31/57
s 30
f 28/24/58 33/35/59 34/24/60
s 32
f 34/24/62 39/36/63 40/37/64
s 35
f 34/24/71 41/38/72 66/34/73
s 20
f 17/30/40 16/33/141 28/24/41
s 23
f 15/32/45 27/60/142 28/24/46
s 27
f 28/24/55 34/24/145 66/34/56
s 30
f 28/24/58 27/60/146 33/35/59
s 32
f 34/24/62 33/35/147 39/36/63
s 35
f 34/24/71 40/37/149 41/38/72
