# This file uses centimeters as units for non-parametric coordinates.

mtllib LamparaModerna.mtl
g default
v 0.985600 0.000000 -0.000002
v 0.985600 35.200001 -0.000002
v 0.492800 0.000000 0.864222
v 0.492800 35.200001 0.864222
v -0.492800 0.000000 0.864222
v -0.492800 35.200001 0.864222
v -0.985600 0.000000 -0.000002
v -0.985600 35.200001 -0.000002
v -0.492800 0.000000 -0.864225
v -0.492800 35.200001 -0.864225
v 0.492800 0.000000 -0.864225
v 0.492800 35.200001 -0.864225
v -0.968000 37.153603 -0.000002
v -0.968000 36.660801 0.864222
v -1.316148 35.656441 0.613673
v -1.312815 35.173744 -0.000002
v -1.316148 35.656441 -0.613674
v -0.968000 36.660801 -0.864225
v 0.555164 36.723167 -0.000002
v 0.206701 36.374706 -0.864225
v -0.490223 35.677780 -0.864225
v -0.838685 35.329319 0.000000
v -0.490223 35.677780 0.864222
v 0.206701 36.374706 0.864222
v -3.608000 37.153603 1.728444
v -3.608000 37.608765 -0.000002
v -3.662505 35.213974 1.381979
v -3.608000 35.573551 -0.000002
v -3.608000 35.182400 -1.728449
v -3.608000 37.153603 -1.728449
v -6.248001 37.153603 1.728444
v -6.248001 37.710960 -0.000002
v -6.193820 35.251740 1.390526
v -6.248001 35.573551 -0.000002
v -6.248001 35.182400 -1.728449
v -6.248001 37.153603 -1.728449
v -8.888000 37.153603 0.864222
v -8.888000 37.153603 -0.000002
v -8.548388 35.252800 0.619938
v -8.544782 35.216305 -0.000002
v -8.548388 35.252800 -0.619941
v -8.888000 37.153603 -0.864225
v 0.635529 32.633324 -0.000002
v 0.317765 32.633324 0.557264
v -0.317765 32.633324 0.557264
v -0.635529 32.633324 -0.000002
v -0.317765 32.633324 -0.557265
v 0.317765 32.633324 -0.557265
v 0.405282 16.585608 0.722438
v -0.405282 16.585608 0.722438
v -0.810565 16.585608 0.011695
v -0.405282 16.585608 -0.699054
v 0.405282 16.585608 -0.699054
v 0.810565 16.585608 0.011695
v 0.723047 24.720554 -0.210479
v 0.361523 24.720554 0.423524
v -0.361524 24.720554 0.423524
v -0.723047 24.720554 -0.210479
v -0.361524 24.720554 -0.844487
v 0.361523 24.720554 -0.844487
v -0.968000 35.182400 -0.000002
v -0.968000 35.675201 0.864222
v -0.968000 35.675201 -0.864225
v -3.662505 35.213974 -1.381984
v -3.608000 35.182400 1.728444
v -6.193820 35.251740 -1.390532
v -6.248001 35.182400 1.728444
v -8.888000 35.182400 -0.000002
v -8.888000 35.182400 0.864222
v -8.888000 35.182400 -0.864225
vt 1.000000 1.000000
vt 0.833333 0.750000
vt 1.000000 0.750000
vt 0.833333 1.000000
vt 0.666667 0.750000
vt 0.500000 1.000000
vt 0.500000 0.750000
vt 0.333333 0.750000
vt 0.457846 0.370000
vt 0.562256 0.565000
vt 0.645590 0.685000
vt 0.333333 1.000000
vt 0.166667 0.750000
vt -0.000000 1.000000
vt -0.000000 0.750000
vt 0.957846 0.370000
vt 0.750000 0.010000
vt 0.542154 0.370000
vt 0.042154 0.370000
vt 0.250000 0.490000
vt 0.457846 0.130000
vt 0.375000 0.505000
vt 0.042154 0.130000
vt 0.250000 0.010000
vt 0.187744 0.565000
vt 0.104410 0.685000
vt 0.625000 0.745000
vt 0.166667 1.000000
vt 0.666667 1.000000
vt -0.000000 0.687500
vt 0.166667 0.687500
vt 0.333333 0.687500
vt 0.500000 0.687500
vt 0.666667 0.687500
vt 0.833333 0.687500
vt 1.000000 0.687500
vt 1.000000 0.625000
vt 0.833333 0.500000
vt 1.000000 0.500000
vt 0.833333 0.625000
vt 0.666667 0.500000
vt 0.500000 0.625000
vt 0.500000 0.500000
vt 0.333333 0.625000
vt 0.333333 0.500000
vt 0.166667 0.500000
vt 0.166667 0.625000
vt -0.000000 0.500000
vt 0.666667 0.625000
vt -0.000000 0.625000
vt 0.384512 0.087661
vt 0.115488 0.087660
vt 0.250465 0.009732
vt 0.417396 0.106646
vt 0.083898 0.105899
vt 0.082604 0.106646
vt 0.416102 0.105899
vt 0.382906 0.086734
vt 0.249500 0.010289
vt 0.117094 0.086733
vt 0.750000 0.490000
vt 0.957846 0.130000
vt 0.542154 0.130000
vt 0.125000 0.745000
vt 0.250000 0.490000
vt 0.457846 0.370000
vt 0.457846 0.370000
vt 0.457846 0.130000
vt 0.042154 0.370000
vt 0.042154 0.130000
vt 0.042154 0.370000
vt 0.042154 0.370000
vt 0.250000 0.490000
vt 0.457846 0.130000
vt 0.042154 0.130000
vt 0.250000 0.490000
vt 0.042154 0.130000
vt 0.250000 0.010000
vt 0.457846 0.370000
vt 0.457846 0.130000
vn 0.862670 -0.117696 0.491883
vn 0.862670 -0.117696 0.491883
vn 0.862670 -0.117696 0.491883
vn 0.000000 -0.118704 0.992930
vn 0.000000 -0.118704 0.992930
vn 0.000000 -0.118704 0.992930
vn -0.862670 -0.117696 0.491883
vn -0.862670 -0.117696 0.491883
vn -0.862670 -0.117696 0.491883
vn -0.862670 -0.117696 -0.491883
vn -0.862670 -0.117696 -0.491883
vn -0.862670 -0.117696 -0.491883
vn 0.000000 0.000000 1.000000
vn 0.000000 0.000000 1.000000
vn 0.000000 0.000000 1.000000
vn 0.000000 -0.118704 -0.992930
vn 0.000000 -0.118704 -0.992930
vn 0.000000 -0.118704 -0.992930
vn 0.862670 -0.117696 -0.491883
vn 0.862670 -0.117696 -0.491883
vn 0.862670 -0.117696 -0.491883
vn 0.000000 -1.000000 0.000000
vn 0.000000 -1.000000 0.000000
vn 0.000000 -1.000000 0.000000
vn 0.187801 0.894004 -0.406802
vn 0.232702 0.924208 -0.302803
vn 0.148101 0.859105 -0.489903
vn 0.091099 -0.919788 0.381695
vn 0.578695 -0.723594 0.376197
vn 0.005000 -0.928134 0.372214
vn 0.091099 -0.919788 -0.381695
vn 0.578695 -0.723594 -0.376197
vn 0.702455 -0.618261 -0.352577
vn 0.000000 0.000000 -1.000000
vn 0.000000 0.000000 -1.000000
vn 0.000000 0.000000 -1.000000
vn 0.222912 0.855248 -0.467826
vn 0.230804 0.857715 -0.459408
vn 0.206998 0.849893 -0.484596
vn 0.222912 0.855248 0.467826
vn 0.230804 0.857715 0.459408
vn 0.243507 0.861524 0.445512
vn 0.857715 0.230804 -0.459408
vn 0.855248 0.222912 -0.467826
vn 0.849893 0.206998 -0.484596
vn 0.000000 0.000000 -1.000000
vn 0.000000 0.000000 -1.000000
vn 0.000000 0.000000 -1.000000
vn -0.723636 0.578629 -0.376219
vn -0.919788 0.091099 -0.381695
vn -0.618304 0.702404 -0.352602
vn -0.723636 0.578629 0.376219
vn -0.919788 0.091099 0.381695
vn -0.928134 0.005000 0.372214
vn 0.000000 0.000000 1.000000
vn 0.000000 0.000000 1.000000
vn 0.000000 0.000000 1.000000
vn 0.857715 0.230804 0.459408
vn 0.855248 0.222912 0.467826
vn 0.861524 0.243507 0.445512
vn 0.014100 0.961425 0.274707
vn 0.022901 0.957625 0.287107
vn 0.000000 0.967019 0.254705
vn 0.311093 -0.000000 0.950379
vn 0.311093 -0.000000 0.950379
vn 0.311093 -0.000000 0.950379
vn 0.311093 0.000000 -0.950379
vn 0.311093 0.000000 -0.950379
vn 0.311093 0.000000 -0.950379
vn 0.187801 0.894004 0.406802
vn 0.232702 0.924208 0.302803
vn 0.255111 0.935040 0.246210
vn -0.311093 0.000000 -0.950379
vn -0.311093 0.000000 -0.950379
vn -0.311093 0.000000 -0.950379
vn 0.014100 0.961425 -0.274707
vn 0.022901 0.957625 -0.287107
vn 0.036800 0.951095 -0.306698
vn 0.000000 0.000000 1.000000
vn 0.000000 0.000000 1.000000
vn 0.000000 0.000000 1.000000
vn 0.000000 0.000000 -1.000000
vn 0.000000 0.000000 -1.000000
vn 0.000000 0.000000 -1.000000
vn -1.000000 0.000000 0.000000
vn -1.000000 0.000000 0.000000
vn -1.000000 0.000000 0.000000
vn -0.122706 0.961647 0.245312
vn -0.171994 0.979368 0.106097
vn -0.099996 0.946963 0.305388
vn -0.122706 0.961647 -0.245312
vn -0.171994 0.979368 -0.106097
vn -0.206605 0.978424 -0.000000
vn -0.311093 0.000000 0.950379
vn -0.311093 0.000000 0.950379
vn -0.311093 0.000000 0.950379
vn 0.868485 0.022800 -0.495191
vn 0.868485 0.022800 -0.495191
vn 0.868485 0.022800 -0.495191
vn -0.000000 0.036301 -0.999341
vn -0.000000 0.036301 -0.999341
vn -0.000000 0.036301 -0.999341
vn -0.868485 0.022800 -0.495191
vn -0.868485 0.022800 -0.495191
vn -0.868485 0.022800 -0.495191
vn -0.868711 -0.003600 0.495306
vn -0.868711 -0.003600 0.495306
vn -0.868711 -0.003600 0.495306
vn 0.000000 -0.016899 0.999857
vn 0.000000 -0.016899 0.999857
vn 0.000000 -0.016899 0.999857
vn 0.868711 -0.003600 0.495306
vn 0.868711 -0.003600 0.495306
vn 0.868711 -0.003600 0.495306
vn 0.868582 0.015900 0.495290
vn 0.868683 0.008800 0.495290
vn 0.868683 0.008800 0.495290
vn 0.000000 0.008500 0.999964
vn 0.000000 0.008500 0.999964
vn 0.000000 0.008500 0.999964
vn -0.868683 0.008800 0.495290
vn -0.868582 0.015900 0.495290
vn -0.868683 0.008800 0.495290
vn -0.868677 0.009500 -0.495287
vn -0.868714 0.002600 -0.495308
vn -0.868677 0.009500 -0.495287
vn -0.000000 0.010000 -0.999950
vn -0.000000 0.010000 -0.999950
vn -0.000000 0.010000 -0.999950
vn 0.868714 0.002600 -0.495308
vn 0.868677 0.009500 -0.495287
vn 0.868677 0.009500 -0.495287
vn 0.868582 0.015900 0.495290
vn 0.868483 0.022900 0.495190
vn 0.868584 0.015800 0.495291
vn 0.000000 0.036701 0.999326
vn 0.000000 0.036701 0.999326
vn 0.000000 0.036701 0.999326
vn -0.868483 0.022900 0.495190
vn -0.868582 0.015900 0.495290
vn -0.868584 0.015800 0.495291
vn -0.868709 -0.004200 -0.495305
vn -0.868714 0.002600 -0.495308
vn -0.868713 0.002700 -0.495308
vn 0.000000 -0.017901 -0.999840
vn 0.000000 -0.017901 -0.999840
vn 0.000000 -0.017901 -0.999840
vn 0.868714 0.002600 -0.495308
vn 0.868709 -0.004200 -0.495305
vn 0.868713 0.002700 -0.495308
vn -0.235396 -0.829186 0.506991
vn -0.068099 -0.807887 0.585390
vn -0.295802 -0.829807 0.473204
vn -0.235396 -0.829186 -0.506991
vn -0.068099 -0.807887 -0.585390
vn 0.019700 -0.785784 -0.618187
vn 0.142895 -0.981965 0.123796
vn 0.147804 -0.982424 0.114003
vn 0.142505 -0.981932 0.124504
vn 0.142895 -0.981965 -0.123796
vn 0.147804 -0.982424 -0.114003
vn 0.148297 -0.982478 -0.112897
vn -0.001200 -0.981315 0.192403
vn -0.013700 -0.994993 0.098999
vn -0.015200 -0.995969 0.088397
vn -0.001200 -0.981315 -0.192403
vn -0.013700 -0.994993 -0.098999
vn 0.000000 -0.979592 -0.200998
vn 0.178798 -0.983790 0.013700
vn 0.132300 -0.990402 0.040000
vn 0.098102 -0.993420 0.059101
vn 0.178798 -0.983790 -0.013700
vn 0.132300 -0.990402 -0.040000
vn 0.202996 -0.979180 0.000000
vn 0.063401 -0.979010 0.193702
vn 0.062204 -0.979557 0.191311
vn 0.062100 -0.979604 0.191101
vn 0.063401 -0.979010 -0.193702
vn 0.062197 -0.979561 -0.191292
vn 0.063498 -0.978966 -0.193893
vn 0.862670 -0.117696 0.491883
vn 0.862670 -0.117696 0.491883
vn 0.862670 -0.117696 0.491883
vn 0.000000 -0.118704 0.992930
vn 0.000000 -0.118704 0.992930
vn 0.000000 -0.118704 0.992930
vn -0.862670 -0.117696 0.491883
vn -0.862670 -0.117696 0.491883
vn -0.862670 -0.117696 0.491883
vn -0.862670 -0.117696 -0.491883
vn -0.862670 -0.117696 -0.491883
vn -0.862670 -0.117696 -0.491883
vn 0.000000 0.000000 1.000000
vn 0.000000 0.000000 1.000000
vn 0.000000 0.000000 1.000000
vn 0.000000 -0.118704 -0.992930
vn 0.000000 -0.118704 -0.992930
vn 0.000000 -0.118704 -0.992930
vn 0.862670 -0.117696 -0.491883
vn 0.862670 -0.117696 -0.491883
vn 0.862670 -0.117696 -0.491883
vn 0.000000 -1.000000 0.000000
vn 0.000000 -1.000000 0.000000
vn 0.000000 -1.000000 0.000000
vn 0.000000 -1.000000 0.000000
vn 0.000000 -1.000000 0.000000
vn 0.000000 -1.000000 0.000000
vn 0.000000 -1.000000 0.000000
vn 0.000000 -1.000000 0.000000
vn 0.000000 -1.000000 0.000000
vn 0.187801 0.894004 -0.406802
vn 0.255111 0.935040 -0.246210
vn 0.232702 0.924208 -0.302803
vn 0.091099 -0.919788 0.381695
vn 0.702404 -0.618304 0.352602
vn 0.578695 -0.723594 0.376197
vn 0.091099 -0.919788 -0.381695
vn 0.005000 -0.928134 -0.372214
vn 0.578695 -0.723594 -0.376197
vn 0.000000 0.000000 -1.000000
vn 0.000000 0.000000 -1.000000
vn 0.000000 0.000000 -1.000000
vn 0.222912 0.855248 -0.467826
vn 0.243507 0.861524 -0.445512
vn 0.230804 0.857715 -0.459408
vn 0.222912 0.855248 0.467826
vn 0.206998 0.849893 0.484596
vn 0.230804 0.857715 0.459408
vn 0.857715 0.230804 -0.459408
vn 0.861524 0.243507 -0.445512
vn 0.855248 0.222912 -0.467826
vn 0.000000 0.000000 -1.000000
vn 0.000000 0.000000 -1.000000
vn 0.000000 0.000000 -1.000000
vn -0.723636 0.578629 -0.376219
vn -0.928134 0.005000 -0.372214
vn -0.919788 0.091099 -0.381695
vn -0.723636 0.578629 0.376219
vn -0.618304 0.702404 0.352602
vn -0.919788 0.091099 0.381695
vn 0.000000 0.000000 1.000000
vn 0.000000 0.000000 1.000000
vn 0.000000 0.000000 1.000000
vn 0.857715 0.230804 0.459408
vn 0.849893 0.206998 0.484596
vn 0.855248 0.222912 0.467826
vn 0.014100 0.961425 0.274707
vn 0.036800 0.951095 0.306698
vn 0.022901 0.957625 0.287107
vn 0.311093 -0.000000 0.950379
vn 0.311093 -0.000000 0.950379
vn 0.311093 -0.000000 0.950379
vn 0.311093 0.000000 -0.950379
vn 0.311093 0.000000 -0.950379
vn 0.311093 0.000000 -0.950379
vn 0.187801 0.894004 0.406802
vn 0.148101 0.859105 0.489903
vn 0.232702 0.924208 0.302803
vn -0.311093 0.000000 -0.950379
vn -0.311093 0.000000 -0.950379
vn -0.311093 0.000000 -0.950379
vn 0.014100 0.961425 -0.274707
vn -0.000000 0.967019 -0.254705
vn 0.022901 0.957625 -0.287107
vn 0.000000 0.000000 1.000000
vn 0.000000 0.000000 1.000000
vn 0.000000 0.000000 1.000000
vn 0.000000 0.000000 -1.000000
vn 0.000000 0.000000 -1.000000
vn 0.000000 0.000000 -1.000000
vn -1.000000 0.000000 0.000000
vn -1.000000 0.000000 0.000000
vn -1.000000 0.000000 0.000000
vn -1.000000 0.000000 0.000000
vn -1.000000 0.000000 0.000000
vn -1.000000 0.000000 0.000000
vn -1.000000 0.000000 0.000000
vn -1.000000 0.000000 0.000000
vn -1.000000 0.000000 0.000000
vn -0.122706 0.961647 0.245312
vn -0.206605 0.978424 -0.000000
vn -0.171994 0.979368 0.106097
vn -0.122706 0.961647 -0.245312
vn -0.099996 0.946963 -0.305388
vn -0.171994 0.979368 -0.106097
vn -0.311093 0.000000 0.950379
vn -0.311093 0.000000 0.950379
vn -0.311093 0.000000 0.950379
vn 0.868485 0.022800 -0.495191
vn 0.868485 0.022800 -0.495191
vn 0.868485 0.022800 -0.495191
vn -0.000000 0.036301 -0.999341
vn -0.000000 0.036301 -0.999341
vn -0.000000 0.036301 -0.999341
vn -0.868485 0.022800 -0.495191
vn -0.868485 0.022800 -0.495191
vn -0.868485 0.022800 -0.495191
vn -0.868711 -0.003600 0.495306
vn -0.868711 -0.003600 0.495306
vn -0.868711 -0.003600 0.495306
vn 0.000000 -0.016899 0.999857
vn 0.000000 -0.016899 0.999857
vn 0.000000 -0.016899 0.999857
vn 0.868711 -0.003600 0.495306
vn 0.868711 -0.003600 0.495306
vn 0.868711 -0.003600 0.495306
vn 0.868582 0.015900 0.495290
vn 0.868584 0.015800 0.495291
vn 0.868683 0.008800 0.495290
vn 0.000000 0.008500 0.999964
vn 0.000000 0.008500 0.999964
vn 0.000000 0.008500 0.999964
vn -0.868683 0.008800 0.495290
vn -0.868584 0.015800 0.495291
vn -0.868582 0.015900 0.495290
vn -0.868677 0.009500 -0.495287
vn -0.868713 0.002700 -0.495308
vn -0.868714 0.002600 -0.495308
vn -0.000000 0.010000 -0.999950
vn -0.000000 0.010000 -0.999950
vn -0.000000 0.010000 -0.999950
vn 0.868714 0.002600 -0.495308
vn 0.868713 0.002700 -0.495308
vn 0.868677 0.009500 -0.495287
vn 0.868582 0.015900 0.495290
vn 0.868483 0.022900 0.495190
vn 0.868483 0.022900 0.495190
vn 0.000000 0.036701 0.999326
vn 0.000000 0.036701 0.999326
vn 0.000000 0.036701 0.999326
vn -0.868483 0.022900 0.495190
vn -0.868483 0.022900 0.495190
vn -0.868582 0.015900 0.495290
vn -0.868709 -0.004200 -0.495305
vn -0.868709 -0.004200 -0.495305
vn -0.868714 0.002600 -0.495308
vn 0.000000 -0.017901 -0.999840
vn 0.000000 -0.017901 -0.999840
vn 0.000000 -0.017901 -0.999840
vn 0.868714 0.002600 -0.495308
vn 0.868709 -0.004200 -0.495305
vn 0.868709 -0.004200 -0.495305
vn -0.235396 -0.829186 0.506991
vn 0.019700 -0.785784 0.618187
vn -0.068099 -0.807887 0.585390
vn -0.235396 -0.829186 -0.506991
vn -0.295802 -0.829807 -0.473204
vn -0.068099 -0.807887 -0.585390
vn 0.142895 -0.981965 0.123796
vn 0.148297 -0.982478 0.112897
vn 0.147804 -0.982424 0.114003
vn 0.142895 -0.981965 -0.123796
vn 0.142505 -0.981932 -0.124504
vn 0.147804 -0.982424 -0.114003
vn -0.001200 -0.981315 0.192403
vn 0.000000 -0.979592 0.200998
vn -0.013700 -0.994993 0.098999
vn -0.001200 -0.981315 -0.192403
vn -0.015200 -0.995969 -0.088397
vn -0.013700 -0.994993 -0.098999
vn 0.178798 -0.983790 0.013700
vn 0.202996 -0.979180 0.000000
vn 0.132300 -0.990402 0.040000
vn 0.178798 -0.983790 -0.013700
vn 0.098102 -0.993420 -0.059101
vn 0.132300 -0.990402 -0.040000
vn 0.063401 -0.979010 0.193702
vn 0.063498 -0.978966 0.193893
vn 0.062204 -0.979557 0.191311
vn 0.063401 -0.979010 -0.193702
vn 0.062100 -0.979604 -0.191101
vn 0.062197 -0.979561 -0.191292
s off
g LamparaModerna:mesh_lightpost_mat_house_frame
usemtl LamparaModerna:mat_house_frame
f 2/1/1 44/2/2 43/3/3
f 4/4/4 45/5/5 44/2/6
f 45/5/7 8/6/8 46/7/9
f 8/6/10 47/8/11 46/7/12
f 14/9/13 23/10/14 24/11/15
f 10/12/16 48/13/17 47/8/18
f 48/13/19 2/14/20 43/15/21
f 3/16/22 7/17/23 11/18/24
f 18/19/25 26/20/26 13/65/27
f 62/21/28 22/22/29 23/10/30
f 63/23/31 22/22/32 61/24/33
f 18/19/34 21/25/35 63/23/36
f 13/65/37 20/26/38 18/19/39
f 13/65/40 24/11/41 19/27/42
f 20/26/43 2/14/44 12/28/45
f 21/25/46 12/28/47 10/12/48
f 22/22/49 10/12/50 8/6/51
f 22/22/52 6/29/53 23/10/54
f 23/10/55 4/4/56 24/11/57
f 24/11/58 2/1/59 19/27/60
f 26/20/61 31/66/62 25/67/63
f 14/9/64 65/68/65 62/21/66
f 63/23/67 30/69/68 18/19/69
f 14/9/70 26/20/71 25/67/72
f 35/70/73 42/71/74 36/72/75
f 26/20/76 36/72/77 32/73/78
f 25/67/79 67/74/80 65/68/81
f 29/75/82 36/72/83 30/69/84
f 38/76/85 70/77/86 68/78/87
f 32/73/88 37/79/89 31/66/90
f 32/73/91 42/71/92 38/76/93
f 31/66/94 69/80/95 67/74/96
f 48/13/97 55/30/98 60/31/99
f 47/8/100 60/31/101 59/32/102
f 58/33/103 47/8/104 59/32/105
f 57/34/106 46/7/107 58/33/108
f 44/2/109 57/34/110 56/35/111
f 43/3/112 56/35/113 55/36/114
f 54/37/115 3/38/116 1/39/117
f 49/40/118 5/41/119 3/38/120
f 5/41/121 51/42/122 7/43/123
f 7/43/124 52/44/125 9/45/126
f 52/44/127 11/46/128 9/45/129
f 53/47/130 1/48/131 11/46/132
f 54/37/133 56/35/134 49/40/135
f 56/35/136 50/49/137 49/40/138
f 57/34/139 51/42/140 50/49/141
f 58/33/142 52/44/143 51/42/144
f 59/32/145 53/47/146 52/44/147
f 53/47/148 55/30/149 54/50/150
f 15/51/151 61/24/152 62/21/153
f 17/52/154 61/24/155 16/53/156
f 17/52/157 29/75/158 63/23/159
f 15/51/160 65/68/161 27/54/162
f 66/55/163 29/75/164 64/56/165
f 33/57/166 65/68/167 67/74/168
f 39/58/169 68/78/170 40/59/171
f 41/60/172 68/78/173 70/77/174
f 41/60/175 35/70/176 66/55/177
f 39/58/178 67/74/179 69/80/180
f 2/1/181 4/4/182 44/2/183
f 4/4/184 6/29/185 45/5/186
f 45/5/187 6/29/188 8/6/189
f 8/6/190 10/12/191 47/8/192
f 14/9/193 62/21/194 23/10/195
f 10/12/196 12/28/197 48/13/198
f 48/13/199 12/28/200 2/14/201
f 11/18/202 1/61/203 3/16/204
f 3/16/205 5/62/206 7/17/207
f 7/17/208 9/63/209 11/18/210
f 18/19/211 30/69/212 26/20/213
f 62/21/214 61/24/215 22/22/216
f 63/23/217 21/25/218 22/22/219
f 18/19/220 20/26/221 21/25/222
f 13/65/223 19/64/224 20/26/225
f 13/65/226 14/9/227 24/11/228
f 20/26/229 19/64/230 2/14/231
f 21/25/232 20/26/233 12/28/234
f 22/22/235 21/25/236 10/12/237
f 22/22/238 8/6/239 6/29/240
f 23/10/241 6/29/242 4/4/243
f 24/11/244 4/4/245 2/1/246
f 26/20/247 32/73/248 31/66/249
f 14/9/250 25/67/251 65/68/252
f 63/23/253 29/75/254 30/69/255
f 14/9/256 13/65/257 26/20/258
f 35/70/259 70/77/260 42/71/261
f 26/20/262 30/69/263 36/72/264
f 25/67/265 31/66/266 67/74/267
f 29/75/268 35/70/269 36/72/270
f 69/80/271 37/79/272 38/76/273
f 38/76/274 42/71/275 70/77/276
f 68/78/277 69/80/278 38/76/279
f 32/73/280 38/76/281 37/79/282
f 32/73/283 36/72/284 42/71/285
f 31/66/286 37/79/287 69/80/288
f 48/13/289 43/15/290 55/30/291
f 47/8/292 48/13/293 60/31/294
f 58/33/295 46/7/296 47/8/297
f 57/34/298 45/5/299 46/7/300
f 44/2/301 45/5/302 57/34/303
f 43/3/304 44/2/305 56/35/306
f 54/37/307 49/40/308 3/38/309
f 49/40/310 50/49/311 5/41/312
f 5/41/313 50/49/314 51/42/315
f 7/43/316 51/42/317 52/44/318
f 52/44/319 53/47/320 11/46/321
f 53/47/322 54/50/323 1/48/324
f 54/37/325 55/36/326 56/35/327
f 56/35/328 57/34/329 50/49/330
f 57/34/331 58/33/332 51/42/333
f 58/33/334 59/32/335 52/44/336
f 59/32/337 60/31/338 53/47/339
f 53/47/340 60/31/341 55/30/342
f 15/51/343 16/53/344 61/24/345
f 17/52/346 63/23/347 61/24/348
f 17/52/349 64/56/350 29/75/351
f 15/51/352 62/21/353 65/68/354
f 66/55/355 35/70/356 29/75/357
f 33/57/358 27/54/359 65/68/360
f 39/58/361 69/80/362 68/78/363
f 41/60/364 40/59/365 68/78/366
f 41/60/367 70/77/368 35/70/369
f 39/58/370 33/57/371 67/74/372
g default
v -1.316148 35.656441 -0.613674
v -3.608000 35.573551 -0.000002
v -3.662505 35.213974 -1.381984
v -1.316148 35.656441 0.613673
v -1.312815 35.173744 -0.000002
v -6.193820 35.251740 -1.390532
v -6.193820 35.251740 1.390526
v -6.248001 35.573551 -0.000002
v -8.548388 35.252800 0.619938
v -8.544782 35.216305 -0.000002
v -8.548388 35.252800 -0.619941
v -3.662505 35.213974 1.381979
vt 0.115488 0.087660
vt 0.250000 0.010000
vt 0.082604 0.106646
vt 0.384512 0.087661
vt 0.250465 0.009732
vt 0.083898 0.105899
vt 0.416102 0.105899
vt 0.382906 0.086734
vt 0.249500 0.010289
vt 0.117094 0.086733
vt 0.417396 0.106646
vt 0.250000 0.010000
vn 0.100938 -0.963797 0.246794
vn 0.100938 -0.963797 0.246794
vn 0.100938 -0.963797 0.246794
vn -0.070000 -0.920006 0.385602
vn 0.058502 -0.994738 -0.084103
vn -0.135695 -0.779070 0.612076
vn -0.010300 -0.969844 0.243511
vn -0.004800 -0.972246 0.233911
vn -0.015300 -0.967526 0.252307
vn -0.010300 -0.969844 -0.243511
vn -0.004800 -0.972246 -0.233911
vn 0.000000 -0.974241 -0.225509
vn 0.087698 -0.979474 -0.181495
vn 0.130006 -0.991044 -0.030501
vn 0.153400 -0.986401 0.059000
vn 0.087698 -0.979474 0.181495
vn 0.130006 -0.991044 0.030501
vn 0.074003 -0.970937 0.227609
vn -0.070000 -0.920006 -0.385602
vn -0.135695 -0.779070 -0.612076
vn 0.058502 -0.994738 0.084103
vn -0.070000 -0.920006 0.385602
vn 0.100900 -0.963799 -0.246800
vn 0.058502 -0.994738 -0.084103
vn -0.010300 -0.969844 0.243511
vn 0.000000 -0.974241 0.225509
vn -0.004800 -0.972246 0.233911
vn -0.010300 -0.969844 -0.243511
vn -0.015300 -0.967526 -0.252307
vn -0.004800 -0.972246 -0.233911
vn 0.087698 -0.979474 -0.181495
vn 0.074003 -0.970937 -0.227609
vn 0.130006 -0.991044 -0.030501
vn 0.087698 -0.979474 0.181495
vn 0.153400 -0.986401 -0.059000
vn 0.130006 -0.991044 0.030501
s off
g LamparaModerna:mesh_lightpost_mat_lightpost_glow
usemtl LamparaModerna:mat_lightpost_glow
f 71/81/373 72/82/374 73/83/375
f 74/84/376 72/82/377 75/85/378
f 72/82/379 76/86/380 73/83/381
f 72/82/382 77/87/383 78/92/384
f 78/92/385 79/88/386 80/89/387
f 78/92/388 81/90/389 76/86/390
f 71/81/391 75/85/392 72/82/393
f 74/84/394 82/91/395 72/82/396
f 72/82/397 78/92/398 76/86/399
f 72/82/400 82/91/401 77/87/402
f 78/92/403 77/87/404 79/88/405
f 78/92/406 80/89/407 81/90/408
