# This file uses centimeters as units for non-parametric coordinates.

mtllib bolardocar.mtl
g default
v 0.208536 1.272509 -4.676563
v -0.553742 1.272509 -4.676563
v -1.075147 0.661629 -5.673133
v 0.729941 0.661629 -5.673133
v 0.208536 1.272509 4.676563
v -0.553742 1.272509 4.676563
v -1.075147 0.661629 5.673133
v 0.729941 0.661629 5.673133
v -0.172603 0.661629 -5.673133
v -0.172603 0.661629 5.673133
vt 0.578125 0.020934
vt 0.421875 0.020934
vt 0.343750 0.156250
vt 0.656250 0.156250
vt 0.375000 0.312500
vt 0.416667 0.312500
vt 0.458333 0.312500
vt 0.583333 0.312500
vt 0.625000 0.312500
vt 0.375000 0.687500
vt 0.416667 0.687500
vt 0.458333 0.687500
vt 0.583333 0.687500
vt 0.625000 0.687500
vt 0.343750 0.843750
vt 0.421875 0.979066
vt 0.578125 0.979066
vt 0.656250 0.843750
vt 0.500000 0.156250
vt 0.500000 0.843750
vn 0.000000 1.000000 0.000000
vn 0.000000 1.000000 0.000000
vn 0.000000 1.000000 0.000000
vn 0.000000 1.000000 0.000000
vn -0.760612 0.649206 0.000000
vn -0.760612 0.649206 0.000000
vn -0.760612 0.649206 0.000000
vn -0.760612 0.649206 0.000000
vn 0.760613 0.649206 0.000000
vn 0.760613 0.649206 0.000000
vn 0.760613 0.649206 0.000000
vn 0.760613 0.649206 0.000000
vn 0.000000 0.852571 -0.522612
vn 0.000000 0.852571 -0.522612
vn 0.000000 0.852571 -0.522612
vn 0.000000 0.852571 -0.522611
vn 0.000000 0.852571 -0.522611
vn 0.000000 0.852571 0.522612
vn 0.000000 0.852571 0.522612
vn 0.000000 0.852571 0.522612
vn 0.000000 0.852571 0.522611
vn 0.000000 0.852571 0.522611
vn -0.000000 -1.000000 0.000000
vn -0.000000 -1.000000 0.000000
vn -0.000000 -1.000000 0.000000
vn -0.000000 -1.000000 0.000000
vn -0.000000 -1.000000 0.000000
vn -0.000000 -1.000000 0.000000
s off
g pPrism1
usemtl initialShadingGroup
f 1/5/1 2/6/2 6/11/3 5/10/4
f 2/6/5 3/7/6 7/12/7 6/11/8
f 4/8/9 1/9/10 5/14/11 8/13/12
s 1
f 2/2/13 1/1/14 9/19/15
f 3/3/16 2/2/13 9/19/15
f 1/1/14 4/4/17 9/19/15
s 2
f 5/17/18 6/16/19 10/20/20
f 6/16/19 7/15/21 10/20/20
f 8/18/22 5/17/18 10/20/20
s off
f 7/12/23 3/3/24 9/19/25 4/8/26 8/18/27 10/20/28
