# This file uses centimeters as units for non-parametric coordinates.

mtllib BotedeReciclaje.mtl
g default
v 11.053458 -0.866423 -2.618176
v 11.253459 -0.866423 -2.618176
v 11.253459 -0.866423 -2.418176
v 11.053458 -0.866423 -2.418176
v 10.518872 -0.008684 -3.901067
v 11.798872 -0.008684 -3.901067
v 11.798872 -0.008684 -2.621067
v 10.518872 -0.008684 -2.621067
v 10.552034 0.041952 -3.828217
v 10.552034 0.041952 -2.628027
v 11.759679 0.041952 -2.628027
v 11.759679 0.041952 -3.828217
v 10.518872 2.176369 -3.901067
v 11.798872 2.176369 -3.901067
v 10.518872 2.176369 -2.621067
v 10.552034 2.176369 -3.828217
v 10.552034 2.176369 -2.628027
v 11.759679 2.176369 -3.828217
v 11.263984 2.527488 -2.618176
v 11.063984 2.527488 -2.618176
v 11.253459 2.623616 -2.418176
v 11.053458 2.623616 -2.418176
v 11.798872 2.176369 -2.621067
v 11.759679 2.176369 -2.628027
v 10.529398 2.620605 -3.897801
v 11.809397 2.620605 -3.897801
v 11.809397 2.527488 -3.897801
v 10.529398 2.527488 -3.897801
v 10.529398 2.620605 -2.617801
v 10.529398 2.527488 -2.617801
v 10.562560 2.527488 -2.660213
v 10.562560 2.527488 -3.860402
v 10.562560 2.618448 -3.860402
v 10.562560 2.618448 -2.660213
v 11.770205 2.527488 -3.860402
v 11.770205 2.618448 -3.860402
v 11.770205 2.618448 -2.660213
v 11.063984 2.527488 -2.617801
v 11.063984 2.620605 -2.617801
v 11.770205 2.527488 -2.660213
v 11.809397 2.620605 -2.617801
v 11.809397 2.527488 -2.617801
v 11.053458 2.623616 -2.618176
v 11.253459 2.623616 -2.618176
v 11.263984 2.620605 -2.618176
v 11.063984 2.620605 -2.618176
v 11.263984 2.527488 -2.617801
v 11.263984 2.620605 -2.617801
vt 0.375000 0.750000
vt 0.625000 0.750000
vt 0.625000 1.000000
vt 0.375000 1.000000
vt 0.375000 0.750000
vt 0.625000 0.750000
vt 0.625000 1.000000
vt 0.375000 1.000000
vt 0.375000 0.750000
vt 0.375000 1.000000
vt 0.625000 1.000000
vt 0.625000 0.750000
vt 0.375000 0.500000
vt 0.625000 0.500000
vt 0.125000 0.000000
vt 0.375000 0.000000
vt 0.375000 0.250000
vt 0.125000 0.250000
vt 0.125000 0.227648
vt 0.375000 0.227648
vt 0.375000 0.000000
vt 0.125000 0.000000
vt 0.625000 0.522352
vt 0.375000 0.522352
vt 0.625000 0.506886
vt 0.375000 0.506886
vt 0.375000 0.000000
vt 0.625000 0.000000
vt 0.625000 0.250000
vt 0.375000 0.250000
vt 0.625000 0.000000
vt 0.875000 0.000000
vt 0.875000 0.250000
vt 0.625000 0.250000
vt 0.625000 0.227648
vt 0.625000 0.000000
vt 0.875000 0.227648
vt 0.875000 0.000000
vt 0.375000 0.000000
vt 0.625000 0.000000
vt 0.625000 0.250000
vt 0.375000 0.250000
vt 0.125000 0.000000
vt 0.125000 0.250000
vt 0.125000 0.227648
vt 0.375000 0.227648
vt 0.375000 0.000000
vt 0.125000 0.000000
vt 0.625000 0.227648
vt 0.625000 0.000000
vt 0.375000 0.750000
vt 0.375000 1.000000
vt 0.625000 1.000000
vt 0.625000 0.750000
vt 0.375000 0.500000
vt 0.479411 0.500000
vt 0.479411 0.750000
vt 0.375000 0.750000
vt 0.625000 0.522352
vt 0.375000 0.522352
vt 0.875000 0.227648
vt 0.875000 0.000000
vt 0.875000 0.000000
vt 0.875000 0.250000
vt 0.375000 0.500000
vt 0.625000 0.500000
vt 0.625000 0.500216
vt 0.375000 0.500216
vt 0.518474 0.500000
vt 0.625000 0.500000
vt 0.625000 0.750000
vt 0.518474 0.750000
vt 0.617345 0.257304
vt 0.381477 0.257304
vt 0.381477 0.491716
vt 0.617345 0.251359
vt 0.381477 0.251359
vt 0.381477 0.485771
vt 0.617345 0.485771
vt 0.125000 0.000000
vt 0.125000 0.250000
vt 0.125000 0.249784
vt 0.125469 0.249784
vt 0.125469 0.243114
vt 0.125000 0.243114
vt 0.875000 0.000000
vt 0.875000 0.243114
vt 0.874531 0.243114
vt 0.874531 0.249784
vt 0.875000 0.249784
vt 0.875000 0.250000
vt 0.479411 0.750073
vt 0.518474 0.750073
vt 0.625000 1.000000
vt 0.375000 1.000000
vt 0.518474 0.499927
vt 0.479411 0.499927
vt 0.617345 0.491716
vt 0.065408 1.056270
vt 0.934590 1.056270
vt 0.934590 -0.056270
vt 0.065408 -0.056270
vn 0.000000 -1.000000 0.000000
vn 0.000000 -1.000000 0.000000
vn 0.000000 -1.000000 0.000000
vn 0.000000 -1.000000 0.000000
vn 0.000000 -1.000000 0.000000
vn 0.000000 -1.000000 0.000000
vn 0.000000 -1.000000 0.000000
vn 0.000000 -1.000000 0.000000
vn 0.000000 1.000000 0.000000
vn 0.000000 1.000000 0.000000
vn 0.000000 1.000000 0.000000
vn 0.000000 1.000000 0.000000
vn 0.000000 0.000000 -1.000000
vn 0.000000 0.000000 -1.000000
vn 0.000000 0.000000 -1.000000
vn 0.000000 0.000000 -1.000000
vn -1.000000 0.000000 0.000000
vn -1.000000 0.000000 0.000000
vn -1.000000 0.000000 0.000000
vn -1.000000 0.000000 0.000000
vn 1.000000 0.000000 0.000000
vn 1.000000 0.000000 0.000000
vn 1.000000 0.000000 0.000000
vn 1.000000 0.000000 0.000000
vn 0.000000 0.000000 1.000000
vn 0.000000 0.000000 1.000000
vn 0.000000 0.000000 1.000000
vn 0.000000 0.000000 1.000000
vn 0.000000 0.000000 -1.000000
vn 0.000000 0.000000 -1.000000
vn 0.000000 0.000000 -1.000000
vn 0.000000 0.000000 -1.000000
vn 0.000000 0.000000 1.000000
vn 0.000000 0.000000 1.000000
vn 0.000000 0.000000 1.000000
vn 0.000000 0.000000 1.000000
vn 1.000000 0.000000 0.000000
vn 1.000000 0.000000 0.000000
vn 1.000000 0.000000 0.000000
vn 1.000000 0.000000 0.000000
vn 0.000000 0.000000 1.000000
vn 0.000000 0.000000 1.000000
vn 0.000000 0.000000 1.000000
vn 0.000000 0.000000 1.000000
vn 0.000000 0.000000 -1.000000
vn 0.000000 0.000000 -1.000000
vn 0.000000 0.000000 -1.000000
vn 0.000000 0.000000 -1.000000
vn -1.000000 0.000000 0.000000
vn -1.000000 0.000000 0.000000
vn -1.000000 0.000000 0.000000
vn -1.000000 0.000000 0.000000
vn 0.000000 0.000000 -1.000000
vn 0.000000 0.000000 -1.000000
vn 0.000000 0.000000 -1.000000
vn 0.000000 0.000000 -1.000000
vn -1.000000 0.000000 0.000000
vn -1.000000 0.000000 0.000000
vn -1.000000 0.000000 0.000000
vn -1.000000 0.000000 0.000000
vn 1.000000 0.000000 0.000000
vn 1.000000 0.000000 0.000000
vn 1.000000 0.000000 0.000000
vn 1.000000 0.000000 0.000000
vn 0.000000 0.000000 1.000000
vn 0.000000 0.000000 1.000000
vn 0.000000 0.000000 1.000000
vn 0.000000 0.000000 1.000000
vn 0.000000 -1.000000 0.000000
vn 0.000000 -1.000000 0.000000
vn 0.000000 -1.000000 0.000000
vn 0.000000 -1.000000 0.000000
vn 0.000000 0.000000 1.000000
vn 0.000000 0.000000 1.000000
vn 0.000000 0.000000 1.000000
vn 0.000000 0.000000 1.000000
vn 0.000000 0.000000 -1.000000
vn 0.000000 0.000000 -1.000000
vn 0.000000 0.000000 -1.000000
vn 0.000000 0.000000 -1.000000
vn -1.000000 0.000000 0.000000
vn -1.000000 0.000000 0.000000
vn -1.000000 0.000000 0.000000
vn -1.000000 0.000000 0.000000
vn 1.000000 0.000000 0.000000
vn 1.000000 0.000000 0.000000
vn 1.000000 0.000000 0.000000
vn 1.000000 0.000000 0.000000
vn 0.000000 0.000000 -1.000000
vn 0.000000 0.000000 -1.000000
vn 0.000000 0.000000 -1.000000
vn 0.000000 0.000000 -1.000000
vn 0.000000 1.000000 0.000000
vn 0.000000 1.000000 0.000000
vn 0.000000 1.000000 0.000000
vn 0.000000 1.000000 0.000000
vn 0.000000 0.000000 1.000000
vn 0.000000 0.000000 1.000000
vn 0.000000 0.000000 1.000000
vn 0.000000 0.000000 1.000000
vn 0.000000 -1.000000 0.000001
vn 0.000000 -1.000000 0.000000
vn 0.000000 -1.000000 0.000000
vn 0.000000 -1.000000 0.000001
vn 0.000000 -1.000000 0.000000
vn 0.000000 -1.000000 0.000000
vn 0.000000 1.000000 0.000002
vn 0.000000 1.000000 0.000000
vn 0.000000 1.000000 0.000001
vn 0.000000 1.000000 0.000002
vn 0.000000 1.000000 0.000001
vn 0.000000 1.000000 0.000000
vn 0.000000 1.000000 0.000000
vn 0.000000 1.000000 0.000000
vn 0.000000 1.000000 0.000000
vn 0.000000 1.000000 0.000001
vn 0.000000 1.000000 0.000000
vn 0.000000 1.000000 0.000001
vn -1.000000 0.000000 0.000000
vn -1.000000 0.000000 0.000000
vn -1.000000 0.000000 0.000000
vn -1.000000 0.000000 0.000000
vn -1.000000 0.000000 0.000000
vn -1.000000 0.000000 0.000000
vn -1.000000 0.000000 0.000000
vn -1.000000 0.000000 0.000000
vn 1.000000 0.000000 0.000000
vn 1.000000 0.000000 0.000000
vn 1.000000 0.000000 0.000000
vn 1.000000 0.000000 0.000000
vn 1.000000 0.000000 0.000000
vn 1.000000 0.000000 0.000000
vn 1.000000 0.000000 0.000000
vn 1.000000 0.000000 0.000000
vn 0.000000 1.000000 0.000000
vn 0.000000 1.000000 0.000000
vn 0.000000 1.000000 0.000000
vn 0.000000 1.000000 0.000000
vn 0.000000 1.000000 0.000000
vn 0.000000 1.000000 0.000000
vn 0.000000 1.000000 0.000000
vn 0.000000 1.000000 0.000000
vn 0.000000 -1.000000 0.000000
vn 0.000000 -1.000000 -0.000001
vn 0.000000 -1.000000 -0.000001
vn 0.000000 -1.000000 -0.000001
vn 0.000000 -1.000000 -0.000001
vn 0.000000 -1.000000 -0.000001
vn 0.000000 -1.000000 0.000000
vn 0.000000 -1.000000 0.000000
vn 0.000000 -1.000000 -0.000001
vn 0.000000 -1.000000 0.000000
s off
g BotedeReciclaje:polySurface144
usemtl lambert9SG
f 1/1/1 2/2/2 3/3/3 4/4/4
f 5/5/5 6/6/6 7/7/7 8/8/8
f 9/9/9 10/10/10 11/11/11 12/12/12
usemtl lambert10SG
f 13/99/13 14/100/14 6/101/15 5/102/16
usemtl lambert9SG
f 5/15/17 8/16/18 15/17/19 13/18/20
f 16/19/21 17/20/22 10/21/23 9/22/24
f 18/23/25 16/24/26 9/9/27 12/12/28
f 19/25/29 2/2/30 1/1/31 20/26/32
f 4/27/33 3/28/34 21/29/35 22/30/36
f 7/31/37 6/32/38 14/33/39 23/34/40
f 8/16/41 7/31/42 23/34/43 15/17/44
f 17/20/45 24/35/46 11/36/47 10/21/48
f 24/35/49 18/37/50 12/38/51 11/36/52
f 25/39/53 26/40/54 27/41/55 28/42/56
f 29/43/57 25/39/58 28/42/59 30/44/60
f 31/45/61 32/46/62 33/47/63 34/48/64
f 32/46/65 35/49/66 36/50/67 33/47/68
f 34/51/69 33/52/70 36/53/71 37/54/72
f 30/55/73 38/56/74 39/57/75 29/58/76
f 40/59/77 31/60/78 34/51/79 37/54/80
f 35/49/81 40/61/82 37/62/83 36/50/84
f 26/40/85 41/63/86 42/64/87 27/41/88
f 43/65/89 44/66/90 45/67/91 46/68/92
f 22/30/93 21/29/94 44/66/95 43/65/96
f 47/69/97 42/70/98 41/71/99 48/72/100
f 28/42/101 27/41/102 35/73/103 32/74/104 31/75/105 30/55/106
f 15/17/107 23/34/108 24/76/109 17/77/110 16/78/111 13/13/112
f 23/34/113 14/14/114 13/13/115 16/78/116 18/79/117 24/76/118
f 1/80/119 4/27/120 22/30/121 43/81/122 46/82/123 39/83/124 38/84/125 20/85/126
f 3/28/127 2/86/128 19/87/129 47/88/130 48/89/131 45/90/132 44/91/133 21/29/134
f 29/58/135 39/57/136 46/92/137 45/93/138 48/72/139 41/71/140 26/94/141 25/95/142
f 27/41/143 42/70/144 47/69/145 19/96/146 20/97/147 38/56/148 30/55/149 31/75/150 40/98/151 35/73/152
