# This file uses centimeters as units for non-parametric coordinates.

mtllib BoteBasura.mtl
g default
v 10.779250 1.000580 -10.104718
v 12.079249 1.000580 -10.104718
v 11.866226 -1.000580 -9.889642
v 11.003229 -1.000580 -9.889642
v 11.003229 -1.000580 -9.041455
v 10.779250 1.000580 -8.804719
v 11.866226 -1.000580 -9.041455
v 11.920798 1.000580 -9.982700
v 10.933588 1.000580 -9.975586
v 10.996889 -0.704068 -9.908401
v 11.885597 -0.704068 -9.908401
v 10.932391 1.000580 -8.928865
v 10.996889 -0.704068 -9.019401
v 11.885597 -0.704068 -9.019401
v 11.918304 1.000580 -8.921174
v 12.079249 1.000580 -8.804719
vt 0.375000 0.500000
vt 0.625000 0.500000
vt 0.625000 0.750000
vt 0.375000 0.750000
vt 0.125000 0.000000
vt 0.375000 0.000000
vt 0.375000 0.250000
vt 0.125000 0.250000
vt 0.625000 1.000000
vt 0.375000 1.000000
vt 0.625000 0.537042
vt 0.375000 0.537042
vt 0.375000 0.750000
vt 0.625000 0.750000
vt 0.125000 0.212957
vt 0.375000 0.212957
vt 0.375000 0.000000
vt 0.125000 0.000000
vt 0.375000 1.000000
vt 0.625000 1.000000
vt 0.625000 0.212957
vt 0.875000 0.212957
vt 0.875000 0.000000
vt 0.625000 0.000000
vt 0.625000 0.000000
vt 0.875000 0.000000
vt 0.875000 0.250000
vt 0.625000 0.250000
vt 0.416854 0.462247
vt 0.587759 0.462247
vt 0.587759 0.291285
vt 0.416854 0.291285
vn 0.000000 -0.106861 -0.994274
vn 0.000000 -0.106861 -0.994274
vn 0.000000 -0.106861 -0.994274
vn 0.000000 -0.106861 -0.994274
vn -0.993795 -0.111231 0.000000
vn -0.993795 -0.111230 0.000000
vn -0.993795 -0.111230 0.000000
vn -0.993795 -0.111230 0.000000
vn 0.000000 -1.000000 0.000000
vn 0.000000 -1.000000 0.000000
vn 0.000000 -1.000000 0.000000
vn 0.000000 -1.000000 0.000000
vn 0.007200 0.039648 0.999188
vn 0.002559 0.042161 0.999108
vn 0.005148 0.040759 0.999156
vn 0.000000 0.043545 0.999051
vn 0.999287 0.037749 0.001143
vn 0.999302 0.037355 0.000440
vn 0.999294 0.037574 0.000829
vn 0.999311 0.037109 0.000000
vn 0.000000 1.000000 0.000000
vn 0.000000 1.000000 0.000000
vn 0.000000 1.000000 0.000000
vn 0.000000 1.000000 0.000000
vn -0.999811 0.019319 -0.002349
vn -0.999805 0.019680 -0.001711
vn -0.999797 0.020125 -0.000922
vn -0.999787 0.020646 0.000000
vn 0.007789 0.053328 -0.998547
vn 0.005568 0.054526 -0.998497
vn 0.002761 0.056040 -0.998425
vn 0.000000 0.057527 -0.998344
vn 0.994382 -0.105853 0.000000
vn 0.994382 -0.105852 0.000000
vn 0.994382 -0.105852 0.000000
vn 0.994382 -0.105851 0.000000
vn 0.000000 -0.117481 0.993075
vn 0.000000 -0.117480 0.993075
vn 0.000000 -0.117481 0.993075
vn 0.000000 -0.117480 0.993075
vn 0.000000 1.000000 -0.000000
vn 0.000000 1.000000 -0.000000
vn 0.000000 1.000000 -0.000000
vn 0.000000 1.000000 -0.000001
vn 0.000000 1.000000 0.000000
vn 0.000000 1.000000 0.000000
vn 0.000000 1.000000 0.000000
vn 0.000000 1.000000 -0.000000
s 1
g polySurface141
usemtl initialShadingGroup
f 1/1/1 2/2/2 4/4/3
f 4/4/3 2/2/2 3/3/4
s 2
f 4/5/5 5/6/6 1/8/7
f 1/8/7 5/6/6 6/7/8
s 3
f 4/4/9 3/3/10 5/10/11
f 5/10/11 3/3/10 7/9/12
s 4
f 9/12/13 10/13/14 8/11/15
f 8/11/15 10/13/14 11/14/16
s 5
f 12/16/17 13/17/18 9/15/19
f 9/15/19 13/17/18 10/18/20
s 6
f 10/13/21 13/19/22 11/14/23
f 11/14/23 13/19/22 14/20/24
s 7
f 15/21/25 8/22/26 14/24/27
f 14/24/27 8/22/26 11/23/28
s 8
f 12/16/29 15/21/30 13/17/31
f 13/17/31 15/21/30 14/24/32
s 9
f 3/26/33 2/27/34 7/25/35
f 7/25/35 2/27/34 16/28/36
s 10
f 7/25/37 16/28/38 5/6/39
f 5/6/39 16/28/38 6/7/40
s 11
f 1/1/41 9/29/42 2/2/43
f 9/29/42 8/30/44 2/2/43
f 2/2/43 8/30/44 16/28/45
f 16/28/45 8/30/44 15/31/46
f 16/28/45 15/31/46 6/7/47
f 15/31/46 12/32/48 6/7/47
f 6/7/47 12/32/48 1/1/41
f 12/32/48 9/29/42 1/1/41
g default
v 10.779250 1.000580 -10.104718
v 12.079249 1.000580 -10.104718
v 11.866226 -1.000580 -9.889642
v 11.003229 -1.000580 -9.889642
v 11.003229 -1.000580 -9.041455
v 10.779250 1.000580 -8.804719
v 11.866226 -1.000580 -9.041455
v 11.920798 1.000580 -9.982700
v 10.933588 1.000580 -9.975586
v 10.996889 -0.704068 -9.908401
v 11.885597 -0.704068 -9.908401
v 10.932391 1.000580 -8.928865
v 10.996889 -0.704068 -9.019401
v 11.885597 -0.704068 -9.019401
v 11.918304 1.000580 -8.921174
v 12.079249 1.000580 -8.804719
vt 0.375000 0.500000
vt 0.625000 0.500000
vt 0.625000 0.750000
vt 0.375000 0.750000
vt 0.125000 0.000000
vt 0.375000 0.000000
vt 0.375000 0.250000
vt 0.125000 0.250000
vt 0.625000 1.000000
vt 0.375000 1.000000
vt 0.625000 0.537042
vt 0.375000 0.537042
vt 0.375000 0.750000
vt 0.625000 0.750000
vt 0.125000 0.212957
vt 0.375000 0.212957
vt 0.375000 0.000000
vt 0.125000 0.000000
vt 0.375000 1.000000
vt 0.625000 1.000000
vt 0.625000 0.212957
vt 0.875000 0.212957
vt 0.875000 0.000000
vt 0.625000 0.000000
vt 0.625000 0.000000
vt 0.875000 0.000000
vt 0.875000 0.250000
vt 0.625000 0.250000
vt 0.416854 0.462247
vt 0.587759 0.462247
vt 0.587759 0.291285
vt 0.416854 0.291285
vn 0.000000 -0.106861 -0.994274
vn 0.000000 -0.106861 -0.994274
vn 0.000000 -0.106861 -0.994274
vn 0.000000 -0.106861 -0.994274
vn -0.993795 -0.111231 0.000000
vn -0.993795 -0.111230 0.000000
vn -0.993795 -0.111230 0.000000
vn -0.993795 -0.111230 0.000000
vn 0.000000 -1.000000 0.000000
vn 0.000000 -1.000000 0.000000
vn 0.000000 -1.000000 0.000000
vn 0.000000 -1.000000 0.000000
vn 0.007200 0.039648 0.999188
vn 0.002559 0.042161 0.999108
vn 0.005148 0.040759 0.999156
vn 0.000000 0.043545 0.999051
vn 0.999287 0.037749 0.001143
vn 0.999302 0.037355 0.000440
vn 0.999294 0.037574 0.000829
vn 0.999311 0.037109 0.000000
vn 0.000000 1.000000 0.000000
vn 0.000000 1.000000 0.000000
vn 0.000000 1.000000 0.000000
vn 0.000000 1.000000 0.000000
vn -0.999811 0.019319 -0.002349
vn -0.999805 0.019680 -0.001711
vn -0.999797 0.020125 -0.000922
vn -0.999787 0.020646 0.000000
vn 0.007789 0.053328 -0.998547
vn 0.005568 0.054526 -0.998497
vn 0.002761 0.056040 -0.998425
vn 0.000000 0.057527 -0.998344
vn 0.994382 -0.105853 0.000000
vn 0.994382 -0.105852 0.000000
vn 0.994382 -0.105852 0.000000
vn 0.994382 -0.105851 0.000000
vn 0.000000 -0.117481 0.993075
vn 0.000000 -0.117480 0.993075
vn 0.000000 -0.117481 0.993075
vn 0.000000 -0.117480 0.993075
vn 0.000000 1.000000 -0.000000
vn 0.000000 1.000000 -0.000000
vn 0.000000 1.000000 -0.000000
vn 0.000000 1.000000 -0.000001
vn 0.000000 1.000000 0.000000
vn 0.000000 1.000000 0.000000
vn 0.000000 1.000000 0.000000
vn 0.000000 1.000000 -0.000000
s 1
g polySurface141
f 17/33/49 18/34/50 20/36/51
f 20/36/51 18/34/50 19/35/52
s 2
f 20/37/53 21/38/54 17/40/55
f 17/40/55 21/38/54 22/39/56
s 3
f 20/36/57 19/35/58 21/42/59
f 21/42/59 19/35/58 23/41/60
s 4
f 25/44/61 26/45/62 24/43/63
f 24/43/63 26/45/62 27/46/64
s 5
f 28/48/65 29/49/66 25/47/67
f 25/47/67 29/49/66 26/50/68
s 6
f 26/45/69 29/51/70 27/46/71
f 27/46/71 29/51/70 30/52/72
s 7
f 31/53/73 24/54/74 30/56/75
f 30/56/75 24/54/74 27/55/76
s 8
f 28/48/77 31/53/78 29/49/79
f 29/49/79 31/53/78 30/56/80
s 9
f 19/58/81 18/59/82 23/57/83
f 23/57/83 18/59/82 32/60/84
s 10
f 23/57/85 32/60/86 21/38/87
f 21/38/87 32/60/86 22/39/88
s 11
f 17/33/89 25/61/90 18/34/91
f 25/61/90 24/62/92 18/34/91
f 18/34/91 24/62/92 32/60/93
f 32/60/93 24/62/92 31/63/94
f 32/60/93 31/63/94 22/39/95
f 31/63/94 28/64/96 22/39/95
f 22/39/95 28/64/96 17/33/89
f 28/64/96 25/61/90 17/33/89
