# This file uses centimeters as units for non-parametric coordinates.

mtllib BotedeReciclaje.mtl
g default
v 10.659888 -0.866423 -2.618176
v 10.859889 -0.866423 -2.618176
v 10.859889 -0.866423 -2.418176
v 10.659888 -0.866423 -2.418176
v 10.125302 -0.008684 -3.901067
v 11.405302 -0.008684 -3.901067
v 11.405302 -0.008684 -2.621067
v 10.125302 -0.008684 -2.621067
v 10.158464 0.041952 -3.828217
v 10.158464 0.041952 -2.628027
v 11.366110 0.041952 -2.628027
v 11.366110 0.041952 -3.828217
v 10.125302 2.176369 -3.901067
v 11.405302 2.176369 -3.901067
v 10.125302 2.176369 -2.621067
v 10.158464 2.176369 -3.828217
v 10.158464 2.176369 -2.628027
v 11.366110 2.176369 -3.828217
v 10.859889 2.527488 -2.618176
v 10.659888 2.527488 -2.618176
v 10.859889 2.623616 -2.418176
v 10.659888 2.623616 -2.418176
v 11.405302 2.176369 -2.621067
v 11.366110 2.176369 -2.628027
v 10.125302 2.620605 -3.897801
v 11.405302 2.620605 -3.897801
v 11.405302 2.527488 -3.897801
v 10.125302 2.527488 -3.897801
v 10.125302 2.620605 -2.617801
v 10.125302 2.527488 -2.617801
v 10.158464 2.527488 -2.660213
v 10.158464 2.527488 -3.860402
v 10.158464 2.618448 -3.860402
v 10.158464 2.618448 -2.660213
v 11.366110 2.527488 -3.860402
v 11.366110 2.618448 -3.860402
v 11.366110 2.618448 -2.660213
v 10.659888 2.527488 -2.617801
v 10.659888 2.620605 -2.617801
v 11.366110 2.527488 -2.660213
v 11.405302 2.620605 -2.617801
v 11.405302 2.527488 -2.617801
v 10.659888 2.623616 -2.618176
v 10.859889 2.623616 -2.618176
v 10.859889 2.620605 -2.618176
v 10.659888 2.620605 -2.618176
v 10.859889 2.527488 -2.617801
v 10.859889 2.620605 -2.617801
vt 0.375000 0.750000
vt 0.625000 0.750000
vt 0.625000 1.000000
vt 0.375000 1.000000
vt 0.375000 0.750000
vt 0.625000 0.750000
vt 0.625000 1.000000
vt 0.375000 1.000000
vt 0.375000 0.750000
vt 0.375000 1.000000
vt 0.625000 1.000000
vt 0.625000 0.750000
vt 0.375000 0.500000
vt 0.625000 0.500000
vt 0.125000 0.000000
vt 0.375000 0.000000
vt 0.375000 0.250000
vt 0.125000 0.250000
vt 0.125000 0.227648
vt 0.375000 0.227648
vt 0.375000 0.000000
vt 0.125000 0.000000
vt 0.625000 0.522352
vt 0.375000 0.522352
vt 0.625000 0.506886
vt 0.375000 0.506886
vt 0.375000 0.000000
vt 0.625000 0.000000
vt 0.625000 0.250000
vt 0.375000 0.250000
vt 0.625000 0.000000
vt 0.875000 0.000000
vt 0.875000 0.250000
vt 0.625000 0.250000
vt 0.625000 0.227648
vt 0.625000 0.000000
vt 0.875000 0.227648
vt 0.875000 0.000000
vt 0.375000 0.000000
vt 0.625000 0.000000
vt 0.625000 0.250000
vt 0.375000 0.250000
vt 0.125000 0.000000
vt 0.125000 0.250000
vt 0.125000 0.227648
vt 0.375000 0.227648
vt 0.375000 0.000000
vt 0.125000 0.000000
vt 0.625000 0.227648
vt 0.625000 0.000000
vt 0.375000 0.750000
vt 0.375000 1.000000
vt 0.625000 1.000000
vt 0.625000 0.750000
vt 0.375000 0.500000
vt 0.479411 0.500000
vt 0.479411 0.750000
vt 0.375000 0.750000
vt 0.625000 0.522352
vt 0.375000 0.522352
vt 0.875000 0.227648
vt 0.875000 0.000000
vt 0.875000 0.000000
vt 0.875000 0.250000
vt 0.375000 0.500000
vt 0.625000 0.500000
vt 0.625000 0.500216
vt 0.375000 0.500216
vt 0.518474 0.500000
vt 0.625000 0.500000
vt 0.625000 0.750000
vt 0.518474 0.750000
vt 0.617345 0.257304
vt 0.381477 0.257304
vt 0.381477 0.491716
vt 0.617345 0.251359
vt 0.381477 0.251359
vt 0.381477 0.485771
vt 0.617345 0.485771
vt 0.125000 0.000000
vt 0.125000 0.250000
vt 0.125000 0.249784
vt 0.125469 0.249784
vt 0.125469 0.243114
vt 0.125000 0.243114
vt 0.875000 0.000000
vt 0.875000 0.243114
vt 0.874531 0.243114
vt 0.874531 0.249784
vt 0.875000 0.249784
vt 0.875000 0.250000
vt 0.479411 0.750073
vt 0.518474 0.750073
vt 0.625000 1.000000
vt 0.375000 1.000000
vt 0.518474 0.499927
vt 0.479411 0.499927
vt 0.617345 0.491716
vn 0.000000 -1.000000 0.000000
vn 0.000000 -1.000000 0.000000
vn 0.000000 -1.000000 0.000000
vn 0.000000 -1.000000 0.000000
vn 0.000000 -1.000000 0.000000
vn 0.000000 -1.000000 0.000000
vn 0.000000 -1.000000 0.000000
vn 0.000000 -1.000000 0.000000
vn 0.000000 1.000000 0.000000
vn 0.000000 1.000000 0.000000
vn 0.000000 1.000000 0.000000
vn 0.000000 1.000000 0.000000
vn 0.000000 0.000000 -1.000000
vn 0.000000 0.000000 -1.000000
vn 0.000000 0.000000 -1.000000
vn 0.000000 0.000000 -1.000000
vn -1.000000 0.000000 0.000000
vn -1.000000 0.000000 0.000000
vn -1.000000 0.000000 0.000000
vn -1.000000 0.000000 0.000000
vn 1.000000 0.000000 0.000000
vn 1.000000 0.000000 0.000000
vn 1.000000 0.000000 0.000000
vn 1.000000 0.000000 0.000000
vn 0.000000 0.000000 1.000000
vn 0.000000 0.000000 1.000000
vn 0.000000 0.000000 1.000000
vn 0.000000 0.000000 1.000000
vn 0.000000 0.000000 -1.000000
vn 0.000000 0.000000 -1.000000
vn 0.000000 0.000000 -1.000000
vn 0.000000 0.000000 -1.000000
vn 0.000000 0.000000 1.000000
vn 0.000000 0.000000 1.000000
vn 0.000000 0.000000 1.000000
vn 0.000000 0.000000 1.000000
vn 1.000000 0.000000 0.000000
vn 1.000000 0.000000 0.000000
vn 1.000000 0.000000 0.000000
vn 1.000000 0.000000 0.000000
vn 0.000000 0.000000 1.000000
vn 0.000000 0.000000 1.000000
vn 0.000000 0.000000 1.000000
vn 0.000000 0.000000 1.000000
vn 0.000000 0.000000 -1.000000
vn 0.000000 0.000000 -1.000000
vn 0.000000 0.000000 -1.000000
vn 0.000000 0.000000 -1.000000
vn -1.000000 0.000000 0.000000
vn -1.000000 0.000000 0.000000
vn -1.000000 0.000000 0.000000
vn -1.000000 0.000000 0.000000
vn 0.000000 0.000000 -1.000000
vn 0.000000 0.000000 -1.000000
vn 0.000000 0.000000 -1.000000
vn 0.000000 0.000000 -1.000000
vn -1.000000 0.000000 0.000000
vn -1.000000 0.000000 0.000000
vn -1.000000 0.000000 0.000000
vn -1.000000 0.000000 0.000000
vn 1.000000 0.000000 0.000000
vn 1.000000 0.000000 0.000000
vn 1.000000 0.000000 0.000000
vn 1.000000 0.000000 0.000000
vn 0.000000 0.000000 1.000000
vn 0.000000 0.000000 1.000000
vn 0.000000 0.000000 1.000000
vn 0.000000 0.000000 1.000000
vn 0.000000 -1.000000 0.000000
vn 0.000000 -1.000000 0.000000
vn 0.000000 -1.000000 0.000000
vn 0.000000 -1.000000 0.000000
vn 0.000000 0.000000 1.000000
vn 0.000000 0.000000 1.000000
vn 0.000000 0.000000 1.000000
vn 0.000000 0.000000 1.000000
vn 0.000000 0.000000 -1.000000
vn 0.000000 0.000000 -1.000000
vn 0.000000 0.000000 -1.000000
vn 0.000000 0.000000 -1.000000
vn -1.000000 0.000000 0.000000
vn -1.000000 0.000000 0.000000
vn -1.000000 0.000000 0.000000
vn -1.000000 0.000000 0.000000
vn 1.000000 0.000000 0.000000
vn 1.000000 0.000000 0.000000
vn 1.000000 0.000000 0.000000
vn 1.000000 0.000000 0.000000
vn 0.000000 0.000000 -1.000000
vn 0.000000 0.000000 -1.000000
vn 0.000000 0.000000 -1.000000
vn 0.000000 0.000000 -1.000000
vn 0.000000 1.000000 0.000000
vn 0.000000 1.000000 0.000000
vn 0.000000 1.000000 0.000000
vn 0.000000 1.000000 0.000000
vn 0.000000 0.000000 1.000000
vn 0.000000 0.000000 1.000000
vn 0.000000 0.000000 1.000000
vn 0.000000 0.000000 1.000000
vn 0.000000 -1.000000 0.000001
vn 0.000000 -1.000000 -0.000000
vn 0.000000 -1.000000 -0.000000
vn 0.000000 -1.000000 0.000001
vn 0.000000 -1.000000 -0.000000
vn 0.000000 -1.000000 -0.000000
vn 0.000000 1.000000 0.000002
vn 0.000000 1.000000 -0.000000
vn 0.000000 1.000000 0.000001
vn 0.000000 1.000000 0.000002
vn 0.000000 1.000000 0.000001
vn 0.000000 1.000000 -0.000000
vn 0.000000 1.000000 -0.000000
vn 0.000000 1.000000 -0.000000
vn -1.000000 0.000000 0.000000
vn -1.000000 0.000000 0.000000
vn -1.000000 0.000000 0.000000
vn -1.000000 0.000000 0.000000
vn -1.000000 0.000000 0.000000
vn -1.000000 0.000000 0.000000
vn -1.000000 0.000000 0.000000
vn -1.000000 0.000000 0.000000
vn 1.000000 0.000000 0.000000
vn 1.000000 0.000000 0.000000
vn 1.000000 0.000000 0.000000
vn 1.000000 0.000000 0.000000
vn 1.000000 0.000000 0.000000
vn 1.000000 0.000000 0.000000
vn 1.000000 0.000000 0.000000
vn 1.000000 0.000000 0.000000
vn 0.000000 1.000000 0.000000
vn 0.000000 1.000000 0.000000
vn 0.000000 1.000000 0.000000
vn 0.000000 1.000000 0.000000
vn 0.000000 1.000000 0.000000
vn 0.000000 1.000000 0.000000
vn 0.000000 1.000000 0.000000
vn 0.000000 1.000000 0.000000
vn 0.000000 -1.000000 -0.000001
vn 0.000000 -1.000000 -0.000001
vn 0.000000 -1.000000 -0.000001
vn 0.000000 -1.000000 -0.000001
vn 0.000000 -1.000000 -0.000001
vn 0.000000 -1.000000 -0.000001
s off
g polySurface144
usemtl initialShadingGroup
f 1/1/1 2/2/2 3/3/3 4/4/4
f 5/5/5 6/6/6 7/7/7 8/8/8
f 9/9/9 10/10/10 11/11/11 12/12/12
f 13/13/13 14/14/14 6/6/15 5/5/16
f 5/15/17 8/16/18 15/17/19 13/18/20
f 16/19/21 17/20/22 10/21/23 9/22/24
f 18/23/25 16/24/26 9/9/27 12/12/28
f 19/25/29 2/2/30 1/1/31 20/26/32
f 4/27/33 3/28/34 21/29/35 22/30/36
f 7/31/37 6/32/38 14/33/39 23/34/40
f 8/16/41 7/31/42 23/34/43 15/17/44
f 17/20/45 24/35/46 11/36/47 10/21/48
f 24/35/49 18/37/50 12/38/51 11/36/52
f 25/39/53 26/40/54 27/41/55 28/42/56
f 29/43/57 25/39/58 28/42/59 30/44/60
f 31/45/61 32/46/62 33/47/63 34/48/64
f 32/46/65 35/49/66 36/50/67 33/47/68
f 34/51/69 33/52/70 36/53/71 37/54/72
f 30/55/73 38/56/74 39/57/75 29/58/76
f 40/59/77 31/60/78 34/51/79 37/54/80
f 35/49/81 40/61/82 37/62/83 36/50/84
f 26/40/85 41/63/86 42/64/87 27/41/88
f 43/65/89 44/66/90 45/67/91 46/68/92
f 22/30/93 21/29/94 44/66/95 43/65/96
f 47/69/97 42/70/98 41/71/99 48/72/100
s 1
f 28/42/101 27/41/102 35/73/103 32/74/104 31/75/105 30/55/106
s 2
f 15/17/107 23/34/108 24/76/109 17/77/110 16/78/111 13/13/112
f 23/34/108 14/14/113 13/13/112 16/78/111 18/79/114 24/76/109
s off
f 1/80/115 4/27/116 22/30/117 43/81/118 46/82/119 39/83/120 38/84/121 20/85/122
f 3/28/123 2/86/124 19/87/125 47/88/126 48/89/127 45/90/128 44/91/129 21/29/130
f 29/58/131 39/57/132 46/92/133 45/93/134 48/72/135 41/71/136 26/94/137 25/95/138
s 1
f 27/41/102 42/70/139 47/69/140 19/96/141 20/97/142 38/56/143 30/55/106 31/75/105 40/98/144 35/73/103
