# This file uses centimeters as units for non-parametric coordinates.

mtllib BuzonDeCorreo.mtl
g default
v 6.280501 1.176662 -3.901067
v 7.560501 1.176662 -3.901067
v 7.560501 1.176662 -2.621067
v 6.280501 1.176662 -2.621067
v 6.313663 1.217999 -3.828217
v 6.313663 1.217999 -2.628027
v 7.521309 1.217999 -2.628027
v 7.521309 1.217999 -3.828217
v 6.280501 2.960454 -3.901067
v 7.560501 2.960454 -3.901067
v 6.280501 2.960454 -2.621067
v 6.313663 2.960454 -3.828217
v 6.313663 2.960454 -2.628027
v 7.521309 2.960454 -3.828217
v 7.560501 2.960454 -2.621067
v 7.521309 2.960454 -2.628027
v 7.564525 3.144209 -2.643930
v 7.564525 2.955789 -2.622088
v 7.564525 2.955789 -3.263088
v 7.564525 3.319789 -2.707966
v 7.564525 3.470562 -2.809833
v 7.564525 3.586255 -2.942588
v 7.564525 3.658983 -3.097185
v 7.564525 3.683789 -3.263088
v 7.564525 2.955789 -3.904088
v 7.564525 3.144209 -3.882246
v 7.564525 3.658983 -3.428991
v 7.130584 3.121720 -3.179595
v 7.130584 2.955789 -3.538481
v 7.130584 2.955789 -3.166934
v 7.564525 3.319789 -3.818210
v 7.564525 3.586256 -3.583588
v 7.564525 3.470563 -3.716343
v 7.130584 3.276344 -3.216712
v 6.280525 3.144209 -2.643930
v 6.280525 2.955789 -2.622088
v 7.130584 3.409122 -3.275758
v 7.130584 3.511006 -3.352708
v 6.280525 2.955789 -3.263088
v 6.691353 2.955789 -3.166934
v 6.691353 2.955789 -3.538481
v 6.691353 3.121720 -3.179595
v 7.130584 3.575053 -3.442318
v 7.130584 3.116229 -3.885490
v 7.130584 2.955789 -3.904088
v 7.130584 3.596899 -3.538481
v 6.280525 3.319789 -2.707966
v 6.691353 3.276344 -3.216712
v 7.130584 3.545730 -3.630091
v 7.130584 3.474356 -3.711991
v 6.691353 3.409122 -3.275758
v 6.280525 3.470562 -2.809833
v 6.691353 3.511006 -3.352708
v 6.280525 3.586255 -2.942588
v 6.691353 3.575053 -3.442318
v 6.691353 2.955789 -3.904088
v 6.691353 3.116229 -3.885490
v 6.691353 3.596899 -3.538481
v 6.280525 3.658983 -3.097185
v 6.691353 3.474356 -3.711991
v 6.691353 3.545730 -3.630091
v 6.280525 3.683789 -3.263088
v 6.280525 3.144209 -3.882246
v 6.280525 2.955789 -3.904088
v 6.280525 3.658983 -3.428991
v 6.280525 3.319789 -3.818210
v 6.280525 3.586256 -3.583588
v 6.280525 3.470563 -3.716343
v 7.130584 3.257203 -3.841036
v 7.130584 3.144209 -3.882246
v 7.130584 3.374585 -3.781189
v 7.130584 3.319789 -3.818210
v 7.130584 3.470563 -3.716343
v 6.691353 3.587021 -3.581960
v 7.130584 3.587021 -3.581960
v 6.691353 3.144209 -3.882246
v 6.691353 3.257203 -3.841036
v 6.691353 3.319789 -3.818210
v 6.691353 3.374585 -3.781189
v 6.691353 3.470563 -3.716343
v 7.130584 3.586256 -3.583588
v 6.691353 3.586256 -3.583588
v 6.691353 3.587490 -3.582166
v 6.691353 3.596958 -3.499188
v 7.130584 3.586066 -3.583275
v 7.130584 3.596958 -3.499188
vt 0.375000 0.750000
vt 0.625000 0.750000
vt 0.625000 1.000000
vt 0.375000 1.000000
vt 0.375000 0.750000
vt 0.375000 1.000000
vt 0.625000 1.000000
vt 0.625000 0.750000
vt 0.375000 0.500000
vt 0.625000 0.500000
vt 0.125000 0.000000
vt 0.375000 0.000000
vt 0.375000 0.250000
vt 0.125000 0.250000
vt 0.125000 0.227648
vt 0.375000 0.227648
vt 0.375000 0.000000
vt 0.125000 0.000000
vt 0.625000 0.522352
vt 0.375000 0.522352
vt 0.625000 0.000000
vt 0.875000 0.000000
vt 0.875000 0.250000
vt 0.625000 0.250000
vt 0.625000 0.227648
vt 0.625000 0.000000
vt 0.875000 0.227648
vt 0.875000 0.000000
vt 0.617345 0.251359
vt 0.381477 0.251359
vt 0.381477 0.485771
vt 0.617345 0.485771
vt 0.540440 0.994676
vt 0.500000 1.000000
vt 0.500000 0.843750
vt 0.578125 0.979066
vt 0.610485 0.954235
vt 0.635316 0.921875
vt 0.650926 0.884190
vt 0.656250 0.843750
vt 0.500000 0.687500
vt 0.540440 0.692824
vt 0.650926 0.803310
vt 0.540440 0.994676
vt 0.500000 0.843750
vt 0.500000 1.000000
vt 0.578125 0.708434
vt 0.635316 0.765625
vt 0.610485 0.733265
vt 0.578125 0.979066
vt 0.416667 0.312500
vt 0.427083 0.312500
vt 0.427083 0.687500
vt 0.416667 0.687500
vt 0.610485 0.954235
vt 0.635316 0.921875
vt 0.500000 0.000000
vt 0.540440 0.005324
vt 0.500000 0.156250
vt 0.500000 0.000000
vt 0.500000 0.156250
vt 0.540440 0.005324
vt 0.650926 0.884190
vt 0.539102 0.697819
vt 0.500000 0.689998
vt 0.656250 0.843750
vt 0.406250 0.312500
vt 0.406250 0.687500
vt 0.578125 0.020934
vt 0.578125 0.020934
vt 0.643779 0.805225
vt 0.626384 0.770782
vt 0.610485 0.045765
vt 0.610485 0.045765
vt 0.635316 0.078125
vt 0.635316 0.078125
vt 0.650926 0.115810
vt 0.500000 0.310002
vt 0.539102 0.302181
vt 0.395833 0.312500
vt 0.395833 0.687500
vt 0.656250 0.156250
vt 0.650926 0.115810
vt 0.626384 0.229218
vt 0.643779 0.194776
vt 0.656250 0.156250
vt 0.416667 0.312500
vt 0.416667 0.687500
vt 0.427083 0.687500
vt 0.427083 0.312500
vt 0.540440 0.307176
vt 0.500000 0.312500
vt 0.650926 0.196690
vt 0.578125 0.291566
vt 0.635316 0.234375
vt 0.385417 0.312500
vt 0.385417 0.687500
vt 0.610485 0.266735
vt 0.406250 0.312500
vt 0.406250 0.687500
vt 0.395833 0.312500
vt 0.395833 0.687500
vt 0.375000 0.312500
vt 0.375000 0.687500
vt 0.573460 0.716514
vt 0.545921 0.699183
vt 0.385417 0.312500
vt 0.385417 0.687500
vt 0.602068 0.741682
vt 0.588713 0.726113
vt 0.625460 0.768952
vt 0.614583 0.312500
vt 0.625000 0.312500
vt 0.625000 0.687500
vt 0.614583 0.687500
vt 0.375000 0.312500
vt 0.375000 0.687500
vt 0.604167 0.312500
vt 0.604167 0.687500
vt 0.614583 0.312500
vt 0.614583 0.687500
vt 0.625000 0.687500
vt 0.625000 0.312500
vt 0.609874 0.312500
vt 0.609874 0.687500
vt 0.545921 0.300817
vt 0.573460 0.283486
vt 0.588713 0.273887
vt 0.602068 0.258318
vt 0.625460 0.231048
vt 0.562500 0.560765
vt 0.562500 0.687500
vt 0.552083 0.687500
vt 0.552083 0.560765
vt 0.560953 0.560765
vt 0.572917 0.560765
vt 0.572917 0.687500
vt 0.569204 0.560765
vt 0.583333 0.560765
vt 0.583333 0.687500
vt 0.576702 0.560765
vt 0.653843 0.825465
vt 0.653656 0.824781
vt 0.653656 0.175219
vt 0.653843 0.174535
vt 0.552083 0.312500
vt 0.562500 0.312500
vt 0.562500 0.432485
vt 0.560953 0.432485
vt 0.552083 0.432485
vt 0.572917 0.312500
vt 0.572917 0.432485
vt 0.569204 0.432485
vt 0.583333 0.312500
vt 0.583333 0.432485
vt 0.576702 0.432485
vt 0.593750 0.560765
vt 0.593750 0.687500
vt 0.583675 0.560765
vt 0.590101 0.560765
vt 0.593750 0.312500
vt 0.593750 0.432485
vt 0.590101 0.432485
vt 0.583675 0.432485
vt 0.593860 0.560765
vt 0.593860 0.432485
vt 0.604167 0.312500
vt 0.614583 0.312500
vt 0.614583 0.687500
vt 0.604167 0.687500
vn 0.000000 -1.000000 0.000000
vn 0.000000 -1.000000 0.000000
vn 0.000000 -1.000000 0.000000
vn 0.000000 -1.000000 0.000000
vn 0.000000 1.000000 0.000000
vn 0.000000 1.000000 0.000000
vn 0.000000 1.000000 0.000000
vn 0.000000 1.000000 0.000000
vn 0.000000 0.000000 -1.000000
vn 0.000000 0.000000 -1.000000
vn 0.000000 0.000000 -1.000000
vn 0.000000 0.000000 -1.000000
vn -1.000000 0.000000 0.000000
vn -1.000000 0.000000 0.000000
vn -1.000000 0.000000 0.000000
vn -1.000000 0.000000 0.000000
vn 1.000000 0.000000 0.000000
vn 1.000000 0.000000 0.000000
vn 1.000000 0.000000 0.000000
vn 1.000000 0.000000 0.000000
vn 0.000000 0.000000 1.000000
vn 0.000000 0.000000 1.000000
vn 0.000000 0.000000 1.000000
vn 0.000000 0.000000 1.000000
vn 1.000000 0.000000 0.000000
vn 1.000000 0.000000 0.000000
vn 1.000000 0.000000 0.000000
vn 1.000000 0.000000 0.000000
vn 0.000000 0.000000 1.000000
vn 0.000000 0.000000 1.000000
vn 0.000000 0.000000 1.000000
vn 0.000000 0.000000 1.000000
vn 0.000000 0.000000 -1.000000
vn 0.000000 0.000000 -1.000000
vn 0.000000 0.000000 -1.000000
vn 0.000000 0.000000 -1.000000
vn -1.000000 0.000000 0.000000
vn -1.000000 0.000000 0.000000
vn -1.000000 0.000000 0.000000
vn -1.000000 0.000000 0.000000
vn 0.000000 1.000000 0.000002
vn 0.000000 1.000000 0.000000
vn 0.000000 1.000000 0.000001
vn 0.000000 1.000000 0.000002
vn 0.000000 1.000000 0.000001
vn 0.000000 1.000000 0.000000
vn 0.000000 1.000000 0.000000
vn 0.000000 1.000000 0.000000
vn 0.000000 1.000000 0.000000
vn 0.000000 1.000000 0.000001
vn 0.000000 1.000000 0.000000
vn 0.000000 1.000000 0.000001
vn 1.000000 0.000000 0.000000
vn 1.000000 0.000000 0.000000
vn 1.000000 0.000000 0.000000
vn 1.000000 0.000000 0.000000
vn 1.000000 0.000000 0.000000
vn 1.000000 0.000000 0.000000
vn 1.000000 0.000000 0.000000
vn 1.000000 0.000000 0.000000
vn 1.000000 0.000000 0.000000
vn 1.000000 0.000000 0.000000
vn 1.000000 0.000000 0.000000
vn -1.000000 -0.000001 0.000000
vn -1.000000 0.000000 0.000000
vn -1.000000 0.000001 0.000000
vn 1.000000 0.000000 0.000000
vn 1.000000 0.000002 0.000000
vn 1.000000 0.000002 0.000000
vn -1.000000 -0.000001 0.000000
vn 0.000000 0.229624 0.973280
vn 0.000000 0.115148 0.993348
vn 0.000000 0.115148 0.993348
vn 0.000000 0.229624 0.973280
vn -1.000000 0.000001 0.000000
vn -1.000000 -0.000001 0.000000
vn -1.000000 0.000000 0.000000
vn -1.000000 0.000000 0.000000
vn -1.000000 0.000001 0.000000
vn 1.000000 0.000004 0.000000
vn 1.000000 0.000000 0.000000
vn 1.000000 0.000002 0.000000
vn -1.000000 -0.000001 0.000000
vn -1.000000 0.000005 0.000000
vn -1.000000 0.000000 0.000000
vn -1.000000 0.000000 0.000000
vn 0.000000 0.453161 0.891429
vn 0.000000 0.453161 0.891429
vn -1.000000 0.000000 0.000000
vn 1.000000 -0.000002 0.000000
vn -1.000000 -0.000001 0.000000
vn -1.000000 -0.000001 0.000000
vn 1.000000 0.000000 0.000000
vn -1.000000 0.000000 0.000000
vn 1.000000 0.000001 0.000000
vn -1.000000 0.000000 0.000000
vn 1.000000 0.000000 0.000000
vn 1.000000 0.000000 0.000000
vn 1.000000 0.000000 0.000000
vn 0.000000 0.660837 0.750529
vn 0.000000 0.660837 0.750529
vn 1.000000 0.000000 0.000000
vn -1.000000 0.000000 0.000000
vn 1.000000 0.000000 0.000000
vn 1.000000 0.000001 0.000000
vn -1.000000 0.000000 0.000000
vn 0.000000 -0.153448 -0.988157
vn 0.000000 -0.153448 -0.988157
vn 0.000000 -0.076077 -0.997102
vn 0.000000 -0.076077 -0.997102
vn -1.000000 0.000002 0.000000
vn -1.000000 0.000004 0.000000
vn -1.000000 0.000001 0.000000
vn -1.000000 0.000000 0.000000
vn -1.000000 0.000001 0.000000
vn 0.000000 0.836254 0.548342
vn 0.000000 0.836254 0.548342
vn -1.000000 0.000000 0.000000
vn 0.000000 -0.317305 -0.948324
vn 0.000000 -0.317305 -0.948324
vn 0.000000 -0.501418 -0.865205
vn 0.000000 -0.501418 -0.865205
vn 0.000000 0.956682 0.291136
vn 0.000000 0.956682 0.291136
vn -1.000000 0.000000 0.000000
vn -1.000000 0.000008 0.000000
vn 0.000000 -0.708442 -0.705769
vn 0.000000 -0.708442 -0.705769
vn -1.000000 -0.000002 0.000000
vn -1.000000 -0.000004 0.000000
vn -1.000000 0.000000 0.000000
vn 0.000000 1.000000 -0.000000
vn 0.000000 1.000000 -0.000000
vn 0.000000 -0.907678 -0.419667
vn 0.000000 -0.907678 -0.419667
vn 0.000000 0.956759 -0.290881
vn 0.000000 0.956759 -0.290881
vn 0.000000 -0.996347 -0.085396
vn 0.000000 -0.996347 -0.085396
vn 0.000000 -0.975154 0.221527
vn 0.000000 -0.975154 0.221527
vn 1.000000 0.000000 0.000000
vn 1.000000 0.000000 0.000000
vn 1.000000 0.000000 0.000000
vn 1.000000 0.000000 0.000000
vn 1.000000 0.000000 0.000000
vn -0.000000 0.229623 -0.973280
vn -0.000000 0.229623 -0.973280
vn -0.000000 0.115147 -0.993349
vn -0.000000 0.115147 -0.993349
vn -0.000000 0.115147 -0.993349
vn -0.000000 0.453161 -0.891429
vn -0.000000 0.453161 -0.891429
vn 0.000000 0.342637 -0.939468
vn -0.000000 0.660836 -0.750530
vn -0.000000 0.660836 -0.750530
vn -0.000000 0.559829 -0.828608
vn -1.000000 0.000000 0.000000
vn -1.000000 0.000000 0.000000
vn 1.000000 0.000001 0.000000
vn 1.000000 0.000001 0.000000
vn 0.000001 0.115147 -0.993349
vn 0.000000 0.229624 -0.973280
vn 0.000000 0.229624 -0.973280
vn 0.000001 0.115147 -0.993349
vn 0.000001 0.115147 -0.993349
vn 0.000000 0.453161 -0.891429
vn 0.000000 0.453161 -0.891429
vn 0.000000 0.342637 -0.939468
vn 0.000000 0.660837 -0.750530
vn 0.000000 0.660837 -0.750530
vn 0.000000 0.559829 -0.828608
vn 0.000000 0.872174 -0.489195
vn 0.000000 0.872174 -0.489195
vn 0.000000 0.753893 -0.656998
vn 0.000000 0.753893 -0.656998
vn -0.000000 0.873578 -0.486684
vn -0.000000 0.873578 -0.486684
vn -0.000000 0.753893 -0.656997
vn -0.000000 0.753893 -0.656997
vn 0.000000 0.904873 -0.425681
vn 0.000000 0.904873 -0.425681
vn 0.001456 0.992655 -0.120972
vn 0.001456 0.992655 -0.120972
vn 0.001456 0.992655 -0.120972
vn 0.001456 0.992655 -0.120972
s off
g polySurface149
usemtl BotedeReciclaje:initialShadingGroup
f 1/1/1 2/2/2 3/3/3 4/4/4
f 5/5/5 6/6/6 7/7/7 8/8/8
f 9/9/9 10/10/10 2/2/11 1/1/12
f 1/11/13 4/12/14 11/13/15 9/14/16
f 12/15/17 13/16/18 6/17/19 5/18/20
f 14/19/21 12/20/22 5/5/23 8/8/24
f 3/21/25 2/22/26 10/23/27 15/24/28
f 4/12/29 3/21/30 15/24/31 11/13/32
f 13/16/33 16/25/34 7/26/35 6/17/36
f 16/25/37 14/27/38 8/28/39 7/26/40
f 11/13/41 15/24/42 16/29/43 13/30/44 12/31/45 9/9/46
f 15/24/47 10/10/48 9/9/49 12/31/50 14/32/51 16/29/52
s 1
usemtl initialShadingGroup
f 17/33/53 18/34/54 19/35/55
f 20/36/56 17/33/53 19/35/55
f 21/37/57 20/36/56 19/35/55
f 22/38/58 21/37/57 19/35/55
f 23/39/59 22/38/58 19/35/55
f 24/40/60 23/39/59 19/35/55
f 25/41/61 26/42/62 19/35/55
f 27/43/63 24/40/60 19/35/55
s 3
f 28/44/64 29/45/65 30/46/66
s 1
f 26/42/62 31/47/67 19/35/55
f 32/48/68 27/43/63 19/35/55
f 31/47/67 33/49/69 19/35/55
f 33/49/69 32/48/68 19/35/55
s 3
f 34/50/70 29/45/65 28/44/64
s 4
f 35/51/71 36/52/72 18/53/73 17/54/74
s 3
f 37/55/75 29/45/65 34/50/70
f 38/56/76 29/45/65 37/55/75
s 5
f 36/57/77 35/58/78 39/59/79
s 6
f 40/60/80 41/61/81 42/62/82
s 3
f 43/63/83 29/45/65 38/56/76
f 44/64/84 45/65/85 29/45/65
f 46/66/86 29/45/65 43/63/83
s 4
f 47/67/87 35/51/71 17/54/74 20/68/88
s 5
f 35/58/78 47/69/89 39/59/79
s 6
f 42/62/82 41/61/81 48/70/90
s 3
f 49/71/91 50/72/92 29/45/65
s 6
f 48/70/90 41/61/81 51/73/93
s 5
f 47/69/89 52/74/94 39/59/79
s 6
f 51/73/93 41/61/81 53/75/95
s 5
f 52/74/94 54/76/96 39/59/79
s 6
f 53/75/95 41/61/81 55/77/97
f 56/78/98 57/79/99 41/61/81
s 4
f 52/80/100 47/67/87 20/68/88 21/81/101
s 6
f 55/77/97 41/61/81 58/82/102
s 5
f 54/76/96 59/83/103 39/59/79
s 6
f 60/84/104 61/85/105 41/61/81
s 5
f 59/83/103 62/86/106 39/59/79
s 10
f 42/87/107 28/88/108 30/89/109 40/90/110
s 5
f 63/91/111 64/92/112 39/59/79
f 62/86/106 65/93/113 39/59/79
f 66/94/114 63/91/111 39/59/79
f 65/93/113 67/95/115 39/59/79
s 4
f 54/96/116 52/80/100 21/81/101 22/97/117
s 5
f 68/98/118 66/94/114 39/59/79
f 67/95/115 68/98/118 39/59/79
s 10
f 48/99/119 34/100/120 28/88/108 42/87/107
f 51/101/121 37/102/122 34/100/120 48/99/119
s 4
f 59/103/123 54/96/116 22/97/117 23/104/124
s 3
f 69/105/125 70/106/126 44/64/84 29/45/65
s 10
f 53/107/127 38/108/128 37/102/122 51/101/121
s 3
f 71/109/129 72/110/130 69/105/125 29/45/65
f 50/72/92 73/111/131 71/109/129 29/45/65
s 4
f 62/112/132 59/113/123 23/114/124 24/115/133
s 10
f 55/116/134 43/117/135 38/108/128 53/107/127
s 4
f 65/118/136 62/112/132 24/115/133 27/119/137
s 10
f 58/120/138 46/121/139 43/122/135 55/123/134
f 74/124/140 75/125/141 46/121/139 58/120/138
s 6
f 57/79/99 76/126/142 77/127/143 41/61/81
f 77/127/143 78/128/144 79/129/145 41/61/81
f 79/129/145 80/130/146 60/84/104 41/61/81
s 4
f 70/131/147 26/132/148 25/133/149 45/134/150 44/135/151
f 72/136/152 31/137/153 26/132/148 70/131/147 69/138/154
f 73/139/155 33/140/156 31/137/153 72/136/152 71/141/157
s 3
f 75/142/158 81/143/159 49/71/91 29/45/65 46/66/86
s 6
f 58/82/102 41/61/81 61/85/105 82/144/160 74/145/161
s 4
f 64/146/162 63/147/163 76/148/164 57/149/165 56/150/166
f 63/147/163 66/151/167 78/152/168 77/153/169 76/148/164
f 66/151/167 68/154/170 80/155/171 79/156/172 78/152/168
f 81/157/173 32/158/174 33/140/156 73/139/155 50/159/175 49/160/176
f 68/154/170 67/161/177 82/162/178 61/163/179 60/164/180 80/155/171
f 67/161/177 65/118/136 27/119/137 32/158/174 81/157/173 75/165/181 74/166/182 82/162/178
s off
f 83/167/183 84/168/184 86/169/185 85/170/186
