# Blender 4.5.2 LTS
# www.blender.org
mtllib mesa.mtl
g mesa_Mesh
v -4.755286 5.550978 1.545087
v -4.045088 5.550978 2.938928
v -2.938928 5.550978 4.045087
v -1.545086 5.550978 4.755285
v 0.000000 5.550978 5.000002
v 1.545086 5.550978 4.755285
v 2.938927 5.550978 4.045086
v 4.045086 5.451924 2.938927
v 4.755284 5.451924 1.545085
v 5.000001 5.451924 0.000000
v 4.755284 5.451924 -1.545085
v 4.045086 5.451924 -2.938926
v 2.938927 5.550979 -4.045084
v 1.545085 5.550979 -4.755282
v 0.000000 5.550979 -5.000000
v -1.545085 5.550979 -4.755282
v -2.938926 5.550979 -4.045084
v -4.045085 5.550978 -2.938926
v -4.755283 5.550978 -1.545084
v -5.000000 5.550978 0.000000
v -4.755286 5.891693 1.545087
v -4.045088 5.891693 2.938928
v -2.938928 5.891693 4.045087
v -1.545086 5.891693 4.755285
v 0.000000 5.891693 5.000002
v 1.545086 5.891693 4.755285
v 2.938927 5.891693 4.045086
v 4.045086 5.891693 2.938927
v 4.755284 5.891693 1.545085
v 5.000001 5.891693 0.000000
v 4.755284 5.891693 -1.545084
v 4.045086 5.891693 -2.938926
v 2.938927 5.891694 -4.045084
v 1.545085 5.891694 -4.755282
v 0.000000 5.891694 -5.000000
v -1.545085 5.891694 -4.755282
v -2.938926 5.891694 -4.045084
v -4.045085 5.891693 -2.938926
v -4.755283 5.891693 -1.545084
v -5.000000 5.891693 0.000000
v 0.000000 5.550978 0.000000
v 0.000000 5.891693 0.000000
v -0.190211 1.539579 0.061803
v -0.161804 1.539579 0.117557
v -0.117557 1.539579 0.161803
v -0.061803 1.539579 0.190211
v 0.000000 1.539579 0.200000
v 0.061803 1.539579 0.190211
v 0.117557 1.539579 0.161803
v 0.161803 1.539579 0.117557
v 0.190211 1.539579 0.061803
v 0.200000 1.539579 0.000000
v 0.190211 1.539579 -0.061803
v 0.161803 1.539579 -0.117557
v 0.117557 1.539579 -0.161803
v 0.061803 1.539579 -0.190211
v 0.000000 1.539579 -0.200000
v -0.061803 1.539579 -0.190211
v -0.117557 1.539579 -0.161803
v -0.161803 1.539579 -0.117557
v -0.190211 1.539579 -0.061803
v -0.200000 1.539579 0.000000
v -0.190211 5.539579 0.061803
v -0.161804 5.539579 0.117557
v -0.117557 5.539579 0.161803
v -0.061803 5.539579 0.190211
v 0.000000 5.539579 0.200000
v 0.061803 5.539579 0.190211
v 0.117557 5.539579 0.161803
v 0.161803 5.539579 0.117557
v 0.190211 5.539579 0.061803
v 0.200000 5.539579 0.000000
v 0.190211 5.539579 -0.061803
v 0.161803 5.539579 -0.117557
v 0.117557 5.539579 -0.161803
v 0.061803 5.539579 -0.190211
v 0.000000 5.539579 -0.200000
v -0.061803 5.539579 -0.190211
v -0.117557 5.539579 -0.161803
v -0.161803 5.539579 -0.117557
v -0.190211 5.539579 -0.061803
v -0.200000 5.539579 0.000000
v 0.000000 1.539579 0.000000
v 0.000000 5.539579 0.000000
v -2.853171 0.278421 0.927052
v -2.427053 0.278421 1.763357
v -1.763357 0.278421 2.427052
v -0.927051 0.278421 2.853171
v 0.000000 0.278421 3.000001
v 0.927051 0.278421 2.853171
v 1.763356 0.278421 2.427052
v 2.427052 0.278421 1.763356
v 2.853170 0.278421 0.927051
v 3.000001 0.278421 0.000000
v 2.853170 0.311211 -0.927051
v 2.427052 0.311211 -1.763356
v 1.763356 0.311211 -2.427051
v 0.927051 0.278421 -2.853170
v 0.000000 0.278421 -2.999999
v -0.927051 0.278421 -2.853170
v -1.763356 0.278421 -2.427051
v -2.427051 0.278421 -1.763356
v -2.853170 0.278421 -0.927052
v -3.000000 0.278421 -0.000002
v -2.853171 0.412933 0.927051
v -2.427052 0.412933 1.763357
v -1.763356 0.412933 2.427052
v -0.927051 0.412933 2.853171
v 0.000001 0.412934 3.000001
v 0.927052 0.412933 2.853171
v 1.763357 0.412933 2.427052
v 2.427052 0.412933 1.763356
v 2.853171 0.412933 0.927051
v 3.000001 0.412933 0.000000
v 2.853171 0.380143 -0.927051
v 2.427052 0.380143 -1.763356
v 1.763357 0.380143 -2.427051
v 0.927052 0.412933 -2.853170
v 0.000001 0.412933 -2.999999
v -0.927050 0.412933 -2.853170
v -1.763355 0.412933 -2.427051
v -2.427050 0.412933 -1.763356
v -2.853169 0.412933 -0.927052
v -2.999999 0.412933 -0.000002
v 0.000000 0.278421 -0.000002
v 0.023522 1.869963 0.034945
vn -0.8090 -0.0000 0.5878
vn -0.9511 -0.0000 0.3090
vn -0.5878 -0.0000 0.8090
vn -0.3090 -0.0000 0.9511
vn -0.0000 -0.0000 1.0000
vn 0.3090 -0.0000 0.9511
vn 0.6069 -0.0000 0.7948
vn 0.8146 -0.0000 0.5800
vn 0.5964 -0.0000 0.8027
vn 0.9511 -0.0000 0.3090
vn 0.8234 -0.0000 0.5675
vn 1.0000 -0.0000 -0.0000
vn 0.9511 -0.0000 -0.3090
vn 0.8234 -0.0000 -0.5674
vn 0.6068 -0.0000 -0.7949
vn 0.8146 -0.0000 -0.5800
vn 0.3090 -0.0000 -0.9511
vn 0.5965 -0.0000 -0.8026
vn -0.0000 -0.0000 -1.0000
vn -0.3090 -0.0000 -0.9511
vn -0.5878 -0.0000 -0.8090
vn -0.8090 -0.0000 -0.5878
vn -0.9511 -0.0000 -0.3090
vn -1.0000 -0.0000 -0.0000
vn -0.0000 -1.0000 -0.0000
vn -0.0090 -1.0000 -0.0000
vn -0.0259 -0.9995 0.0188
vn -0.0348 -0.9993 0.0142
vn -0.0188 -0.9998 -0.0061
vn -0.0198 -0.9998 -0.0000
vn -0.0188 -0.9998 0.0061
vn -0.0348 -0.9993 -0.0142
vn -0.0259 -0.9995 -0.0188
vn -0.0000 1.0000 -0.0000
vn 0.5878 -0.0000 0.8090
vn 0.8090 -0.0000 0.5878
vn 0.8090 -0.0000 -0.5878
vn 0.5878 -0.0000 -0.8090
vn 0.9932 -0.0000 0.1164
vn 0.9709 -0.0000 -0.2394
vn 0.9707 -0.0000 -0.2402
vn 0.5280 -0.0000 -0.8493
vn 0.5280 -0.0000 -0.8492
vn 0.1962 -0.0000 -0.9806
vn 0.0045 -1.0000 -0.0032
vn -0.0000 -0.9998 -0.0184
vn 0.0063 -0.9999 -0.0159
vn 0.0088 -0.9999 -0.0064
vn 0.0171 -0.9999 -0.0011
vn 0.0175 -0.9998 0.0057
vn -0.4142 0.9002 0.1346
vn -0.3536 0.8994 0.2569
vn 0.0014 1.0000 -0.0011
vn -0.2582 0.8987 0.3545
vn -0.1360 0.8980 0.4184
vn 0.0001 0.8975 0.4410
vn 0.1364 0.8972 0.4201
vn 0.2597 0.8971 0.3575
vn 0.3573 0.8972 0.2594
vn 0.4193 0.8976 0.1359
vn 0.4389 0.8976 -0.0403
vn 0.4071 0.8940 -0.1871
vn 0.3597 0.8957 -0.2613
vn 0.3024 0.8950 -0.3279
vn 0.1722 0.9001 -0.4002
vn -0.0003 0.9015 -0.4328
vn -0.1337 0.9018 -0.4110
vn -0.2539 0.9019 -0.3495
vn -0.3496 0.9018 -0.2542
vn -0.4117 0.9014 -0.1341
vn -0.4341 0.9009 0.0001
vt 0.814309 0.381246
vt 0.802062 0.313010
vt 0.814309 0.313010
vt 0.826555 0.068236
vt 0.814309 0.000000
vt 0.826555 0.000000
vt 0.826555 0.148451
vt 0.814309 0.068236
vt 0.826556 0.232795
vt 0.814309 0.148451
vt 0.826556 0.313010
vt 0.814309 0.232795
vt 0.826555 0.381246
vt 0.814309 0.313010
vt 0.789815 0.381246
vt 0.802062 0.313010
vt 0.802062 0.381246
vt 0.786255 0.232795
vt 0.786255 0.313010
vt 0.786255 0.148451
vt 0.802062 0.232795
vt 0.786255 0.068235
vt 0.802062 0.148451
vt 0.786255 0.000000
vt 0.802062 0.068235
vt 0.789815 0.694256
vt 0.802062 0.762491
vt 0.786255 0.762491
vt 0.789815 0.614040
vt 0.802062 0.694256
vt 0.789815 0.529697
vt 0.802062 0.614040
vt 0.789815 0.449481
vt 0.802062 0.529697
vt 0.789815 0.381246
vt 0.802062 0.449481
vt 0.814309 0.068236
vt 0.802062 0.000000
vt 0.814309 0.000000
vt 0.814309 0.148451
vt 0.802062 0.068235
vt 0.814309 0.232795
vt 0.802062 0.148451
vt 0.802062 0.232795
vt 0.340586 0.744126
vt 0.304690 0.793354
vt 0.285818 0.402152
vt 0.371121 0.661423
vt 0.393306 0.553342
vt 0.404970 0.430460
vt 0.404970 0.304808
vt 0.393306 0.188684
vt 0.371124 0.093440
vt 0.340588 0.028430
vt 0.304692 -0.000000
vt 0.266949 0.010934
vt 0.231052 0.060162
vt 0.200515 0.142881
vt 0.178330 0.250963
vt 0.166667 0.373844
vt 0.166667 0.499497
vt 0.178330 0.615620
vt 0.200515 0.710848
vt 0.231050 0.775858
vt 0.266946 0.804288
vt 0.505250 0.793338
vt 0.469353 0.744110
vt 0.524121 0.402136
vt 0.438818 0.661408
vt 0.416633 0.553326
vt 0.404970 0.430444
vt 0.404970 0.304791
vt 0.416633 0.188668
vt 0.438818 0.093440
vt 0.469353 0.028429
vt 0.505250 -0.000000
vt 0.542993 0.010934
vt 0.578889 0.060162
vt 0.609424 0.142865
vt 0.631610 0.250947
vt 0.643273 0.373829
vt 0.643273 0.499481
vt 0.631610 0.615605
vt 0.609424 0.710832
vt 0.578889 0.775843
vt 0.542993 0.804272
vt 0.693414 0.371947
vt 0.477765 0.367619
vt 0.693423 0.370127
vt 0.439414 0.338636
vt 0.655064 0.342963
vt 0.439405 0.340456
vt 0.439425 0.336497
vt 0.655073 0.341144
vt 0.439437 0.334248
vt 0.655084 0.339005
vt 0.439448 0.332109
vt 0.655096 0.336756
vt 0.439458 0.330289
vt 0.655107 0.334616
vt 0.655012 0.352986
vt 0.439363 0.348659
vt 0.655021 0.351166
vt 0.655001 0.355125
vt 0.439353 0.350478
vt 0.654989 0.357374
vt 0.439342 0.352617
vt 0.654978 0.359513
vt 0.439330 0.354867
vt 0.654969 0.361333
vt 0.439319 0.357006
vt 0.909072 0.374454
vt 0.693434 0.367988
vt 0.909082 0.372635
vt 0.693446 0.365739
vt 0.909093 0.370496
vt 0.693457 0.363600
vt 0.909105 0.368247
vt 0.693466 0.361780
vt 0.909116 0.366108
vt 0.693457 0.363600
vt 0.477808 0.359273
vt 0.693466 0.361780
vt 0.477798 0.361092
vt 0.477787 0.363231
vt 0.477776 0.365480
vt 0.421459 0.834037
vt 0.420023 0.836006
vt 0.419268 0.820358
vt 0.422680 0.830729
vt 0.423567 0.826405
vt 0.424034 0.821490
vt 0.424034 0.816464
vt 0.423567 0.811819
vt 0.422680 0.808010
vt 0.421459 0.805410
vt 0.420023 0.804272
vt 0.418513 0.804710
vt 0.417077 0.806679
vt 0.415856 0.809987
vt 0.414968 0.814310
vt 0.414502 0.819226
vt 0.414502 0.824252
vt 0.414968 0.828897
vt 0.415856 0.832706
vt 0.417077 0.835306
vt 0.418513 0.836443
vt 0.408981 0.836006
vt 0.407545 0.834037
vt 0.409736 0.820358
vt 0.406324 0.830729
vt 0.405436 0.826405
vt 0.404970 0.821490
vt 0.404970 0.816464
vt 0.405436 0.811819
vt 0.406324 0.808010
vt 0.407545 0.805410
vt 0.408981 0.804272
vt 0.410491 0.804710
vt 0.411927 0.806679
vt 0.413148 0.809987
vt 0.414035 0.814310
vt 0.414035 0.828897
vt 0.413148 0.832706
vt 0.411927 0.835306
vt 0.410491 0.836443
vt 0.807531 0.569052
vt 0.802696 0.609993
vt 0.802696 0.569052
vt 0.807531 0.650935
vt 0.802696 0.609993
vt 0.807531 0.609993
vt 0.807531 0.699064
vt 0.802696 0.650935
vt 0.807531 0.749670
vt 0.802696 0.699064
vt 0.807531 0.797800
vt 0.802696 0.749670
vt 0.807531 0.838741
vt 0.802696 0.797800
vt 0.807531 0.892550
vt 0.812366 0.933491
vt 0.807531 0.933491
vt 0.807531 0.844420
vt 0.812366 0.892550
vt 0.807531 0.793814
vt 0.812366 0.844420
vt 0.808710 0.745685
vt 0.812366 0.793814
vt 0.811187 0.704743
vt 0.811188 0.745685
vt 0.813545 0.933491
vt 0.816022 0.892550
vt 0.816022 0.933491
vt 0.813545 0.892550
vt 0.817201 0.844420
vt 0.812366 0.844420
vt 0.817201 0.793814
vt 0.812366 0.793814
vt 0.817201 0.745685
vt 0.812366 0.745685
vt 0.817201 0.704744
vt 0.807531 0.381246
vt 0.802696 0.422187
vt 0.802696 0.381246
vt 0.807531 0.422187
vt 0.802696 0.470316
vt 0.807531 0.470316
vt 0.802696 0.520922
vt 0.807531 0.520922
vt 0.747625 0.929029
vt 0.726087 0.958566
vt 0.714764 0.723845
vt 0.765946 0.879408
vt 0.779257 0.814558
vt 0.786255 0.740830
vt 0.786255 0.665438
vt 0.779257 0.595764
vt 0.765946 0.538627
vt 0.747625 0.499621
vt 0.726087 0.482563
vt 0.703440 0.489130
vt 0.681902 0.518666
vt 0.663581 0.568288
vt 0.650271 0.633132
vt 0.643273 0.706860
vt 0.643273 0.782252
vt 0.650271 0.851926
vt 0.663582 0.909062
vt 0.681903 0.948069
vt 0.703441 0.965126
vt 0.703441 0.476003
vt 0.681903 0.446466
vt 0.713856 0.239726
vt 0.663582 0.396844
vt 0.650271 0.331995
vt 0.643273 0.258266
vt 0.643273 0.182875
vt 0.650271 0.113201
vt 0.663582 0.056064
vt 0.681903 0.017058
vt 0.703441 0.000000
vt 0.726087 0.006558
vt 0.747624 0.036094
vt 0.765946 0.085716
vt 0.779257 0.150568
vt 0.786255 0.224297
vt 0.786255 0.299689
vt 0.779257 0.369363
vt 0.765946 0.426500
vt 0.747625 0.465506
vt 0.726087 0.482564
vt 0.802062 0.381246
vt 0.814309 0.381246
vt 0.802062 0.000000
vt 0.802061 0.381246
vt 0.477755 0.369439
vt 0.655116 0.332797
vt 0.439310 0.358825
vt 0.909125 0.364288
vt 0.807531 0.609993
vt 0.802696 0.838741
vt 0.808710 0.704743
vt 0.812366 0.704743
s 1
g off
g mesa_initialShadingGroup.002
usemtl initialShadingGroup.002
f 2/1/1 21/2/2 1/3/2
f 3/4/3 22/5/1 2/6/1
f 4/7/4 23/8/3 3/4/3
f 5/9/5 24/10/4 4/7/4
f 6/11/6 25/12/5 5/9/5
f 7/13/7 26/14/6 6/11/6
f 7/15/7 28/16/8 27/17/9
f 9/18/10 28/16/8 8/19/11
f 10/20/12 29/21/10 9/18/10
f 11/22/13 30/23/12 10/20/12
f 12/24/14 31/25/13 11/22/13
f 13/26/15 32/27/16 12/28/14
f 14/29/17 33/30/18 13/26/15
f 15/31/19 34/32/17 14/29/17
f 16/33/20 35/34/19 15/31/19
f 17/35/21 36/36/20 16/33/20
f 18/37/22 37/38/21 17/39/21
f 19/40/23 38/41/22 18/37/22
f 20/42/24 39/43/23 19/40/23
f 1/3/2 40/44/24 20/42/24
s 2
f 2/45/25 1/46/25 41/47/26
f 3/48/25 2/45/25 41/47/26
f 4/49/25 3/48/25 41/47/26
f 5/50/25 4/49/25 41/47/26
f 6/51/25 5/50/25 41/47/26
f 7/52/27 6/51/25 41/47/26
f 8/53/28 7/52/27 41/47/26
f 9/54/29 8/53/28 41/47/26
f 10/55/30 9/54/29 41/47/26
f 11/56/31 10/55/30 41/47/26
f 12/57/32 11/56/31 41/47/26
f 13/58/33 12/57/32 41/47/26
f 14/59/25 13/58/33 41/47/26
f 15/60/25 14/59/25 41/47/26
f 16/61/25 15/60/25 41/47/26
f 17/62/25 16/61/25 41/47/26
f 18/63/25 17/62/25 41/47/26
f 19/64/25 18/63/25 41/47/26
f 20/65/25 19/64/25 41/47/26
f 1/46/25 20/65/25 41/47/26
s 3
f 21/66/34 22/67/34 42/68/34
f 22/67/34 23/69/34 42/68/34
f 23/69/34 24/70/34 42/68/34
f 24/70/34 25/71/34 42/68/34
f 25/71/34 26/72/34 42/68/34
f 26/72/34 27/73/34 42/68/34
f 27/73/34 28/74/34 42/68/34
f 28/74/34 29/75/34 42/68/34
f 29/75/34 30/76/34 42/68/34
f 30/76/34 31/77/34 42/68/34
f 31/77/34 32/78/34 42/68/34
f 32/78/34 33/79/34 42/68/34
f 33/79/34 34/80/34 42/68/34
f 34/80/34 35/81/34 42/68/34
f 35/81/34 36/82/34 42/68/34
f 36/82/34 37/83/34 42/68/34
f 37/83/34 38/84/34 42/68/34
f 38/84/34 39/85/34 42/68/34
f 39/85/34 40/86/34 42/68/34
f 40/86/34 21/66/34 42/68/34
s 4
f 44/87/1 63/88/2 43/89/2
f 45/90/3 64/91/1 44/92/1
f 46/93/4 65/94/3 45/90/3
f 47/95/5 66/96/4 46/93/4
f 48/97/6 67/98/5 47/95/5
f 49/99/35 68/100/6 48/97/6
f 50/101/36 69/102/35 49/103/35
f 51/104/10 70/105/36 50/101/36
f 52/106/12 71/107/10 51/104/10
f 53/108/13 72/109/12 52/106/12
f 54/110/37 73/111/13 53/108/13
f 55/89/38 74/112/37 54/87/37
f 56/113/17 75/114/38 55/89/38
f 57/115/19 76/116/17 56/113/17
f 58/117/20 77/118/19 57/115/19
f 59/119/21 78/120/20 58/117/20
f 60/121/22 79/122/21 59/123/21
f 61/115/23 80/124/22 60/121/22
f 62/113/24 81/125/23 61/115/23
f 43/89/2 82/126/24 62/113/24
s 5
f 44/127/25 43/128/25 83/129/25
f 45/130/25 44/127/25 83/129/25
f 46/131/25 45/130/25 83/129/25
f 47/132/25 46/131/25 83/129/25
f 48/133/25 47/132/25 83/129/25
f 49/134/25 48/133/25 83/129/25
f 50/135/25 49/134/25 83/129/25
f 51/136/25 50/135/25 83/129/25
f 52/137/25 51/136/25 83/129/25
f 53/138/25 52/137/25 83/129/25
f 54/139/25 53/138/25 83/129/25
f 55/140/25 54/139/25 83/129/25
f 56/141/25 55/140/25 83/129/25
f 57/142/25 56/141/25 83/129/25
f 58/143/25 57/142/25 83/129/25
f 59/144/25 58/143/25 83/129/25
f 60/145/25 59/144/25 83/129/25
f 61/146/25 60/145/25 83/129/25
f 62/147/25 61/146/25 83/129/25
f 43/128/25 62/147/25 83/129/25
s 6
f 63/148/34 64/149/34 84/150/34
f 64/149/34 65/151/34 84/150/34
f 65/151/34 66/152/34 84/150/34
f 66/152/34 67/153/34 84/150/34
f 67/153/34 68/154/34 84/150/34
f 68/154/34 69/155/34 84/150/34
f 69/155/34 70/156/34 84/150/34
f 70/156/34 71/157/34 84/150/34
f 71/157/34 72/158/34 84/150/34
f 72/158/34 73/159/34 84/150/34
f 73/159/34 74/160/34 84/150/34
f 74/160/34 75/161/34 84/150/34
f 75/161/34 76/162/34 84/150/34
f 76/162/34 77/142/34 84/150/34
f 77/142/34 78/143/34 84/150/34
f 78/143/34 79/163/34 84/150/34
f 79/163/34 80/164/34 84/150/34
f 80/164/34 81/165/34 84/150/34
f 81/165/34 82/166/34 84/150/34
f 82/166/34 63/148/34 84/150/34
s 7
f 85/167/2 106/168/1 105/169/2
f 87/170/3 106/171/1 86/172/1
f 88/173/4 107/174/3 87/170/3
f 89/175/5 108/176/4 88/173/4
f 90/177/6 109/178/5 89/175/5
f 91/179/35 110/180/6 90/177/6
f 92/181/36 111/182/35 91/183/35
f 93/184/10 112/185/36 92/181/36
f 94/186/39 113/187/10 93/184/10
f 95/188/40 114/189/39 94/186/39
f 95/188/40 116/190/37 115/191/41
f 96/192/37 117/193/42 116/194/37
f 97/195/43 118/196/44 117/193/42
f 98/197/44 119/198/19 118/196/44
f 99/199/19 120/200/20 119/198/19
f 100/201/20 121/202/21 120/200/20
f 101/203/21 122/204/22 121/205/21
f 102/206/22 123/207/23 122/204/22
f 103/208/23 124/209/24 123/207/23
f 104/210/24 105/169/2 124/209/24
s 8
f 86/211/25 85/212/25 125/213/45
f 87/214/25 86/211/25 125/213/45
f 88/215/25 87/214/25 125/213/45
f 89/216/25 88/215/25 125/213/45
f 90/217/25 89/216/25 125/213/45
f 91/218/25 90/217/25 125/213/45
f 92/219/25 91/218/25 125/213/45
f 93/220/25 92/219/25 125/213/45
f 94/221/46 93/220/25 125/213/45
f 95/222/47 94/221/46 125/213/45
f 96/223/48 95/222/47 125/213/45
f 97/224/49 96/223/48 125/213/45
f 98/225/50 97/224/49 125/213/45
f 99/226/25 98/225/50 125/213/45
f 100/227/25 99/226/25 125/213/45
f 101/228/25 100/227/25 125/213/45
f 102/229/25 101/228/25 125/213/45
f 103/230/25 102/229/25 125/213/45
f 104/231/25 103/230/25 125/213/45
f 85/212/25 104/231/25 125/213/45
s 9
f 105/232/51 106/233/52 126/234/53
f 106/233/52 107/235/54 126/234/53
f 107/235/54 108/236/55 126/234/53
f 108/236/55 109/237/56 126/234/53
f 109/237/56 110/238/57 126/234/53
f 110/238/57 111/239/58 126/234/53
f 111/239/58 112/240/59 126/234/53
f 112/240/59 113/241/60 126/234/53
f 113/241/60 114/242/61 126/234/53
f 114/242/61 115/243/62 126/234/53
f 115/243/62 116/244/63 126/234/53
f 116/244/63 117/245/64 126/234/53
f 117/245/64 118/246/65 126/234/53
f 118/246/65 119/247/66 126/234/53
f 119/247/66 120/248/67 126/234/53
f 120/248/67 121/249/68 126/234/53
f 121/249/68 122/250/69 126/234/53
f 122/250/69 123/251/70 126/234/53
f 123/251/70 124/252/71 126/234/53
f 124/252/71 105/232/51 126/234/53
s 1
f 2/1/1 22/253/1 21/2/2
f 3/4/3 23/8/3 22/5/1
f 4/7/4 24/10/4 23/8/3
f 5/9/5 25/12/5 24/10/4
f 6/11/6 26/14/6 25/12/5
f 7/13/7 27/254/9 26/14/6
f 7/15/7 8/19/11 28/16/8
f 9/18/10 29/21/10 28/16/8
f 10/20/12 30/23/12 29/21/10
f 11/22/13 31/25/13 30/23/12
f 12/24/14 32/255/16 31/25/13
f 13/26/15 33/30/18 32/27/16
f 14/29/17 34/32/17 33/30/18
f 15/31/19 35/34/19 34/32/17
f 16/33/20 36/36/20 35/34/19
f 17/35/21 37/256/21 36/36/20
f 18/37/22 38/41/22 37/38/21
f 19/40/23 39/43/23 38/41/22
f 20/42/24 40/44/24 39/43/23
f 1/3/2 21/2/2 40/44/24
s 4
f 44/87/1 64/257/1 63/88/2
f 45/90/3 65/94/3 64/91/1
f 46/93/4 66/96/4 65/94/3
f 47/95/5 67/98/5 66/96/4
f 48/97/6 68/100/6 67/98/5
f 49/99/35 69/258/35 68/100/6
f 50/101/36 70/105/36 69/102/35
f 51/104/10 71/107/10 70/105/36
f 52/106/12 72/109/12 71/107/10
f 53/108/13 73/111/13 72/109/12
f 54/110/37 74/259/37 73/111/13
f 55/89/38 75/114/38 74/112/37
f 56/113/17 76/116/17 75/114/38
f 57/115/19 77/118/19 76/116/17
f 58/117/20 78/120/20 77/118/19
f 59/119/21 79/260/21 78/120/20
f 60/121/22 80/124/22 79/122/21
f 61/115/23 81/125/23 80/124/22
f 62/113/24 82/126/24 81/125/23
f 43/89/2 63/88/2 82/126/24
s 7
f 85/167/2 86/261/1 106/168/1
f 87/170/3 107/174/3 106/171/1
f 88/173/4 108/176/4 107/174/3
f 89/175/5 109/178/5 108/176/4
f 90/177/6 110/180/6 109/178/5
f 91/179/35 111/262/35 110/180/6
f 92/181/36 112/185/36 111/182/35
f 93/184/10 113/187/10 112/185/36
f 94/186/39 114/189/39 113/187/10
f 95/188/40 115/191/41 114/189/39
f 95/188/40 96/263/37 116/190/37
f 96/192/37 97/195/43 117/193/42
f 97/195/43 98/197/44 118/196/44
f 98/197/44 99/199/19 119/198/19
f 99/199/19 100/201/20 120/200/20
f 100/201/20 101/264/21 121/202/21
f 101/203/21 102/206/22 122/204/22
f 102/206/22 103/208/23 123/207/23
f 103/208/23 104/210/24 124/209/24
f 104/210/24 85/167/2 105/169/2
