# This file uses centimeters as units for non-parametric coordinates.

mtllib TapaBuzon.mtl
g default
v 6.691353 2.955789 -3.903318
v 6.691353 3.121736 -3.883839
v 6.691353 3.142381 -3.881894
v 6.691353 3.319091 -3.818993
v 6.691353 3.470689 -3.716656
v 7.130584 2.955789 -3.903318
v 7.130584 3.121736 -3.883839
v 7.130584 3.144234 -3.883336
v 7.130584 3.318931 -3.818366
v 7.130584 3.470457 -3.716178
v 6.691353 3.587490 -3.582166
v 7.130584 3.586066 -3.583276
vt 0.552083 0.312500
vt 0.562500 0.312500
vt 0.562500 0.687500
vt 0.552083 0.687500
vt 0.572917 0.312500
vt 0.572917 0.687500
vt 0.583333 0.312500
vt 0.583333 0.687500
vt 0.593750 0.312500
vt 0.593750 0.687500
vt 0.604167 0.312500
vt 0.604167 0.687500
vn -0.000000 0.116579 -0.993181
vn -0.000201 0.109737 -0.993961
vn -0.000201 0.109737 -0.993961
vn -0.000000 0.116579 -0.993181
vn -0.001561 0.313538 -0.949574
vn -0.001561 0.313723 -0.949513
vn -0.000137 0.452766 -0.891630
vn -0.000136 0.452826 -0.891599
vn 0.001134 0.661112 -0.750286
vn 0.001134 0.661167 -0.750238
vn 0.000951 0.754753 -0.656009
vn 0.000951 0.754753 -0.656009
s 1
g polySurface147 polySurface146
usemtl initialShadingGroup
f 1/1/1 2/2/2 7/3/3 6/4/4
f 2/2/2 3/5/5 8/6/6 7/3/3
f 3/5/5 4/7/7 9/8/8 8/6/6
f 4/7/7 5/9/9 10/10/10 9/8/8
f 5/9/9 11/11/11 12/12/12 10/10/10
