# Blender 4.5.2 LTS
# www.blender.org
mtllib valla.mtl
g valla_Mesh
v -0.350000 0.003997 -0.050000
v -1.050000 0.003997 -0.050000
v -0.350000 5.503997 -0.050000
v -1.050000 5.503997 -0.050000
v -0.350000 5.503997 0.050000
v -1.050000 5.503997 0.050000
v -0.350000 0.003997 0.050000
v -1.050000 0.003997 0.050000
v -0.685835 5.731313 0.050000
v -0.685835 0.003997 0.050000
v -0.685835 0.003997 -0.050000
v -0.685835 5.731313 -0.050000
v -0.891326 5.685822 0.050000
v -0.891326 0.003997 0.050000
v -0.891326 0.003997 -0.050000
v -0.891326 5.685822 -0.050000
v -0.483825 5.670283 0.050000
v -0.483825 0.003997 0.050000
v -0.483825 0.003997 -0.050000
v -0.483825 5.670283 -0.050000
v 0.350000 0.000000 -0.150000
v -0.350000 0.000000 -0.150000
v 0.350000 6.000000 -0.150000
v -0.350000 6.000000 -0.150000
v 0.350000 6.000000 0.150000
v -0.350000 6.000000 0.150000
v 0.350000 -0.000000 0.150000
v -0.350000 -0.000000 0.150000
v 0.014165 6.455233 0.150000
v 0.014165 -0.000000 0.150000
v 0.014165 0.000000 -0.150000
v 0.014165 6.455232 -0.150000
v -1.753193 0.003997 -0.050000
v -2.453193 0.003997 -0.050000
v -1.753193 5.503997 -0.050000
v -2.453193 5.503997 -0.050000
v -1.753193 5.503997 0.050000
v -2.453193 5.503997 0.050000
v -1.753193 0.003997 0.050000
v -2.453193 0.003997 0.050000
v -2.089028 5.731313 0.050000
v -2.089028 0.003997 0.050000
v -2.089028 0.003997 -0.050000
v -2.089028 5.731313 -0.050000
v -2.294519 5.685822 0.050000
v -2.294519 0.003997 0.050000
v -2.294519 0.003997 -0.050000
v -2.294519 5.685822 -0.050000
v -1.887018 5.670283 0.050000
v -1.887018 0.003997 0.050000
v -1.887018 0.003997 -0.050000
v -1.887018 5.670283 -0.050000
v -1.053193 0.000000 -0.150000
v -1.753193 0.000000 -0.150000
v -1.053193 6.000000 -0.150000
v -1.753193 6.000000 -0.150000
v -1.053193 6.000000 0.150000
v -1.753193 6.000000 0.150000
v -1.053193 -0.000000 0.150000
v -1.753193 -0.000000 0.150000
v -1.389028 6.455233 0.150000
v -1.389028 -0.000000 0.150000
v -1.389028 0.000000 -0.150000
v -1.389028 6.455232 -0.150000
v 1.045788 0.003997 -0.050000
v 0.345788 0.003997 -0.050000
v 1.045788 5.503997 -0.050000
v 0.345788 5.503997 -0.050000
v 1.045788 5.503997 0.050000
v 0.345788 5.503997 0.050000
v 1.045788 0.003997 0.050000
v 0.345788 0.003997 0.050000
v 0.709953 5.731313 0.050000
v 0.709953 0.003997 0.050000
v 0.709953 0.003997 -0.050000
v 0.709953 5.731313 -0.050000
v 0.504462 5.685822 0.050000
v 0.504462 0.003997 0.050000
v 0.504462 0.003997 -0.050000
v 0.504462 5.685822 -0.050000
v 0.911963 5.670283 0.050000
v 0.911963 0.003997 0.050000
v 0.911963 0.003997 -0.050000
v 0.911963 5.670283 -0.050000
v 1.745788 0.000000 -0.150000
v 1.045788 0.000000 -0.150000
v 1.745788 6.000000 -0.150000
v 1.045788 6.000000 -0.150000
v 1.745788 6.000000 0.150000
v 1.045788 6.000000 0.150000
v 1.745788 -0.000000 0.150000
v 1.045788 -0.000000 0.150000
v 1.409953 6.455233 0.150000
v 1.409953 -0.000000 0.150000
v 1.409953 0.000000 -0.150000
v 1.409953 6.455232 -0.150000
vn -0.0000 -0.0000 -1.0000
vn 0.5606 0.8281 -0.0000
vn 0.7790 0.6270 -0.0000
vn -0.0000 -0.0000 1.0000
vn -0.0000 -1.0000 -0.0000
vn -1.0000 -0.0000 -0.0000
vn 1.0000 -0.0000 -0.0000
vn 0.0378 0.9993 -0.0000
vn -0.5297 0.8482 -0.0000
vn -0.7534 0.6575 -0.0000
vn -0.0006 1.0000 -0.0000
vn 0.8047 0.5937 -0.0000
vn -0.7809 0.6247 -0.0000
vn -0.0000 1.0000 -0.0000
vn 0.5605 0.8281 -0.0000
vt 0.739258 0.339401
vt 0.619773 0.239052
vt 0.739338 0.239468
vt 0.619693 0.338985
vt 0.500208 0.238637
vt 0.380563 0.338154
vt 0.380643 0.238221
vt 0.261078 0.237806
vt 0.738507 1.012194
vt 0.619357 0.761779
vt 0.738922 0.762194
vt 0.620188 0.023144
vt 0.739753 0.023559
vt 0.499886 0.642874
vt 0.380443 0.489007
vt 0.500008 0.489422
vt 0.260756 0.642043
vt 0.260878 0.488591
vt 0.739139 0.490253
vt 0.619451 0.643289
vt 0.619573 0.489838
vt 0.499792 0.761363
vt 0.380321 0.642458
vt 0.260662 0.760532
vt 0.739017 0.643705
vt 0.500128 0.338570
vt 0.260998 0.337739
vt 0.618942 1.011778
vt 0.380227 0.760948
s 1
g off
g valla_initialShadingGroup.001
usemtl initialShadingGroup.001
f 19/1/1 3/2/1 1/3/1
s 2
f 20/4/2 5/5/3 3/2/3
s 3
f 5/5/4 18/6/4 7/7/4
s 4
f 18/6/5 1/8/5 7/7/5
s 5
f 8/9/6 4/10/6 2/11/6
s 6
f 1/3/7 5/12/7 7/13/7
s 3
f 13/14/4 10/15/4 9/16/4
s 4
f 10/15/5 15/17/5 11/18/5
s 1
f 11/19/1 16/20/1 12/21/1
s 2
f 12/21/8 13/14/9 9/16/8
s 3
f 6/22/4 14/23/4 13/14/4
s 4
f 14/23/5 2/24/5 15/17/5
s 1
f 15/25/1 4/10/1 16/20/1
s 2
f 16/20/9 6/22/10 13/14/9
s 3
f 17/26/4 10/15/4 18/6/4
s 4
f 18/6/5 11/18/5 19/27/5
s 1
f 20/4/1 11/19/1 12/21/1
s 2
f 20/4/2 9/16/8 17/26/2
s 7
f 31/19/1 23/2/1 21/3/1
s 8
f 32/21/11 25/5/12 23/2/12
s 9
f 25/5/4 30/15/4 27/7/4
s 10
f 30/15/5 21/8/5 27/7/5
s 11
f 28/9/6 24/10/6 22/11/6
s 12
f 21/3/7 25/12/7 27/13/7
s 9
f 26/22/4 30/15/4 29/16/4
s 10
f 30/15/5 22/24/5 31/18/5
s 7
f 31/19/1 24/10/1 32/21/1
s 8
f 32/21/11 26/22/13 29/16/14
s 13
f 51/1/1 35/2/1 33/3/1
s 14
f 52/4/2 37/5/3 35/2/3
s 15
f 37/5/4 50/6/4 39/7/4
s 16
f 50/6/5 33/8/5 39/7/5
s 17
f 40/9/6 36/10/6 34/11/6
s 18
f 33/3/7 37/12/7 39/13/7
s 15
f 45/14/4 42/15/4 41/16/4
s 16
f 42/15/5 47/17/5 43/18/5
s 13
f 43/19/1 48/20/1 44/21/1
s 14
f 44/21/8 45/14/9 41/16/8
s 15
f 38/22/4 46/23/4 45/14/4
s 16
f 46/23/5 34/24/5 47/17/5
s 13
f 47/25/1 36/10/1 48/20/1
s 14
f 48/20/9 38/22/10 45/14/9
s 15
f 49/26/4 42/15/4 50/6/4
s 16
f 50/6/5 43/18/5 51/27/5
s 13
f 52/4/1 43/19/1 44/21/1
s 14
f 52/4/2 41/16/8 49/26/2
s 19
f 63/19/1 55/2/1 53/3/1
s 20
f 64/21/11 57/5/12 55/2/12
s 21
f 57/5/4 62/15/4 59/7/4
s 22
f 62/15/5 53/8/5 59/7/5
s 23
f 60/9/6 56/10/6 54/11/6
s 24
f 53/3/7 57/12/7 59/13/7
s 21
f 58/22/4 62/15/4 61/16/4
s 22
f 62/15/5 54/24/5 63/18/5
s 19
f 63/19/1 56/10/1 64/21/1
s 20
f 64/21/11 58/22/13 61/16/14
s 25
f 83/1/1 67/2/1 65/3/1
s 26
f 84/4/2 69/5/3 67/2/3
s 27
f 69/5/4 82/6/4 71/7/4
s 28
f 82/6/5 65/8/5 71/7/5
s 29
f 72/9/6 68/10/6 66/11/6
s 30
f 65/3/7 69/12/7 71/13/7
s 27
f 77/14/4 74/15/4 73/16/4
s 28
f 74/15/5 79/17/5 75/18/5
s 25
f 75/19/1 80/20/1 76/21/1
s 26
f 76/21/8 77/14/9 73/16/8
s 27
f 70/22/4 78/23/4 77/14/4
s 28
f 78/23/5 66/24/5 79/17/5
s 25
f 79/25/1 68/10/1 80/20/1
s 26
f 80/20/9 70/22/10 77/14/9
s 27
f 81/26/4 74/15/4 82/6/4
s 28
f 82/6/5 75/18/5 83/27/5
s 25
f 84/4/1 75/19/1 76/21/1
s 26
f 84/4/2 73/16/8 81/26/15
s 31
f 95/19/1 87/2/1 85/3/1
s 32
f 96/21/11 89/5/12 87/2/12
s 33
f 89/5/4 94/15/4 91/7/4
s 34
f 94/15/5 85/8/5 91/7/5
s 35
f 92/9/6 88/10/6 86/11/6
s 36
f 85/3/7 89/12/7 91/13/7
s 33
f 90/22/4 94/15/4 93/16/4
s 34
f 94/15/5 86/24/5 95/18/5
s 31
f 95/19/1 88/10/1 96/21/1
s 32
f 96/21/11 90/22/13 93/16/14
s 1
f 19/1/1 20/4/1 3/2/1
s 2
f 20/4/2 17/26/2 5/5/3
s 3
f 5/5/4 17/26/4 18/6/4
s 4
f 18/6/5 19/27/5 1/8/5
s 5
f 8/9/6 6/28/6 4/10/6
s 6
f 1/3/7 3/2/7 5/12/7
s 3
f 13/14/4 14/23/4 10/15/4
s 4
f 10/15/5 14/23/5 15/17/5
s 1
f 11/19/1 15/25/1 16/20/1
s 2
f 12/21/8 16/20/9 13/14/9
s 3
f 6/22/4 8/29/4 14/23/4
s 4
f 14/23/5 8/29/5 2/24/5
s 1
f 15/25/1 2/11/1 4/10/1
s 2
f 16/20/9 4/10/10 6/22/10
s 3
f 17/26/4 9/16/4 10/15/4
s 4
f 18/6/5 10/15/5 11/18/5
s 1
f 20/4/1 19/1/1 11/19/1
s 2
f 20/4/2 12/21/8 9/16/8
s 7
f 31/19/1 32/21/1 23/2/1
s 8
f 32/21/11 29/16/14 25/5/12
s 9
f 25/5/4 29/16/4 30/15/4
s 10
f 30/15/5 31/18/5 21/8/5
s 11
f 28/9/6 26/28/6 24/10/6
s 12
f 21/3/7 23/2/7 25/12/7
s 9
f 26/22/4 28/29/4 30/15/4
s 10
f 30/15/5 28/29/5 22/24/5
s 7
f 31/19/1 22/11/1 24/10/1
s 8
f 32/21/11 24/10/13 26/22/13
s 13
f 51/1/1 52/4/1 35/2/1
s 14
f 52/4/2 49/26/2 37/5/3
s 15
f 37/5/4 49/26/4 50/6/4
s 16
f 50/6/5 51/27/5 33/8/5
s 17
f 40/9/6 38/28/6 36/10/6
s 18
f 33/3/7 35/2/7 37/12/7
s 15
f 45/14/4 46/23/4 42/15/4
s 16
f 42/15/5 46/23/5 47/17/5
s 13
f 43/19/1 47/25/1 48/20/1
s 14
f 44/21/8 48/20/9 45/14/9
s 15
f 38/22/4 40/29/4 46/23/4
s 16
f 46/23/5 40/29/5 34/24/5
s 13
f 47/25/1 34/11/1 36/10/1
s 14
f 48/20/9 36/10/10 38/22/10
s 15
f 49/26/4 41/16/4 42/15/4
s 16
f 50/6/5 42/15/5 43/18/5
s 13
f 52/4/1 51/1/1 43/19/1
s 14
f 52/4/2 44/21/8 41/16/8
s 19
f 63/19/1 64/21/1 55/2/1
s 20
f 64/21/11 61/16/14 57/5/12
s 21
f 57/5/4 61/16/4 62/15/4
s 22
f 62/15/5 63/18/5 53/8/5
s 23
f 60/9/6 58/28/6 56/10/6
s 24
f 53/3/7 55/2/7 57/12/7
s 21
f 58/22/4 60/29/4 62/15/4
s 22
f 62/15/5 60/29/5 54/24/5
s 19
f 63/19/1 54/11/1 56/10/1
s 20
f 64/21/11 56/10/13 58/22/13
s 25
f 83/1/1 84/4/1 67/2/1
s 26
f 84/4/2 81/26/15 69/5/3
s 27
f 69/5/4 81/26/4 82/6/4
s 28
f 82/6/5 83/27/5 65/8/5
s 29
f 72/9/6 70/28/6 68/10/6
s 30
f 65/3/7 67/2/7 69/12/7
s 27
f 77/14/4 78/23/4 74/15/4
s 28
f 74/15/5 78/23/5 79/17/5
s 25
f 75/19/1 79/25/1 80/20/1
s 26
f 76/21/8 80/20/9 77/14/9
s 27
f 70/22/4 72/29/4 78/23/4
s 28
f 78/23/5 72/29/5 66/24/5
s 25
f 79/25/1 66/11/1 68/10/1
s 26
f 80/20/9 68/10/10 70/22/10
s 27
f 81/26/4 73/16/4 74/15/4
s 28
f 82/6/5 74/15/5 75/18/5
s 25
f 84/4/1 83/1/1 75/19/1
s 26
f 84/4/2 76/21/8 73/16/8
s 31
f 95/19/1 96/21/1 87/2/1
s 32
f 96/21/11 93/16/14 89/5/12
s 33
f 89/5/4 93/16/4 94/15/4
s 34
f 94/15/5 95/18/5 85/8/5
s 35
f 92/9/6 90/28/6 88/10/6
s 36
f 85/3/7 87/2/7 89/12/7
s 33
f 90/22/4 92/29/4 94/15/4
s 34
f 94/15/5 92/29/5 86/24/5
s 31
f 95/19/1 86/11/1 88/10/1
s 32
f 96/21/11 88/10/13 90/22/13
