# This file uses centimeters as units for non-parametric coordinates.

mtllib LetreroVelocidad.mtl
g default
v -0.634574 8.792519 -0.086585
v -1.661302 7.773516 -0.086585
v -1.714862 6.327949 -0.086585
v -0.763877 5.302608 -0.086585
v 0.634574 5.298127 -0.086585
v 1.661303 6.317128 -0.086585
v 1.714864 7.762696 -0.086585
v 0.763880 8.788037 -0.086585
v -0.634574 8.792519 0.086585
v -1.661302 7.773516 0.086585
v -1.714862 6.327949 0.086585
v -0.763877 5.302608 0.086585
v 0.634574 5.298127 0.086585
v 1.661303 6.317128 0.086585
v 1.714864 7.762696 0.086585
v 0.763880 8.788037 0.086585
v 0.000001 7.045322 -0.086585
v 0.000001 7.045322 0.086585
v -0.316667 -0.768144 0.064417
v 0.316667 -0.768144 0.064417
v -0.316667 5.286406 0.064417
v 0.316667 5.286406 0.064417
v -0.316667 5.286406 -0.064417
v 0.316667 5.286406 -0.064417
v -0.316667 -0.768144 -0.064417
v 0.316667 -0.768144 -0.064417
vt 0.457126 0.765483
vt 0.436261 0.743666
vt 0.179699 0.643566
vt 0.355776 0.827676
vt 0.434986 0.709893
vt 0.168940 0.358567
vt 0.458020 0.687526
vt 0.363316 0.169824
vt 0.491308 0.687422
vt 0.644224 0.168940
vt 0.512968 0.709243
vt 0.827004 0.353083
vt 0.514243 0.743016
vt 0.837763 0.638081
vt 0.491209 0.765783
vt 0.640035 0.830210
vt 0.474217 0.726653
vt 0.500000 0.500000
vt 0.844674 0.748783
vt 0.897849 0.748783
vt 0.897849 0.801958
vt 0.844674 0.801958
vt 0.897849 0.855133
vt 0.844674 0.855133
vt 0.897849 0.908308
vt 0.844674 0.908308
vt 0.897849 0.961483
vt 0.844674 0.961483
vt 0.951024 0.748783
vt 0.951024 0.801958
vt 0.791499 0.748783
vt 0.791499 0.801958
vn -0.704431 0.709772 0.000000
vn -0.704431 0.709772 0.000000
vn -0.704431 0.709772 0.000000
vn -0.704431 0.709772 0.000000
vn -0.999314 0.037026 0.000000
vn -0.999314 0.037026 0.000000
vn -0.999314 0.037026 0.000000
vn -0.999314 0.037026 0.000000
vn -0.733192 -0.680022 0.000000
vn -0.733192 -0.680022 0.000000
vn -0.733192 -0.680022 0.000000
vn -0.733192 -0.680022 0.000000
vn -0.003204 -0.999995 0.000000
vn -0.003204 -0.999995 0.000000
vn -0.003204 -0.999995 0.000000
vn -0.003204 -0.999995 0.000000
vn 0.704430 -0.709773 0.000000
vn 0.704430 -0.709773 0.000000
vn 0.704430 -0.709773 0.000000
vn 0.704430 -0.709773 0.000000
vn 0.999314 -0.037026 0.000000
vn 0.999314 -0.037026 0.000000
vn 0.999314 -0.037026 0.000000
vn 0.999314 -0.037026 0.000000
vn 0.733192 0.680021 0.000000
vn 0.733192 0.680021 0.000000
vn 0.733192 0.680021 0.000000
vn 0.733192 0.680021 0.000000
vn 0.003204 0.999995 0.000000
vn 0.003204 0.999995 0.000000
vn 0.003204 0.999995 0.000000
vn 0.003204 0.999995 0.000000
vn 0.000000 0.000000 -1.000000
vn 0.000000 0.000000 -1.000000
vn 0.000000 0.000000 -1.000000
vn -0.000000 0.000000 -1.000000
vn 0.000000 0.000000 -1.000000
vn -0.000000 0.000000 -1.000000
vn 0.000000 0.000000 -1.000000
vn 0.000000 0.000000 -1.000000
vn 0.000000 0.000000 -1.000000
vn 0.000000 0.000000 1.000000
vn 0.000000 0.000000 1.000000
vn 0.000000 0.000000 1.000000
vn -0.000000 0.000000 1.000000
vn -0.000000 0.000000 1.000000
vn 0.000000 0.000000 1.000000
vn 0.000000 0.000000 1.000000
vn 0.000000 0.000000 1.000000
vn 0.000000 0.000000 1.000000
vn 0.000000 0.000000 1.000000
vn 0.000000 0.000000 1.000000
vn 0.000000 0.000000 1.000000
vn 0.000000 0.000000 1.000000
vn 0.000000 1.000000 0.000000
vn 0.000000 1.000000 0.000000
vn 0.000000 1.000000 0.000000
vn 0.000000 1.000000 0.000000
vn 0.000000 0.000000 -1.000000
vn 0.000000 0.000000 -1.000000
vn 0.000000 0.000000 -1.000000
vn 0.000000 0.000000 -1.000000
vn 0.000000 -1.000000 0.000000
vn 0.000000 -1.000000 0.000000
vn 0.000000 -1.000000 0.000000
vn 0.000000 -1.000000 0.000000
vn 1.000000 0.000000 0.000000
vn 1.000000 0.000000 0.000000
vn 1.000000 0.000000 0.000000
vn 1.000000 0.000000 0.000000
vn -1.000000 0.000000 0.000000
vn -1.000000 0.000000 0.000000
vn -1.000000 0.000000 0.000000
vn -1.000000 0.000000 0.000000
s 1
g pCylinder2
usemtl phong1SG
f 1/1/1 2/2/2 9/4/3
f 9/4/3 2/2/2 10/3/4
s 2
f 2/2/5 3/5/6 10/3/7
f 10/3/7 3/5/6 11/6/8
s 3
f 3/5/9 4/7/10 11/6/11
f 11/6/11 4/7/10 12/8/12
s 4
f 4/7/13 5/9/14 12/8/15
f 12/8/15 5/9/14 13/10/16
s 5
f 5/9/17 6/11/18 13/10/19
f 13/10/19 6/11/18 14/12/20
s 6
f 6/11/21 7/13/22 14/12/23
f 14/12/23 7/13/22 15/14/24
s 7
f 7/13/25 8/15/26 15/14/27
f 15/14/27 8/15/26 16/16/28
s 8
f 8/15/29 1/1/30 16/16/31
f 16/16/31 1/1/30 9/4/32
s 9
f 2/2/33 1/1/34 17/17/35
f 3/5/36 2/2/33 17/17/35
f 4/7/37 3/5/36 17/17/35
f 5/9/38 4/7/37 17/17/35
f 6/11/39 5/9/38 17/17/35
f 7/13/40 6/11/39 17/17/35
f 8/15/41 7/13/40 17/17/35
f 1/1/34 8/15/41 17/17/35
s 10
f 9/4/42 10/3/43 18/18/44
f 10/3/43 11/6/45 18/18/44
f 11/6/45 12/8/46 18/18/44
f 12/8/46 13/10/47 18/18/44
f 13/10/47 14/12/48 18/18/44
f 14/12/48 15/14/49 18/18/44
f 15/14/49 16/16/50 18/18/44
f 16/16/50 9/4/42 18/18/44
s 11
f 19/19/51 20/20/52 21/22/53
f 21/22/53 20/20/52 22/21/54
s 12
f 21/22/55 22/21/56 23/24/57
f 23/24/57 22/21/56 24/23/58
s 13
f 23/24/59 24/23/60 25/26/61
f 25/26/61 24/23/60 26/25/62
s 14
f 25/26/63 26/25/64 19/28/65
f 19/28/65 26/25/64 20/27/66
s 15
f 20/20/67 26/29/68 22/21/69
f 22/21/69 26/29/68 24/30/70
s 16
f 25/31/71 19/19/72 23/32/73
f 23/32/73 19/19/72 21/22/74
g default
v -0.634574 8.792519 -0.086585
v -1.661302 7.773516 -0.086585
v -1.714862 6.327949 -0.086585
v -0.763877 5.302608 -0.086585
v 0.634574 5.298127 -0.086585
v 1.661303 6.317128 -0.086585
v 1.714864 7.762696 -0.086585
v 0.763880 8.788037 -0.086585
v -0.634574 8.792519 0.086585
v -1.661302 7.773516 0.086585
v -1.714862 6.327949 0.086585
v -0.763877 5.302608 0.086585
v 0.634574 5.298127 0.086585
v 1.661303 6.317128 0.086585
v 1.714864 7.762696 0.086585
v 0.763880 8.788037 0.086585
v 0.000001 7.045322 -0.086585
v 0.000001 7.045322 0.086585
v -0.316667 -0.768144 0.064417
v 0.316667 -0.768144 0.064417
v -0.316667 5.286406 0.064417
v 0.316667 5.286406 0.064417
v -0.316667 5.286406 -0.064417
v 0.316667 5.286406 -0.064417
v -0.316667 -0.768144 -0.064417
v 0.316667 -0.768144 -0.064417
vt 0.457126 0.765483
vt 0.436261 0.743666
vt 0.179699 0.643566
vt 0.355776 0.827676
vt 0.434986 0.709893
vt 0.168940 0.358567
vt 0.458020 0.687526
vt 0.363316 0.169824
vt 0.491308 0.687422
vt 0.644224 0.168940
vt 0.512968 0.709243
vt 0.827004 0.353083
vt 0.514243 0.743016
vt 0.837763 0.638081
vt 0.491209 0.765783
vt 0.640035 0.830210
vt 0.474217 0.726653
vt 0.500000 0.500000
vt 0.844674 0.748783
vt 0.897849 0.748783
vt 0.897849 0.801958
vt 0.844674 0.801958
vt 0.897849 0.855133
vt 0.844674 0.855133
vt 0.897849 0.908308
vt 0.844674 0.908308
vt 0.897849 0.961483
vt 0.844674 0.961483
vt 0.951024 0.748783
vt 0.951024 0.801958
vt 0.791499 0.748783
vt 0.791499 0.801958
vn -0.704431 0.709772 0.000000
vn -0.704431 0.709772 0.000000
vn -0.704431 0.709772 0.000000
vn -0.704431 0.709772 0.000000
vn -0.999314 0.037026 0.000000
vn -0.999314 0.037026 0.000000
vn -0.999314 0.037026 0.000000
vn -0.999314 0.037026 0.000000
vn -0.733192 -0.680022 0.000000
vn -0.733192 -0.680022 0.000000
vn -0.733192 -0.680022 0.000000
vn -0.733192 -0.680022 0.000000
vn -0.003204 -0.999995 0.000000
vn -0.003204 -0.999995 0.000000
vn -0.003204 -0.999995 0.000000
vn -0.003204 -0.999995 0.000000
vn 0.704430 -0.709773 0.000000
vn 0.704430 -0.709773 0.000000
vn 0.704430 -0.709773 0.000000
vn 0.704430 -0.709773 0.000000
vn 0.999314 -0.037026 0.000000
vn 0.999314 -0.037026 0.000000
vn 0.999314 -0.037026 0.000000
vn 0.999314 -0.037026 0.000000
vn 0.733192 0.680021 0.000000
vn 0.733192 0.680021 0.000000
vn 0.733192 0.680021 0.000000
vn 0.733192 0.680021 0.000000
vn 0.003204 0.999995 0.000000
vn 0.003204 0.999995 0.000000
vn 0.003204 0.999995 0.000000
vn 0.003204 0.999995 0.000000
vn 0.000000 0.000000 -1.000000
vn 0.000000 0.000000 -1.000000
vn 0.000000 0.000000 -1.000000
vn -0.000000 0.000000 -1.000000
vn 0.000000 0.000000 -1.000000
vn -0.000000 0.000000 -1.000000
vn 0.000000 0.000000 -1.000000
vn 0.000000 0.000000 -1.000000
vn 0.000000 0.000000 -1.000000
vn 0.000000 0.000000 1.000000
vn 0.000000 0.000000 1.000000
vn 0.000000 0.000000 1.000000
vn -0.000000 0.000000 1.000000
vn -0.000000 0.000000 1.000000
vn 0.000000 0.000000 1.000000
vn 0.000000 0.000000 1.000000
vn 0.000000 0.000000 1.000000
vn 0.000000 0.000000 1.000000
vn 0.000000 0.000000 1.000000
vn 0.000000 0.000000 1.000000
vn 0.000000 0.000000 1.000000
vn 0.000000 0.000000 1.000000
vn 0.000000 1.000000 0.000000
vn 0.000000 1.000000 0.000000
vn 0.000000 1.000000 0.000000
vn 0.000000 1.000000 0.000000
vn 0.000000 0.000000 -1.000000
vn 0.000000 0.000000 -1.000000
vn 0.000000 0.000000 -1.000000
vn 0.000000 0.000000 -1.000000
vn 0.000000 -1.000000 0.000000
vn 0.000000 -1.000000 0.000000
vn 0.000000 -1.000000 0.000000
vn 0.000000 -1.000000 0.000000
vn 1.000000 0.000000 0.000000
vn 1.000000 0.000000 0.000000
vn 1.000000 0.000000 0.000000
vn 1.000000 0.000000 0.000000
vn -1.000000 0.000000 0.000000
vn -1.000000 0.000000 0.000000
vn -1.000000 0.000000 0.000000
vn -1.000000 0.000000 0.000000
s 1
g pCylinder2
f 27/33/75 28/34/76 35/36/77
f 35/36/77 28/34/76 36/35/78
s 2
f 28/34/79 29/37/80 36/35/81
f 36/35/81 29/37/80 37/38/82
s 3
f 29/37/83 30/39/84 37/38/85
f 37/38/85 30/39/84 38/40/86
s 4
f 30/39/87 31/41/88 38/40/89
f 38/40/89 31/41/88 39/42/90
s 5
f 31/41/91 32/43/92 39/42/93
f 39/42/93 32/43/92 40/44/94
s 6
f 32/43/95 33/45/96 40/44/97
f 40/44/97 33/45/96 41/46/98
s 7
f 33/45/99 34/47/100 41/46/101
f 41/46/101 34/47/100 42/48/102
s 8
f 34/47/103 27/33/104 42/48/105
f 42/48/105 27/33/104 35/36/106
s 9
f 28/34/107 27/33/108 43/49/109
f 29/37/110 28/34/107 43/49/109
f 30/39/111 29/37/110 43/49/109
f 31/41/112 30/39/111 43/49/109
f 32/43/113 31/41/112 43/49/109
f 33/45/114 32/43/113 43/49/109
f 34/47/115 33/45/114 43/49/109
f 27/33/108 34/47/115 43/49/109
s 10
f 35/36/116 36/35/117 44/50/118
f 36/35/117 37/38/119 44/50/118
f 37/38/119 38/40/120 44/50/118
f 38/40/120 39/42/121 44/50/118
f 39/42/121 40/44/122 44/50/118
f 40/44/122 41/46/123 44/50/118
f 41/46/123 42/48/124 44/50/118
f 42/48/124 35/36/116 44/50/118
s 11
f 45/51/125 46/52/126 47/54/127
f 47/54/127 46/52/126 48/53/128
s 12
f 47/54/129 48/53/130 49/56/131
f 49/56/131 48/53/130 50/55/132
s 13
f 49/56/133 50/55/134 51/58/135
f 51/58/135 50/55/134 52/57/136
s 14
f 51/58/137 52/57/138 45/60/139
f 45/60/139 52/57/138 46/59/140
s 15
f 46/52/141 52/61/142 48/53/143
f 48/53/143 52/61/142 50/62/144
s 16
f 51/63/145 45/51/146 49/64/147
f 49/64/147 45/51/146 47/54/148
