# This file uses centimeters as units for non-parametric coordinates.

mtllib Ciclovia.mtl
g default
v -0.973501 -0.001120 1.956480
v 0.973501 -0.001120 1.956480
v -0.973501 0.001120 1.956480
v 0.973501 0.001120 1.956480
v -0.973501 0.001120 -1.956480
v 0.973501 0.001120 -1.956480
v -0.973501 -0.001120 -1.956480
v 0.973501 -0.001120 -1.956480
vt 0.375000 0.000000
vt 0.625000 0.000000
vt 0.375000 0.250000
vt 0.625000 0.250000
vt 0.375000 0.500000
vt 0.625000 0.500000
vt 0.375000 0.750000
vt 0.625000 0.750000
vt 0.375000 1.000000
vt 0.625000 1.000000
vt 0.002111 1.002102
vt -0.002102 0.002111
vt 0.000000 0.000000
vt 1.000000 0.000000
vt 1.000000 1.000000
vt 0.000000 1.000000
vt 0.002050 -0.002042
vt -0.002042 0.997950
vt 0.997889 -0.002102
vt 1.002102 0.997889
vt 0.997950 1.002042
vt 1.002042 0.002050
vn 0.000000 0.000000 1.000000
vn 0.000000 0.000000 1.000000
vn 0.000000 0.000000 1.000000
vn 0.000000 0.000000 1.000000
vn 0.000000 1.000000 0.000000
vn 0.000000 1.000000 0.000000
vn 0.000000 1.000000 0.000000
vn 0.000000 1.000000 0.000000
vn 0.000000 0.000000 -1.000000
vn 0.000000 0.000000 -1.000000
vn 0.000000 0.000000 -1.000000
vn 0.000000 0.000000 -1.000000
vn 0.000000 -1.000000 0.000000
vn 0.000000 -1.000000 0.000000
vn 0.000000 -1.000000 0.000000
vn 0.000000 -1.000000 0.000000
vn 1.000000 0.000000 0.000000
vn 1.000000 0.000000 0.000000
vn 1.000000 0.000000 0.000000
vn 1.000000 0.000000 0.000000
vn -1.000000 0.000000 0.000000
vn -1.000000 0.000000 0.000000
vn -1.000000 0.000000 0.000000
vn -1.000000 0.000000 0.000000
s off
g pCube11
usemtl lambert21SG
f 1/1/1 2/2/2 4/4/3 3/3/4
f 3/13/5 4/14/6 6/15/7 5/16/8
f 5/5/9 6/6/10 8/8/11 7/7/12
f 7/7/13 8/8/14 2/10/15 1/9/16
f 2/11/17 8/12/18 6/19/19 4/20/20
f 7/17/21 1/18/22 3/21/23 5/22/24
