# This file uses centimeters as units for non-parametric coordinates.

mtllib casco.mtl
g default
v -0.096415 -0.127928 0.636274
v 0.005547 -0.108412 0.636274
v -0.096415 -0.127928 0.685493
v 0.005547 -0.108412 0.685493
v -0.240728 0.529302 0.685493
v -0.138767 0.548818 0.685493
v -0.240728 0.529302 0.636274
v -0.138767 0.548818 0.636274
v -0.359151 -0.112509 0.636274
v -0.256476 -0.128432 0.636274
v -0.359151 -0.112509 0.685493
v -0.256476 -0.128432 0.685493
v -0.241405 0.549322 0.685493
v -0.138731 0.533399 0.685493
v -0.241405 0.549322 0.636274
v -0.138731 0.533399 0.636274
v -0.102672 1.407252 -0.206216
v -0.153489 1.407252 -0.136273
v -0.228360 1.407252 -0.093046
v -0.314341 1.407252 -0.084009
v -0.396564 1.407253 -0.110725
v -0.460813 1.407253 -0.168574
v -0.495977 1.407252 -0.247554
v -0.495977 1.407252 -0.334009
v -0.460813 1.407252 -0.412989
v -0.396564 1.407252 -0.470838
v -0.314342 1.407252 -0.497554
v -0.228360 1.407252 -0.488517
v -0.153489 1.407252 -0.445290
v -0.102672 1.407252 -0.375347
v -0.084697 1.407252 -0.290781
v 0.078964 1.342650 -0.125347
v -0.020449 1.342650 0.011483
v -0.166920 1.342649 0.096048
v -0.335124 1.342650 0.113727
v -0.495977 1.342650 0.061463
v -0.621665 1.342650 -0.051708
v -0.690457 1.342650 -0.206216
v -0.690457 1.342649 -0.375347
v -0.621665 1.342649 -0.529855
v -0.495977 1.342649 -0.643026
v -0.335124 1.342649 -0.695290
v -0.166920 1.342650 -0.677611
v -0.020449 1.342650 -0.593046
v 0.078964 1.342649 -0.456216
v 0.114128 1.342649 -0.290781
v 0.244360 1.238122 -0.051708
v 0.100696 1.238122 0.146028
v -0.110973 1.238121 0.268235
v -0.354049 1.238122 0.293784
v -0.586501 1.238122 0.218256
v -0.768137 1.238122 0.054710
v -0.867549 1.238122 -0.168574
v -0.867549 1.238121 -0.412989
v -0.768137 1.238121 -0.636273
v -0.586501 1.238121 -0.799819
v -0.354049 1.238121 -0.875347
v -0.110973 1.238122 -0.849798
v 0.100696 1.238122 -0.727591
v 0.244360 1.238121 -0.529855
v 0.295177 1.238121 -0.290781
v 0.386288 1.098234 0.011483
v 0.204652 1.098234 0.261483
v -0.062964 1.098234 0.415991
v -0.370288 1.098234 0.448292
v -0.664181 1.098234 0.352801
v -0.893826 1.098234 0.146028
v -1.019514 1.098234 -0.136273
v -1.019514 1.098234 -0.445290
v -0.893826 1.098234 -0.727591
v -0.664181 1.098234 -0.934364
v -0.370289 1.098234 -1.029855
v -0.062964 1.098234 -0.997554
v 0.204652 1.098234 -0.843046
v 0.386288 1.098234 -0.593046
v 0.546447 0.986338 -0.290781
v 0.594456 0.817208 0.061462
v 0.286875 0.929104 0.352800
v -0.024992 0.929104 0.532857
v -0.383133 0.929104 0.570499
v -0.725621 0.929104 0.459219
v -0.993238 0.929104 0.218256
v -1.139709 0.929104 -0.110724
v -1.139709 0.929104 -0.470838
v -0.993238 0.929104 -0.799819
v -0.725621 0.929104 -1.040781
v -0.383133 0.929104 -1.152062
v -0.024992 0.929104 -1.114420
v 0.286875 0.929104 -0.934364
v 0.594456 0.817208 -0.643026
v 0.669327 0.817208 -0.290781
v 0.672135 0.546299 0.096048
v 0.343772 0.738121 0.415991
v 0.001284 0.738121 0.613727
v -0.392021 0.738121 0.655065
v -0.768137 0.738121 0.532857
v -1.062029 0.738121 0.268236
v -1.222882 0.738121 -0.093046
v -1.222882 0.738121 -0.488517
v -1.062030 0.738121 -0.849798
v -0.768137 0.738121 -1.114420
v -0.392021 0.738121 -1.236628
v 0.001284 0.738121 -1.195290
v 0.343772 0.738121 -0.997554
v 0.672135 0.546299 -0.677611
v 0.754359 0.546299 -0.290781
v 0.711843 0.245900 0.113727
v 0.372856 0.533632 0.448292
v 0.014716 0.533632 0.655065
v -0.396564 0.533632 0.698292
v -0.789870 0.533632 0.570499
v -1.257045 0.597573 0.293784
v -1.425249 0.597573 -0.084009
v -1.425250 0.597573 -0.497554
v -1.257045 0.597573 -0.875347
v -0.789870 0.533632 -1.152062
v -0.396565 0.533632 -1.279855
v 0.014715 0.533632 -1.236628
v 0.372856 0.533632 -1.029855
v 0.711843 0.245900 -0.695290
v 0.797824 0.245900 -0.290781
v -0.335354 1.233505 -0.304634
v -0.292609 1.429104 -0.290781
v -0.096415 -0.117792 -1.265587
v 0.005547 -0.098276 -1.265587
v -0.096415 -0.117792 -1.216369
v 0.005547 -0.098276 -1.216369
v -0.240728 0.539438 -1.216369
v -0.138767 0.558954 -1.216369
v -0.240728 0.539438 -1.265587
v -0.138767 0.558954 -1.265587
v -0.359151 -0.102373 -1.265587
v -0.256476 -0.118297 -1.265587
v -0.359151 -0.102373 -1.216369
v -0.256476 -0.118297 -1.216369
v -0.241405 0.559458 -1.216369
v -0.138731 0.543535 -1.216369
v -0.241405 0.559458 -1.265587
v -0.138731 0.543535 -1.265587
vt 0.791195 0.325509
vt 0.878441 0.325509
vt 0.791195 0.412754
vt 0.878441 0.412754
vt 0.791195 0.500000
vt 0.878441 0.500000
vt 0.791195 0.587246
vt 0.878441 0.587246
vt 0.791195 0.674491
vt 0.878441 0.674491
vt 0.965686 0.325509
vt 0.965686 0.412754
vt 0.703949 0.325509
vt 0.703949 0.412754
vt 0.791195 0.325509
vt 0.878441 0.325509
vt 0.878441 0.412754
vt 0.791195 0.412754
vt 0.878441 0.500000
vt 0.791195 0.500000
vt 0.878441 0.587246
vt 0.791195 0.587246
vt 0.878441 0.674491
vt 0.791195 0.674491
vt 0.965686 0.325509
vt 0.965686 0.412754
vt 0.703949 0.325509
vt 0.703949 0.412754
vt 0.575453 0.410939
vt 0.571541 0.405555
vt 0.581783 0.394179
vt 0.589437 0.404713
vt 0.565777 0.402227
vt 0.570507 0.387669
vt 0.559158 0.401531
vt 0.557558 0.386308
vt 0.552828 0.403588
vt 0.545174 0.390332
vt 0.547882 0.408041
vt 0.535498 0.399044
vt 0.545174 0.414122
vt 0.530202 0.410939
vt 0.545174 0.420777
vt 0.530202 0.423960
vt 0.547882 0.426858
vt 0.535498 0.435855
vt 0.552828 0.431311
vt 0.545174 0.444567
vt 0.559158 0.433368
vt 0.557558 0.448591
vt 0.565777 0.432672
vt 0.570507 0.447230
vt 0.571541 0.429344
vt 0.581783 0.440719
vt 0.575453 0.423960
vt 0.589437 0.430186
vt 0.576837 0.417449
vt 0.592144 0.417449
vt 0.591110 0.383821
vt 0.602170 0.399044
vt 0.574814 0.374413
vt 0.556101 0.372446
vt 0.538205 0.378261
vt 0.524222 0.390852
vt 0.516569 0.408041
vt 0.574769 0.554764
vt 0.574769 0.541744
vt 0.582816 0.538846
vt 0.582816 0.557662
vt 0.524222 0.444047
vt 0.516569 0.426858
vt 0.538205 0.456638
vt 0.556101 0.462453
vt 0.574814 0.460486
vt 0.591110 0.451078
vt 0.602170 0.435855
vt 0.606082 0.417449
vt 0.432465 0.561871
vt 0.432465 0.546648
vt 0.443234 0.537759
vt 0.443234 0.557006
vt 0.578510 0.363038
vt 0.599113 0.374933
vt 0.554851 0.360551
vt 0.532225 0.367903
vt 0.514546 0.383821
vt 0.582816 0.574852
vt 0.593585 0.560149
vt 0.593585 0.581882
vt 0.593585 0.536359
vt 0.582816 0.521656
vt 0.593585 0.514626
vt 0.532225 0.466996
vt 0.514546 0.451078
vt 0.554851 0.474348
vt 0.578510 0.471861
vt 0.599113 0.459966
vt 0.432465 0.613904
vt 0.432465 0.598681
vt 0.443234 0.603546
vt 0.443234 0.622792
vt 0.432465 0.580276
vt 0.451849 0.580276
vt 0.456255 0.530729
vt 0.464869 0.553158
vt 0.581434 0.354041
vt 0.605443 0.367903
vt 0.553862 0.351143
vt 0.527495 0.359710
vt 0.593585 0.597801
vt 0.606606 0.587443
vt 0.606606 0.605993
vt 0.606606 0.562116
vt 0.606606 0.534392
vt 0.606606 0.509065
vt 0.593585 0.498707
vt 0.606606 0.490515
vt 0.553862 0.483756
vt 0.527495 0.475189
vt 0.581434 0.480858
vt 0.605443 0.466996
vt 0.464869 0.607394
vt 0.456255 0.629822
vt 0.464869 0.580276
vt 0.470958 0.525865
vt 0.485725 0.550496
vt 0.573094 0.491465
vt 0.573094 0.515474
vt 0.558391 0.513451
vt 0.558391 0.487085
vt 0.573094 0.543046
vt 0.558391 0.543730
vt 0.573094 0.569413
vt 0.558391 0.572686
vt 0.621309 0.591290
vt 0.621309 0.611662
vt 0.621309 0.563477
vt 0.621309 0.533031
vt 0.621309 0.505218
vt 0.621309 0.484846
vt 0.510527 0.607945
vt 0.510527 0.581578
vt 0.525230 0.582262
vt 0.525230 0.611218
vt 0.510527 0.554006
vt 0.525230 0.551984
vt 0.510527 0.529997
vt 0.525230 0.525617
vt 0.485725 0.610056
vt 0.470958 0.634687
vt 0.485725 0.580276
vt 0.486701 0.523378
vt 0.508852 0.549135
vt 0.542648 0.512417
vt 0.542648 0.484846
vt 0.542648 0.544080
vt 0.542648 0.574359
vt 0.558391 0.595311
vt 0.547571 0.610325
vt 0.632129 0.564173
vt 0.632129 0.593257
vt 0.632129 0.532335
vt 0.632129 0.503251
vt 0.525230 0.633843
vt 0.540973 0.612891
vt 0.536050 0.648857
vt 0.540973 0.582612
vt 0.540973 0.550950
vt 0.540973 0.523378
vt 0.508852 0.611417
vt 0.486701 0.637174
vt 0.508852 0.580276
vt 0.467450 0.357762
vt 0.493207 0.383860
vt 0.435242 0.438382
vt 0.509125 0.411431
vt 0.512453 0.443094
vt 0.502615 0.473373
vt 0.481312 0.509339
vt 0.452227 0.522288
vt 0.420390 0.522288
vt 0.391305 0.509339
vt 0.370002 0.473373
vt 0.360164 0.443094
vt 0.363492 0.411431
vt 0.379410 0.383860
vt 0.405167 0.357762
vt 0.436309 0.351143
vt 0.560831 0.417449
vt 0.834469 0.287950
vt 0.913947 0.287950
vt 0.913947 0.393975
vt 0.834469 0.393975
vt 0.913947 0.500000
vt 0.834469 0.500000
vt 0.913947 0.606025
vt 0.834469 0.606025
vt 0.913947 0.712050
vt 0.834469 0.712050
vt 0.993424 0.287950
vt 0.993424 0.393975
vt 0.754992 0.287950
vt 0.754992 0.393975
vt 0.834469 0.287950
vt 0.913947 0.287950
vt 0.913947 0.393975
vt 0.834469 0.393975
vt 0.913947 0.500000
vt 0.834469 0.500000
vt 0.913947 0.606025
vt 0.834469 0.606025
vt 0.913947 0.712050
vt 0.834469 0.712050
vt 0.993424 0.287950
vt 0.993424 0.393975
vt 0.754992 0.287950
vt 0.754992 0.393975
vn 0.187995 -0.982170 0.000000
vn 0.187995 -0.982170 0.000000
vn 0.187995 -0.982170 0.000000
vn 0.187995 -0.982170 0.000000
vn -0.000000 0.000000 1.000000
vn -0.000000 0.000000 1.000000
vn -0.000000 0.000000 1.000000
vn 0.000000 0.000000 1.000000
vn -0.187994 0.982170 0.000000
vn -0.187994 0.982170 0.000000
vn -0.187994 0.982170 0.000000
vn -0.187994 0.982170 0.000000
vn 0.000000 0.000000 -1.000000
vn 0.000000 0.000000 -1.000000
vn 0.000000 0.000000 -1.000000
vn 0.000000 0.000000 -1.000000
vn 0.976731 0.214470 0.000000
vn 0.976731 0.214470 0.000000
vn 0.976731 0.214470 0.000000
vn 0.976731 0.214470 0.000000
vn -0.976731 -0.214469 0.000000
vn -0.976731 -0.214469 0.000000
vn -0.976731 -0.214469 0.000000
vn -0.976731 -0.214469 0.000000
vn -0.153251 -0.988187 0.000000
vn -0.153251 -0.988187 0.000000
vn -0.153251 -0.988187 0.000000
vn -0.153251 -0.988187 0.000000
vn 0.000000 0.000000 1.000000
vn 0.000000 0.000000 1.000000
vn 0.000000 0.000000 1.000000
vn 0.000000 0.000000 1.000000
vn 0.153252 0.988187 0.000000
vn 0.153252 0.988187 0.000000
vn 0.153252 0.988187 0.000000
vn 0.153252 0.988187 0.000000
vn -0.000000 0.000000 -1.000000
vn 0.000001 0.000000 -1.000000
vn -0.000000 0.000000 -1.000000
vn 0.000001 0.000000 -1.000000
vn 0.984540 -0.175158 0.000000
vn 0.984540 -0.175159 0.000000
vn 0.984540 -0.175159 0.000000
vn 0.984540 -0.175158 0.000000
vn -0.984540 0.175159 0.000000
vn -0.984540 0.175158 0.000000
vn -0.984540 0.175159 0.000000
vn -0.984540 0.175158 0.000000
vn 0.213328 0.973055 0.087495
vn 0.159296 0.973055 0.166700
vn 0.393504 0.904305 0.165491
vn 0.292170 0.904305 0.311240
vn 0.077721 0.973055 0.217082
vn 0.140320 0.904304 0.403168
vn -0.017286 0.973055 0.229925
vn -0.035792 0.904305 0.425385
vn -0.109312 0.973055 0.203014
vn -0.205720 0.904304 0.374050
vn -0.182441 0.973055 0.140996
vn -0.340074 0.904304 0.258037
vn -0.224016 0.973055 0.054601
vn -0.415626 0.904305 0.097406
vn -0.226858 0.973055 -0.041232
vn -0.419313 0.904304 -0.080066
vn -0.190476 0.973054 -0.129939
vn -0.350498 0.904304 -0.243691
vn -0.121158 0.973055 -0.196177
vn -0.221077 0.904304 -0.365183
vn -0.030890 0.973054 -0.228497
vn -0.053432 0.904304 -0.423532
vn 0.064717 0.973055 -0.221305
vn 0.123452 0.904305 -0.408647
vn 0.149135 0.973055 -0.175848
vn 0.278994 0.904305 -0.323103
vn 0.207768 0.973055 -0.099986
vn 0.386293 0.904304 -0.181692
vn 0.230474 0.973054 -0.006836
vn 0.426797 0.904304 -0.008869
vn 0.549295 0.800139 0.240942
vn 0.410670 0.797651 0.441705
vn 0.195510 0.797652 0.570550
vn -0.053456 0.797651 0.600745
vn -0.293181 0.797651 0.527065
vn -0.482210 0.797651 0.362251
vn -0.587862 0.797651 0.134798
vn -0.591865 0.797652 -0.115960
vn -0.493531 0.797653 -0.346667
vn -0.309861 0.797653 -0.517433
vn -0.072614 0.797652 -0.598730
vn 0.177190 0.797652 -0.576503
vn 0.396358 0.797651 -0.454591
vn 0.546988 0.797652 -0.254076
vn 0.643102 0.765777 -0.002351
vn 0.692854 0.653011 0.305825
vn 0.505633 0.659824 0.555849
vn 0.241241 0.657703 0.713603
vn -0.069864 0.657702 0.750032
vn -0.368889 0.657702 0.656772
vn -0.604130 0.657702 0.449950
vn -0.734912 0.657702 0.165328
vn -0.738619 0.657703 -0.147881
vn -0.614614 0.657703 -0.435519
vn -0.384336 0.657703 -0.647852
vn -0.087603 0.657702 -0.748167
vn 0.224278 0.657702 -0.719116
vn 0.497379 0.657702 -0.565723
vn 0.690456 0.654719 -0.307592
vn 0.766628 0.642092 0.000000
vn 0.584794 0.503908 0.635683
vn 0.810151 0.438423 0.389155
vn 0.276062 0.490344 0.826651
vn -0.084034 0.490344 0.867468
vn -0.429600 0.490344 0.758292
vn -0.700884 0.490344 0.518000
vn -0.850979 0.490344 0.188142
vn -0.853932 0.490344 -0.174248
vn -0.709233 0.490344 -0.506510
vn -0.441900 0.490344 -0.751191
vn -0.098159 0.490344 -0.865984
vn 0.262554 0.490344 -0.831040
vn 0.579991 0.503969 -0.640020
vn 0.807831 0.440350 -0.391791
vn 0.909116 0.416528 -0.003630
vn 0.626982 0.304283 0.717151
vn 0.874515 0.209849 0.437249
vn 0.298849 0.302592 0.905057
vn -0.095107 0.302592 0.948363
vn -0.472619 0.302591 0.827689
vn -0.591009 0.567054 0.573723
vn -0.722701 0.671608 0.163234
vn -0.722680 0.673114 -0.157006
vn -0.594253 0.567375 -0.570042
vn -0.478860 0.303390 -0.823800
vn -0.104147 0.302592 -0.947413
vn 0.290205 0.302592 -0.907865
vn 0.624018 0.304877 -0.719480
vn 0.872544 0.209218 -0.441470
vn 0.976480 0.215571 -0.003995
vn -0.489837 -0.866724 -0.094074
vn -0.548214 -0.836109 -0.019569
vn -0.138628 -0.897092 -0.419533
vn 0.043995 -0.893920 -0.446062
vn 0.146263 -0.870354 -0.470203
vn 0.305198 -0.874170 -0.377731
vn 0.466916 -0.878535 -0.100826
vn 0.469151 -0.877468 0.099734
vn 0.313626 -0.869825 0.380845
vn 0.151779 -0.863182 0.481539
vn 0.043871 -0.888472 0.456830
vn -0.143725 -0.892129 0.428308
vn -0.492565 -0.865403 0.091964
vn -0.550606 -0.834494 0.021257
vn -0.521641 -0.853164 -0.001760
vn -0.101129 -0.994869 0.002940
vn 0.000001 1.000000 -0.000001
vn 0.187995 -0.982170 0.000000
vn 0.187995 -0.982170 0.000000
vn 0.187995 -0.982170 0.000000
vn 0.187995 -0.982170 0.000000
vn -0.000000 0.000000 1.000000
vn 0.000002 0.000000 1.000000
vn -0.000000 0.000000 1.000000
vn 0.000002 0.000000 1.000000
vn -0.187994 0.982170 0.000000
vn -0.187994 0.982170 0.000000
vn -0.187994 0.982170 0.000000
vn -0.187994 0.982170 0.000000
vn 0.000000 0.000000 -1.000000
vn -0.000000 0.000000 -1.000000
vn -0.000000 0.000000 -1.000000
vn -0.000000 0.000000 -1.000000
vn 0.976731 0.214470 0.000000
vn 0.976731 0.214470 0.000000
vn 0.976731 0.214470 0.000000
vn 0.976731 0.214470 0.000000
vn -0.976731 -0.214469 0.000000
vn -0.976731 -0.214469 0.000000
vn -0.976731 -0.214469 0.000000
vn -0.976731 -0.214469 0.000000
vn -0.153251 -0.988187 0.000000
vn -0.153251 -0.988187 0.000000
vn -0.153251 -0.988187 0.000000
vn -0.153251 -0.988187 0.000000
vn 0.000000 0.000000 1.000000
vn -0.000000 0.000000 1.000000
vn -0.000001 0.000000 1.000000
vn -0.000001 0.000000 1.000000
vn 0.153252 0.988187 0.000000
vn 0.153253 0.988187 0.000000
vn 0.153252 0.988187 0.000000
vn 0.153253 0.988187 0.000000
vn -0.000000 0.000000 -1.000000
vn 0.000002 0.000000 -1.000000
vn -0.000000 0.000000 -1.000000
vn 0.000002 0.000000 -1.000000
vn 0.984540 -0.175159 0.000000
vn 0.984540 -0.175158 0.000000
vn 0.984540 -0.175159 0.000000
vn 0.984540 -0.175158 0.000000
vn -0.984540 0.175158 0.000000
vn -0.984540 0.175159 0.000000
vn -0.984540 0.175158 0.000000
vn -0.984540 0.175159 0.000000
s 1
g pasted__pCube15 group
usemtl pasted__phong7SG
f 1/1/1 2/2/2 3/3/3
f 3/3/3 2/2/2 4/4/4
s 2
f 4/4/5 6/6/6 3/3/7
f 3/3/7 6/6/6 5/5/8
s 3
f 5/5/9 6/6/10 7/7/11
f 7/7/11 6/6/10 8/8/12
s 4
f 7/7/13 8/8/14 1/9/15
f 1/9/15 8/8/14 2/10/16
s 5
f 2/2/17 8/11/18 4/4/19
f 4/4/19 8/11/18 6/12/20
s 6
f 7/13/21 1/1/22 5/14/23
f 5/14/23 1/1/22 3/3/24
s 7
f 9/15/25 10/16/26 11/18/27
f 11/18/27 10/16/26 12/17/28
s 8
f 11/18/29 12/17/30 13/20/31
f 13/20/31 12/17/30 14/19/32
s 9
f 13/20/33 14/19/34 15/22/35
f 15/22/35 14/19/34 16/21/36
s 10
f 16/21/37 10/23/38 15/22/39
f 15/22/39 10/23/38 9/24/40
s 11
f 10/16/41 16/25/42 12/17/43
f 12/17/43 16/25/42 14/26/44
s 12
f 15/27/45 9/15/46 13/28/47
f 13/28/47 9/15/46 11/18/48
s 13
f 17/29/49 18/30/50 32/32/51
f 32/32/51 18/30/50 33/31/52
f 18/30/50 19/33/53 33/31/52
f 33/31/52 19/33/53 34/34/54
f 19/33/53 20/35/55 34/34/54
f 34/34/54 20/35/55 35/36/56
f 20/35/55 21/37/57 35/36/56
f 35/36/56 21/37/57 36/38/58
f 21/37/57 22/39/59 36/38/58
f 36/38/58 22/39/59 37/40/60
f 22/39/59 23/41/61 37/40/60
f 37/40/60 23/41/61 38/42/62
f 23/41/61 24/43/63 38/42/62
f 38/42/62 24/43/63 39/44/64
f 24/43/63 25/45/65 39/44/64
f 39/44/64 25/45/65 40/46/66
f 25/45/65 26/47/67 40/46/66
f 40/46/66 26/47/67 41/48/68
f 26/47/67 27/49/69 41/48/68
f 41/48/68 27/49/69 42/50/70
f 27/49/69 28/51/71 42/50/70
f 42/50/70 28/51/71 43/52/72
f 28/51/71 29/53/73 43/52/72
f 43/52/72 29/53/73 44/54/74
f 29/53/73 30/55/75 44/54/74
f 44/54/74 30/55/75 45/56/76
f 30/55/75 31/57/77 45/56/76
f 45/56/76 31/57/77 46/58/78
f 31/57/77 17/29/49 46/58/78
f 46/58/78 17/29/49 32/32/51
f 32/32/51 33/31/52 47/60/79
f 47/60/79 33/31/52 48/59/80
f 33/31/52 34/34/54 48/59/80
f 48/59/80 34/34/54 49/61/81
f 34/34/54 35/36/56 49/61/81
f 49/61/81 35/36/56 50/62/82
f 35/36/56 36/38/58 50/62/82
f 50/62/82 36/38/58 51/63/83
f 36/38/58 37/40/60 51/63/83
f 51/63/83 37/40/60 52/64/84
f 37/40/60 38/42/62 52/64/84
f 52/64/84 38/42/62 53/65/85
f 38/66/62 39/67/64 53/69/85
f 53/69/85 39/67/64 54/68/86
f 39/44/64 40/46/66 54/71/86
f 54/71/86 40/46/66 55/70/87
f 40/46/66 41/48/68 55/70/87
f 55/70/87 41/48/68 56/72/88
f 41/48/68 42/50/70 56/72/88
f 56/72/88 42/50/70 57/73/89
f 42/50/70 43/52/72 57/73/89
f 57/73/89 43/52/72 58/74/90
f 43/52/72 44/54/74 58/74/90
f 58/74/90 44/54/74 59/75/91
f 44/54/74 45/56/76 59/75/91
f 59/75/91 45/56/76 60/76/92
f 45/56/76 46/58/78 60/76/92
f 60/76/92 46/58/78 61/77/93
f 46/58/78 32/32/51 61/77/93
f 61/77/93 32/32/51 47/60/79
f 47/78/79 48/79/80 62/81/94
f 62/81/94 48/79/80 63/80/95
f 48/59/80 49/61/81 63/83/95
f 63/83/95 49/61/81 64/82/96
f 49/61/81 50/62/82 64/82/96
f 64/82/96 50/62/82 65/84/97
f 50/62/82 51/63/83 65/84/97
f 65/84/97 51/63/83 66/85/98
f 51/63/83 52/64/84 66/85/98
f 66/85/98 52/64/84 67/86/99
f 52/87/84 53/69/85 67/89/99
f 67/89/99 53/69/85 68/88/100
f 53/69/85 54/68/86 68/88/100
f 68/88/100 54/68/86 69/90/101
f 54/68/86 55/91/87 69/90/101
f 69/90/101 55/91/87 70/92/102
f 55/70/87 56/72/88 70/94/102
f 70/94/102 56/72/88 71/93/103
f 56/72/88 57/73/89 71/93/103
f 71/93/103 57/73/89 72/95/104
f 57/73/89 58/74/90 72/95/104
f 72/95/104 58/74/90 73/96/105
f 58/74/90 59/75/91 73/96/105
f 73/96/105 59/75/91 74/97/106
f 59/98/91 60/99/92 74/101/106
f 74/101/106 60/99/92 75/100/107
f 60/99/92 61/102/93 75/100/107
f 75/100/107 61/102/93 76/103/108
f 47/78/79 62/81/94 61/102/93
f 61/102/93 62/81/94 76/103/108
f 63/80/95 78/104/109 62/81/94
f 62/81/94 78/104/109 77/105/110
f 63/83/95 64/82/96 78/107/109
f 78/107/109 64/82/96 79/106/111
f 64/82/96 65/84/97 79/106/111
f 79/106/111 65/84/97 80/108/112
f 65/84/97 66/85/98 80/108/112
f 80/108/112 66/85/98 81/109/113
f 66/110/98 67/89/99 81/112/113
f 81/112/113 67/89/99 82/111/114
f 67/89/99 68/88/100 82/111/114
f 82/111/114 68/88/100 83/113/115
f 68/88/100 69/90/101 83/113/115
f 83/113/115 69/90/101 84/114/116
f 69/90/101 70/92/102 84/114/116
f 84/114/116 70/92/102 85/115/117
f 70/92/102 71/116/103 85/115/117
f 85/115/117 71/116/103 86/117/118
f 71/93/103 72/95/104 86/119/118
f 86/119/118 72/95/104 87/118/119
f 72/95/104 73/96/105 87/118/119
f 87/118/119 73/96/105 88/120/120
f 73/96/105 74/97/106 88/120/120
f 88/120/120 74/97/106 89/121/121
f 74/101/106 75/100/107 89/123/121
f 89/123/121 75/100/107 90/122/122
f 75/100/107 76/103/108 90/122/122
f 90/122/122 76/103/108 91/124/123
f 62/81/94 77/105/110 76/103/108
f 76/103/108 77/105/110 91/124/123
f 78/104/109 93/125/124 77/105/110
f 77/105/110 93/125/124 92/126/125
f 78/127/109 79/128/111 93/130/124
f 93/130/124 79/128/111 94/129/126
f 79/128/111 80/131/112 94/129/126
f 94/129/126 80/131/112 95/132/127
f 80/131/112 81/133/113 95/132/127
f 95/132/127 81/133/113 96/134/128
f 81/112/113 82/111/114 96/136/128
f 96/136/128 82/111/114 97/135/129
f 82/111/114 83/113/115 97/135/129
f 97/135/129 83/113/115 98/137/130
f 83/113/115 84/114/116 98/137/130
f 98/137/130 84/114/116 99/138/131
f 84/114/116 85/115/117 99/138/131
f 99/138/131 85/115/117 100/139/132
f 85/115/117 86/117/118 100/139/132
f 100/139/132 86/117/118 101/140/133
f 86/141/118 87/142/119 101/144/133
f 101/144/133 87/142/119 102/143/134
f 87/142/119 88/145/120 102/143/134
f 102/143/134 88/145/120 103/146/135
f 88/145/120 89/147/121 103/146/135
f 103/146/135 89/147/121 104/148/136
f 89/123/121 90/122/122 104/150/136
f 104/150/136 90/122/122 105/149/137
f 90/122/122 91/124/123 105/149/137
f 105/149/137 91/124/123 106/151/138
f 91/124/123 77/105/110 106/151/138
f 106/151/138 77/105/110 92/126/125
f 93/125/124 108/152/139 92/126/125
f 92/126/125 108/152/139 107/153/140
f 93/130/124 94/129/126 108/155/139
f 108/155/139 94/129/126 109/154/141
f 94/129/126 95/132/127 109/154/141
f 109/154/141 95/132/127 110/156/142
f 95/132/127 96/134/128 110/156/142
f 110/156/142 96/134/128 111/157/143
f 96/134/128 97/158/129 111/157/143
f 111/157/143 97/158/129 112/159/144
f 97/135/129 98/137/130 112/161/144
f 112/161/144 98/137/130 113/160/145
f 98/137/130 99/138/131 113/160/145
f 113/160/145 99/138/131 114/162/146
f 100/139/132 115/163/147 99/138/131
f 99/138/131 115/163/147 114/162/146
f 101/144/133 116/165/148 100/164/132
f 100/164/132 116/165/148 115/166/147
f 101/144/133 102/143/134 116/165/148
f 116/165/148 102/143/134 117/167/149
f 102/143/134 103/146/135 117/167/149
f 117/167/149 103/146/135 118/168/150
f 103/146/135 104/148/136 118/168/150
f 118/168/150 104/148/136 119/169/151
f 104/150/136 105/149/137 119/171/151
f 119/171/151 105/149/137 120/170/152
f 105/149/137 106/151/138 120/170/152
f 120/170/152 106/151/138 121/172/153
f 106/151/138 92/126/125 121/172/153
f 121/172/153 92/126/125 107/153/140
f 107/173/140 108/174/139 122/175/154
f 108/174/139 109/176/141 122/175/154
f 109/176/141 110/177/142 122/175/154
f 110/177/142 111/178/143 122/175/154
f 111/178/143 112/179/144 122/175/154
f 112/179/144 113/180/145 122/175/154
f 113/180/145 114/181/146 122/175/154
f 114/181/146 115/182/147 122/175/154
f 115/182/147 116/183/148 122/175/154
f 116/183/148 117/184/149 122/175/154
f 117/184/149 118/185/150 122/175/154
f 118/185/150 119/186/151 122/175/154
f 119/186/151 120/187/152 122/175/154
f 120/187/152 121/188/153 122/175/154
f 121/188/153 107/173/140 122/175/154
f 18/30/50 17/29/49 123/189/155
f 19/33/53 18/30/50 123/189/155
f 20/35/55 19/33/53 123/189/155
f 21/37/57 20/35/55 123/189/155
f 22/39/59 21/37/57 123/189/155
f 23/41/61 22/39/59 123/189/155
f 24/43/63 23/41/61 123/189/155
f 25/45/65 24/43/63 123/189/155
f 26/47/67 25/45/65 123/189/155
f 27/49/69 26/47/67 123/189/155
f 28/51/71 27/49/69 123/189/155
f 29/53/73 28/51/71 123/189/155
f 30/55/75 29/53/73 123/189/155
f 31/57/77 30/55/75 123/189/155
f 17/29/49 31/57/77 123/189/155
s 14
f 124/190/156 125/191/157 126/193/158
f 126/193/158 125/191/157 127/192/159
s 15
f 127/192/160 129/194/161 126/193/162
f 126/193/162 129/194/161 128/195/163
s 16
f 128/195/164 129/194/165 130/197/166
f 130/197/166 129/194/165 131/196/167
s 17
f 130/197/168 131/196/169 124/199/170
f 124/199/170 131/196/169 125/198/171
s 18
f 125/191/172 131/200/173 127/192/174
f 127/192/174 131/200/173 129/201/175
s 19
f 130/202/176 124/190/177 128/203/178
f 128/203/178 124/190/177 126/193/179
s 20
f 132/204/180 133/205/181 134/207/182
f 134/207/182 133/205/181 135/206/183
s 21
f 134/207/184 135/206/185 136/209/186
f 136/209/186 135/206/185 137/208/187
s 22
f 136/209/188 137/208/189 138/211/190
f 138/211/190 137/208/189 139/210/191
s 23
f 139/210/192 133/212/193 138/211/194
f 138/211/194 133/212/193 132/213/195
s 24
f 133/205/196 139/214/197 135/206/198
f 135/206/198 139/214/197 137/215/199
s 25
f 138/216/200 132/204/201 136/217/202
f 136/217/202 132/204/201 134/207/203
